<svg width="24" height="24" viewBox="0 0 24 24" fill="none" xmlns="http://www.w3.org/2000/svg">
<path d="M8 17V16C8 13.7909 9.79086 12 12 12C14.2091 12 16 13.7909 16 16V17M21 9C21 13.9706 16.9706 18 12 18C7.02944 18 3 13.9706 3 9M3.5 9H20.5C21.3284 9 22 8.32843 22 7.5C22 6.67157 21.3284 6 20.5 6H3.5C2.67157 6 2 6.67157 2 7.5C2 8.32843 2.67157 9 3.5 9Z" stroke="#28303F" stroke-width="1.5" stroke-linecap="round"/>
<circle cx="1" cy="1" r="1" transform="matrix(1 0 0 -1 11 16)" fill="#28303F"/>
</svg>
