<svg width="24" height="24" viewBox="0 0 24 24" fill="none" xmlns="http://www.w3.org/2000/svg">
<path d="M18 8C18 11.3137 15.3137 14 12 14M18 8C18 4.68629 15.3137 2 12 2M18 8H6M12 14C8.68629 14 6 11.3137 6 8M12 14C13.1046 14 14 11.3137 14 8C14 4.68629 13.1046 2 12 2M12 14C10.8954 14 10 11.3137 10 8C10 4.68629 10.8954 2 12 2M12 14V17M6 8C6 4.68629 8.68629 2 12 2M13.5 18.5C13.5 17.6716 12.8284 17 12 17M13.5 18.5C13.5 19.3284 12.8284 20 12 20M13.5 18.5H20M12 17C11.1716 17 10.5 17.6716 10.5 18.5M10.5 18.5C10.5 19.3284 11.1716 20 12 20M10.5 18.5H4M12 20V22" stroke="#28303F" stroke-width="1.5" stroke-linecap="round"/>
</svg>
