<svg width="24" height="24" viewBox="0 0 24 24" fill="none" xmlns="http://www.w3.org/2000/svg">
<path d="M16.2426 3.75736C15.1569 2.67157 13.6569 2 12 2C10.3431 2 8.84315 2.67157 7.75736 3.75736M9.87868 5.87868C10.4216 5.33579 11.1716 5 12 5C12.8284 5 13.5784 5.33579 14.1213 5.87868M9 13.5V16.5M6 12L6 18C6 20.2091 7.79086 22 10 22H14C16.2091 22 18 20.2091 18 18L18 12C18 9.79086 16.2091 8 14 8L10 8C7.79086 8 6 9.79086 6 12Z" stroke="#28303F" stroke-width="1.5" stroke-linecap="round" stroke-linejoin="round"/>
</svg>
