<svg width="24" height="24" viewBox="0 0 24 24" fill="none" xmlns="http://www.w3.org/2000/svg">
<path d="M2 8V6C2 3.79086 3.79086 2 6 2H8M16 2H18C20.2091 2 22 3.79086 22 6V8M22 16V18C22 20.2091 20.2091 22 18 22H16M8 22H6C3.79086 22 2 20.2091 2 18V16M13 10V13M8 17L8.34315 16.6569C9.40401 15.596 10 14.1571 10 12.6569V10C10 8.34315 11.3431 7 13 7C14.6569 7 16 8.34315 16 10V12.6569C16 14.1571 15.404 15.596 14.3431 16.6569L14 17" stroke="#28303F" stroke-width="1.5" stroke-linecap="round" stroke-linejoin="round"/>
</svg>
