<svg width="24" height="24" viewBox="0 0 24 24" fill="none" xmlns="http://www.w3.org/2000/svg">
<path d="M7.81965 22H16.1804C18.4891 22 20.3607 20.214 20.3607 18.0108V13.133C20.3607 12.4248 20.6555 11.7456 21.1803 11.2448C22.3962 10.0845 22.2381 8.16205 20.8475 7.19691L14.4588 2.763C12.9929 1.74567 11.0071 1.74567 9.54124 2.763L3.15251 7.19692C1.76187 8.16205 1.60381 10.0845 2.81969 11.2448C3.34447 11.7456 3.6393 12.4248 3.6393 13.133V18.0108C3.6393 20.214 5.5109 22 7.81965 22Z" stroke="#28303F" stroke-width="1.5" stroke-linejoin="round"/>
<path d="M15.5 13.6C15.5 16.0853 12 19 12 19C12 19 8.5 16.0853 8.5 13.6C8.5 11.1147 10.3431 10 12 10C13.6569 10 15.5 11.1147 15.5 13.6Z" stroke="#28303F" stroke-width="1.5" stroke-linejoin="round"/>
<circle cx="12" cy="13" r="1" fill="#28303F"/>
</svg>
