<svg width="24" height="24" viewBox="0 0 24 24" fill="none" xmlns="http://www.w3.org/2000/svg">
<path d="M21 17.9668V10.1503C21 8.93937 20.4604 7.7925 19.5301 7.02652L14.5301 2.90935C13.0577 1.69688 10.9423 1.69689 9.46986 2.90935L4.46986 7.02652C3.53964 7.7925 3 8.93937 3 10.1503V17.9668C3 20.1943 4.79086 22 7 22H17C19.2091 22 21 20.1943 21 17.9668Z" stroke="#28303F" stroke-width="1.5"/>
<path d="M15.9914 12.9026C16.6369 13.5084 16.6369 14.4916 15.9914 15.0974C15.0787 15.9541 13.6305 17 12 17C10.3695 17 8.92133 15.9541 8.00859 15.0974C7.3631 14.4916 7.3631 13.5084 8.00859 12.9026C8.92133 12.0459 10.3695 11 12 11C13.6305 11 15.0787 12.0459 15.9914 12.9026Z" stroke="#28303F" stroke-width="1.5"/>
<circle cx="12" cy="14" r="1" fill="#28303F"/>
</svg>
