<svg width="24" height="24" viewBox="0 0 24 24" fill="none" xmlns="http://www.w3.org/2000/svg">
<path d="M15.182 12.6465L15.5356 12.2929C16.3166 11.5119 16.3166 10.2456 15.5356 9.46451C14.7545 8.68346 13.4882 8.68346 12.7071 9.46451L11.2929 10.8787C10.5119 11.6598 10.5119 12.9261 11.2929 13.7071M8.818 13.3535L8.46445 13.7071C7.6834 14.4881 7.6834 15.7544 8.46445 16.5355C9.2455 17.3165 10.5118 17.3165 11.2929 16.5355L12.7071 15.1213C13.4881 14.3402 13.4881 13.0739 12.7071 12.2929M21 10.1503V17.9668C21 20.1943 19.2091 22 17 22H7C4.79086 22 3 20.1943 3 17.9668V10.1503C3 8.93937 3.53964 7.7925 4.46986 7.02652L9.46986 2.90935C10.9423 1.69689 13.0577 1.69688 14.5301 2.90935L19.5301 7.02652C20.4604 7.7925 21 8.93937 21 10.1503Z" stroke="#28303F" stroke-width="1.5" stroke-linecap="round"/>
</svg>
