<svg width="24" height="24" viewBox="0 0 24 24" fill="none" xmlns="http://www.w3.org/2000/svg">
<path d="M15.182 12.6465L15.5356 12.2929C16.3166 11.5119 16.3166 10.2456 15.5356 9.46451C14.7545 8.68346 13.4882 8.68346 12.7071 9.46451L11.2929 10.8787C10.5119 11.6598 10.5119 12.9261 11.2929 13.7071M8.818 13.3535L8.46445 13.7071C7.6834 14.4881 7.6834 15.7544 8.46445 16.5355C9.2455 17.3165 10.5118 17.3165 11.2929 16.5355L12.7071 15.1213C13.4881 14.3402 13.4881 13.0739 12.7071 12.2929M16.1804 22H7.81965C5.5109 22 3.6393 20.214 3.6393 18.0108V13.133C3.6393 12.4248 3.34447 11.7456 2.81969 11.2448C1.60381 10.0845 1.76187 8.16205 3.15251 7.19692L9.54124 2.763C11.0071 1.74567 12.9929 1.74567 14.4588 2.763L20.8475 7.19691C22.2381 8.16205 22.3962 10.0845 21.1803 11.2448C20.6555 11.7456 20.3607 12.4248 20.3607 13.133V18.0108C20.3607 20.214 18.4891 22 16.1804 22Z" stroke="#28303F" stroke-width="1.5" stroke-linecap="round"/>
</svg>
