<svg width="24" height="24" viewBox="0 0 24 24" fill="none" xmlns="http://www.w3.org/2000/svg">
<path d="M14 11.75C13.4695 11.2832 12.7726 11 12.0094 11C10.3474 11 9 12.3431 9 14C9 15.6569 10.3474 17 12.0094 17C12.7726 17 13.4695 16.7168 14 16.25M21 10.1503V17.9668C21 20.1943 19.2091 22 17 22H7C4.79086 22 3 20.1943 3 17.9668V10.1503C3 8.93937 3.53964 7.7925 4.46986 7.02652L9.46986 2.90935C10.9423 1.69689 13.0577 1.69688 14.5301 2.90935L19.5301 7.02652C20.4604 7.7925 21 8.93937 21 10.1503Z" stroke="#28303F" stroke-width="1.5" stroke-linecap="round"/>
<path d="M16.5 9.5C16.5 10.0523 16.0523 10.5 15.5 10.5C14.9477 10.5 14.5 10.0523 14.5 9.5C14.5 8.94772 14.9477 8.5 15.5 8.5C16.0523 8.5 16.5 8.94772 16.5 9.5Z" fill="#28303F"/>
</svg>
