<svg width="24" height="24" viewBox="0 0 24 24" fill="none" xmlns="http://www.w3.org/2000/svg">
<path d="M11 19H13M21 10.1503V17.9668C21 20.1943 19.2091 22 17 22H7C4.79086 22 3 20.1943 3 17.9668V10.1503C3 8.93937 3.53964 7.7925 4.46986 7.02652L9.46986 2.90935C10.9423 1.69689 13.0577 1.69688 14.5301 2.90935L19.5301 7.02652C20.4604 7.7925 21 8.93937 21 10.1503ZM12 9C13.841 9 15.3333 10.4924 15.3333 12.3333V13.5672C15.3333 14.1623 15.5797 14.7309 16.0139 15.138C16.7259 15.8055 16.2535 17 15.2775 17H8.72246C7.74649 17 7.27413 15.8055 7.98614 15.138C8.42033 14.7309 8.66667 14.1623 8.66667 13.5672V12.3333C8.66667 10.4924 10.1591 9 12 9Z" stroke="#28303F" stroke-width="1.5" stroke-linecap="round" stroke-linejoin="round"/>
</svg>
