<svg width="24" height="24" viewBox="0 0 24 24" fill="none" xmlns="http://www.w3.org/2000/svg">
<path d="M7.81965 22H16.1804C18.4891 22 20.3607 20.214 20.3607 18.0108V13.133C20.3607 12.4248 20.6555 11.7456 21.1803 11.2448C22.3962 10.0845 22.2381 8.16205 20.8475 7.19691L14.4588 2.763C12.9929 1.74567 11.0071 1.74567 9.54124 2.763L3.15251 7.19692C1.76187 8.16205 1.60381 10.0845 2.81969 11.2448C3.34447 11.7456 3.6393 12.4248 3.6393 13.133V18.0108C3.6393 20.214 5.5109 22 7.81965 22Z" stroke="#28303F" stroke-width="1.5" stroke-linejoin="round"/>
<path d="M11.1056 9.44721L9.10649 10.4468C8.42845 10.7858 7.99114 11.4804 8.02788 12.2375C8.17507 15.2712 8.93009 16.6489 10.887 18.1872C11.5391 18.6998 12.4617 18.701 13.113 18.1873C15.075 16.6394 15.8032 15.2444 15.9644 12.247C16.0054 11.4852 15.5675 10.7838 14.8851 10.4426L12.8944 9.44721C12.3314 9.16569 11.6686 9.16569 11.1056 9.44721Z" stroke="#28303F" stroke-width="1.5" stroke-linejoin="round"/>
</svg>
