<svg width="24" height="24" viewBox="0 0 24 24" fill="none" xmlns="http://www.w3.org/2000/svg">
<path d="M11 19H13M16.1804 22H7.81965C5.5109 22 3.6393 20.214 3.6393 18.0108V13.133C3.6393 12.4248 3.34447 11.7456 2.81969 11.2448C1.60381 10.0845 1.76187 8.16205 3.15251 7.19692L9.54124 2.763C11.0071 1.74567 12.9929 1.74567 14.4588 2.763L20.8475 7.19691C22.2381 8.16205 22.3962 10.0845 21.1803 11.2448C20.6555 11.7456 20.3607 12.4248 20.3607 13.133V18.0108C20.3607 20.214 18.4891 22 16.1804 22ZM12 9C13.841 9 15.3333 10.4924 15.3333 12.3333V13.5672C15.3333 14.1623 15.5797 14.7309 16.0139 15.138C16.7259 15.8055 16.2535 17 15.2775 17H8.72246C7.74649 17 7.27413 15.8055 7.98614 15.138C8.42033 14.7309 8.66667 14.1623 8.66667 13.5672V12.3333C8.66667 10.4924 10.1591 9 12 9Z" stroke="#28303F" stroke-width="1.5" stroke-linecap="round" stroke-linejoin="round"/>
</svg>
