<svg width="24" height="24" viewBox="0 0 24 24" fill="none" xmlns="http://www.w3.org/2000/svg">
<path d="M16.2426 7.75738C17.3284 8.84317 18 10.3432 18 12C18 13.6569 17.3284 15.1569 16.2426 16.2427M19.0711 4.92896C20.8807 6.7386 22 9.2386 22 12C22 14.7614 20.8807 17.2614 19.0711 19.0711M4.92893 19.0711C3.11929 17.2614 2 14.7614 2 12C2 9.2386 3.11929 6.7386 4.92893 4.92896M7.75736 16.2427C6.67157 15.1569 6 13.6569 6 12C6 10.3432 6.67157 8.84317 7.75736 7.75738M14 12C14 13.1046 13.1046 14 12 14C10.8954 14 10 13.1046 10 12C10 10.8954 10.8954 10 12 10C13.1046 10 14 10.8954 14 12Z" stroke="#28303F" stroke-width="1.5" stroke-linecap="round" stroke-linejoin="round"/>
</svg>
