<svg width="24" height="24" viewBox="0 0 24 24" fill="none" xmlns="http://www.w3.org/2000/svg">
<path d="M16.2427 3.75736C15.1569 2.67157 13.6569 2 12.0001 2C10.3432 2 8.84323 2.67157 7.75745 3.75736M9.87877 5.87868C10.4217 5.33579 11.1717 5 12.0001 5C12.8285 5 13.5785 5.33579 14.1214 5.87868M12.0001 16V22M12.0001 22H15.0001M12.0001 22H9.00009M7.39912 16H16.6011C18.126 16 19.09 14.3618 18.3494 13.0287L16.1272 9.02871C15.7744 8.39378 15.1052 8 14.3788 8H9.62134C8.89501 8 8.22576 8.39378 7.87303 9.02871L5.6508 13.0287C4.91021 14.3618 5.87415 16 7.39912 16Z" stroke="#28303F" stroke-width="1.5" stroke-linecap="round" stroke-linejoin="round"/>
</svg>
