<svg width="24" height="24" viewBox="0 0 24 24" fill="none" xmlns="http://www.w3.org/2000/svg">
<path d="M12.75 14C12.75 14.4142 12.4142 14.75 12 14.75C11.5858 14.75 11.25 14.4142 11.25 14C11.25 13.5858 11.5858 13.25 12 13.25C12.4142 13.25 12.75 13.5858 12.75 14Z" fill="#28303F"/>
<path d="M16.2426 9.75736C15.1569 8.67157 13.6569 8 12 8C10.3431 8 8.84315 8.67157 7.75736 9.75736M9.87868 11.8787C10.4216 11.3358 11.1716 11 12 11C12.8284 11 13.5784 11.3358 14.1213 11.8787M11 19H13M5 6L5 18C5 20.2091 6.79086 22 9 22H15C17.2091 22 19 20.2091 19 18V6C19 3.79086 17.2091 2 15 2L9 2C6.79086 2 5 3.79086 5 6Z" stroke="#28303F" stroke-width="1.5" stroke-linecap="round" stroke-linejoin="round"/>
</svg>
