<svg width="24" height="24" viewBox="0 0 24 24" fill="none" xmlns="http://www.w3.org/2000/svg">
<path d="M16.2426 3.75736C15.1568 2.67157 13.6568 2 12 2C10.3431 2 8.84311 2.67157 7.75732 3.75736M9.87864 5.87868C10.4215 5.33579 11.1715 5 12 5C12.8284 5 13.5784 5.33579 14.1213 5.87868M8 22H16C17.6569 22 19 20.6569 19 19V11C19 9.34315 17.6569 8 16 8H8C6.34315 8 5 9.34315 5 11V19C5 20.6569 6.34315 22 8 22ZM16 15C16 17.2091 14.2091 19 12 19C9.79086 19 8 17.2091 8 15C8 12.7909 9.79086 11 12 11C14.2091 11 16 12.7909 16 15Z" stroke="#28303F" stroke-width="1.5" stroke-linecap="round"/>
<path d="M11.25 15C11.25 15.4142 10.9142 15.75 10.5 15.75C10.0858 15.75 9.75 15.4142 9.75 15C9.75 14.5858 10.0858 14.25 10.5 14.25C10.9142 14.25 11.25 14.5858 11.25 15Z" fill="#28303F"/>
<path d="M14.25 15C14.25 15.4142 13.9142 15.75 13.5 15.75C13.0858 15.75 12.75 15.4142 12.75 15C12.75 14.5858 13.0858 14.25 13.5 14.25C13.9142 14.25 14.25 14.5858 14.25 15Z" fill="#28303F"/>
</svg>
