<svg width="24" height="24" viewBox="0 0 24 24" fill="none" xmlns="http://www.w3.org/2000/svg">
<path fill-rule="evenodd" clip-rule="evenodd" d="M18.6867 12.9153L18.2395 8.97519C17.9983 6.85063 16.4123 5.10719 14.2699 4.37366V4.26995C14.2699 3.01629 13.2536 2 11.9999 2C10.7463 2 9.72999 3.01629 9.72999 4.26995V4.37366C9.41157 4.48269 9.10544 4.61402 8.81418 4.7656L19.9976 15.9491C19.9784 15.5809 19.8379 15.2078 19.5522 14.8721C19.0665 14.3016 18.7672 13.6249 18.6867 12.9153ZM6.22275 18H16.9879L20.5183 21.5303C20.8111 21.8232 21.286 21.8232 21.5789 21.5303C21.8718 21.2374 21.8718 20.7626 21.5789 20.4697L3.57891 2.46967C3.28602 2.17678 2.81115 2.17678 2.51825 2.46967C2.22536 2.76256 2.22536 3.23744 2.51825 3.53033L6.26865 7.28072C6.00383 7.80572 5.82849 8.37526 5.7604 8.97519L5.31322 12.9153C5.23268 13.6249 4.93338 14.3016 4.44772 14.8721C3.3507 16.1609 4.39437 18 6.22275 18ZM14.9721 20.0715C14.5147 21.1992 13.3565 22 12 22C10.6435 22 9.48526 21.1992 9.02789 20.0715C9.00883 20.0245 9 19.974 9 19.9233C9 19.6895 9.18951 19.5 9.42329 19.5H14.5767C14.8105 19.5 15 19.6895 15 19.9233C15 19.974 14.9912 20.0245 14.9721 20.0715Z" fill="#28303F"/>
</svg>
