<svg width="24" height="24" viewBox="0 0 24 24" fill="none" xmlns="http://www.w3.org/2000/svg">
<path d="M18.3999 7.20007C18.7648 7.68581 19.3457 8 20 8C21.1046 8 22 7.10457 22 6C22 4.89543 21.1046 4 20 4C18.8954 4 18 4.89543 18 6C18 6.45027 18.1488 6.86579 18.3999 7.20007ZM18.3999 7.20007L13.6001 10.7999M13.6001 10.7999C13.2352 10.3142 12.6543 10 12 10C10.8954 10 10 10.8954 10 12C10 12.4503 10.1488 12.8658 10.3999 13.2001M13.6001 10.7999C13.8512 11.1342 14 11.5497 14 12C14 13.1046 13.1046 14 12 14C11.3457 14 10.7648 13.6858 10.3999 13.2001M10.3999 13.2001L5.60009 16.7999M5.60009 16.7999C5.23521 16.3142 4.6543 16 4 16C2.89543 16 2 16.8954 2 18C2 19.1046 2.89543 20 4 20C5.10457 20 6 19.1046 6 18C6 17.5497 5.8512 17.1342 5.60009 16.7999Z" stroke="#28303F" stroke-width="1.5" stroke-linecap="round" stroke-linejoin="round"/>
</svg>
