<svg width="24" height="24" viewBox="0 0 24 24" fill="none" xmlns="http://www.w3.org/2000/svg">
<path d="M19.9999 18H13.9999M19.9999 18C21.1044 18 21.9999 18.8954 21.9999 20C21.9999 21.1046 21.1044 22 19.9999 22H13.9999C12.8953 22 11.9999 21.1046 11.9999 20C11.9999 18.8954 12.8953 18 13.9999 18M19.9999 18C21.1044 18 21.9999 17.1046 21.9999 16C21.9999 14.8954 21.1044 14 19.9999 14H19.3332M13.9999 18C12.8953 18 11.9999 17.1046 11.9999 16C11.9999 14.8954 12.8953 14 13.9999 14H19.3332M13.6753 22H10.3244C6.22908 22 3.33726 17.9878 4.63232 14.1026L5.63233 11.1026C6.44901 8.65258 8.74184 7 11.3244 7H12.6753C15.2579 7 17.5507 8.65258 18.3674 11.1026L19.3332 14" stroke="#28303F" stroke-width="1.5" stroke-linejoin="round"/>
<path d="M14.0859 7L9.91411 7L8.51303 5.39296C7.13959 3.81763 8.74185 1.46298 10.7471 2.10985L11.6748 2.40914C11.8861 2.47728 12.1139 2.47728 12.3252 2.40914L13.2529 2.10985C15.2582 1.46298 16.8604 3.81763 15.487 5.39296L14.0859 7Z" stroke="#28303F" stroke-width="1.5" stroke-linejoin="round"/>
</svg>
