<svg width="24" height="24" viewBox="0 0 24 24" fill="none" xmlns="http://www.w3.org/2000/svg">
<path d="M6 20.0007C3.57111 18.1763 2 15.2716 2 12C2 6.47715 6.47715 2 12 2C17.5228 2 22 6.47715 22 12C22 17.5228 17.5228 22 12 22C10.9064 22 9.8538 21.8245 8.86884 21.5L11.5 11.5" stroke="#28303F" stroke-width="1.5" stroke-linecap="round" stroke-linejoin="round"/>
<path d="M10.1725 16.6555C10.7386 16.8779 11.355 17 12 17C14.7614 17 17 14.7614 17 12C17 9.23858 14.7614 7 12 7C9.23858 7 7 9.23858 7 12C7 12.9107 7.24349 13.7646 7.66891 14.5" stroke="#28303F" stroke-width="1.5" stroke-linecap="round"/>
</svg>
