<svg width="24" height="24" viewBox="0 0 24 24" fill="none" xmlns="http://www.w3.org/2000/svg">
<path fill-rule="evenodd" clip-rule="evenodd" d="M8.28757 4.28769C9.23845 3.3368 10.5499 2.75 11.9999 2.75C13.4498 2.75 14.7613 3.3368 15.7122 4.28769C16.0051 4.58058 16.48 4.58058 16.7728 4.28769C17.0657 3.9948 17.0657 3.51992 16.7728 3.22703C15.5522 2.00634 13.8636 1.25 11.9999 1.25C10.1361 1.25 8.4476 2.00634 7.22691 3.22703C6.93401 3.51992 6.93401 3.9948 7.22691 4.28769C7.5198 4.58058 7.99467 4.58058 8.28757 4.28769ZM10.4089 6.40901C10.8169 6.00102 11.3784 5.75 11.9999 5.75C12.6214 5.75 13.1829 6.00102 13.5909 6.40901C13.8838 6.7019 14.3586 6.7019 14.6515 6.40901C14.9444 6.11612 14.9444 5.64124 14.6515 5.34835C13.9737 4.67055 13.0352 4.25 11.9999 4.25C10.9646 4.25 10.026 4.67055 9.34823 5.34835C9.05533 5.64124 9.05533 6.11612 9.34823 6.40901C9.64112 6.7019 10.116 6.7019 10.4089 6.40901ZM7.87278 9.02871C8.22552 8.39378 8.89476 8 9.6211 8H14.3786C15.1049 8 15.7742 8.39378 16.1269 9.02871L18.3491 13.0287C19.0897 14.3618 18.1258 16 16.6008 16H12.7499V21.25H14.9999C15.4141 21.25 15.7499 21.5858 15.7499 22C15.7499 22.4142 15.4141 22.75 14.9999 22.75H8.99988C8.58566 22.75 8.24988 22.4142 8.24988 22C8.24988 21.5858 8.58566 21.25 8.99988 21.25H11.2499V16H7.39887C5.8739 16 4.90997 14.3618 5.65056 13.0287L7.87278 9.02871Z" fill="#28303F"/>
</svg>
