<svg width="24" height="24" viewBox="0 0 24 24" fill="none" xmlns="http://www.w3.org/2000/svg">
<path d="M16 6C16 3.79086 14.2091 2 12 2C9.79086 2 8 3.79086 8 6" stroke="#28303F" stroke-width="1.5" stroke-linecap="round" stroke-linejoin="round"/>
<path d="M4.56224 9.50386C4.81245 7.50215 6.51406 6 8.53135 6H15.4691C17.4864 6 19.188 7.50215 19.4382 9.50386L20.4382 17.5039C20.7366 19.8913 18.8751 22 16.4691 22H7.53135C5.12536 22 3.26381 19.8913 3.56224 17.5039L4.56224 9.50386Z" stroke="#28303F" stroke-width="1.5" stroke-linejoin="round"/>
<path d="M12.2653 11.7349L12.0002 12L11.735 11.7349C11.0028 11.0026 9.81559 11.0026 9.08335 11.7349C8.35112 12.4671 8.35112 13.6543 9.08335 14.3865L10.9395 16.2427C11.5253 16.8285 12.475 16.8285 13.0608 16.2427L14.917 14.3865C15.6492 13.6543 15.6492 12.4671 14.917 11.7349C14.1848 11.0026 12.9976 11.0026 12.2653 11.7349Z" stroke="#28303F" stroke-width="1.5" stroke-linejoin="round"/>
</svg>
