<svg width="24" height="24" viewBox="0 0 24 24" fill="none" xmlns="http://www.w3.org/2000/svg">
<path d="M9 6L9 7C9 8.65685 10.3431 10 12 10C13.6569 10 15 8.65685 15 7V6" stroke="#28303F" stroke-width="1.5" stroke-linecap="round" stroke-linejoin="round"/>
<path d="M20.6665 13L19.5569 6.3424C19.2355 4.41365 17.5667 3 15.6113 3H8.38836C6.433 3 4.76424 4.41365 4.44278 6.3424L2.77612 16.3424C2.36976 18.7805 4.24994 21 6.72169 21H12.9999" stroke="#28303F" stroke-width="1.5" stroke-linecap="round" stroke-linejoin="round"/>
<path d="M18.5227 15.9168L18.2575 16.182L17.9923 15.9168C17.2601 15.1846 16.0729 15.1846 15.3407 15.9168C14.6084 16.649 14.6084 17.8362 15.3407 18.5685L17.1968 20.4246C17.7826 21.0104 18.7324 21.0104 19.3182 20.4246L21.1743 18.5685C21.9065 17.8362 21.9065 16.649 21.1743 15.9168C20.4421 15.1846 19.2549 15.1846 18.5227 15.9168Z" stroke="#28303F" stroke-width="1.5" stroke-linejoin="round"/>
</svg>
