<svg width="24" height="24" viewBox="0 0 24 24" fill="none" xmlns="http://www.w3.org/2000/svg">
<path d="M2 6H18C20.2091 6 22 7.79086 22 10V18C22 20.2091 20.2091 22 18 22H6C3.79086 22 2 20.2091 2 18V6Z" stroke="#28303F" stroke-width="1.5" stroke-linejoin="round"/>
<path d="M2 6C2 3.79086 3.79086 2 6 2H12C14.2091 2 16 3.79086 16 6H2Z" stroke="#28303F" stroke-width="1.5" stroke-linejoin="round"/>
<path d="M22 12L22 16H18C16.8954 16 16 15.1046 16 14C16 12.8954 16.8954 12 18 12L22 12Z" stroke="#28303F" stroke-width="1.5" stroke-linejoin="round"/>
</svg>
