<svg width="24" height="24" viewBox="0 0 24 24" fill="none" xmlns="http://www.w3.org/2000/svg">
<path fill-rule="evenodd" clip-rule="evenodd" d="M2.09752 13.4006C2.58805 16.9004 4.89012 19.8193 8.02534 21.1789C8.16256 18.3582 8.745 15.6481 9.70709 13.1093C8.68151 12.9134 7.61951 12.8105 6.53135 12.8105C4.99114 12.8105 3.50352 13.0167 2.09752 13.4006ZM9.5062 21.6865C10.3034 21.8912 11.1391 22 12.0002 22C14.8705 22 17.4583 20.7907 19.282 18.8539C17.2914 16.3254 14.4644 14.4055 11.179 13.4606C10.1791 16.0394 9.5964 18.8055 9.5062 21.6865ZM20.246 17.6591C21.3525 16.0499 22.0002 14.1006 22.0002 12C22.0002 11.824 21.9957 11.6491 21.9867 11.4754C20.922 11.6682 19.8232 11.769 18.7001 11.769C16.5011 11.769 14.3958 11.3824 12.4575 10.6763C12.2133 11.1334 11.9829 11.598 11.7667 12.0698C15.1618 13.0832 18.1088 15.0569 20.246 17.6591ZM21.7971 9.9851C21.2774 7.44441 19.7941 5.25466 17.7457 3.81428C15.9871 5.45943 14.4607 7.32153 13.2153 9.35377C14.9231 9.94544 16.7705 10.269 18.7001 10.269C19.7606 10.269 20.7961 10.1713 21.7971 9.9851ZM16.4044 3.01957C15.0756 2.36666 13.5807 2 12.0002 2C9.68466 2 7.55293 2.78702 5.85792 4.10815C7.38825 6.09222 9.42956 7.71043 11.8032 8.78971C13.07 6.67863 14.6203 4.7399 16.4044 3.01957ZM4.7439 5.11913C3.07007 6.8837 2.03307 9.25829 2.00098 11.8748C3.44602 11.5067 4.96499 11.3105 6.53135 11.3105C7.82124 11.3105 9.07887 11.4435 10.2895 11.696C10.5305 11.1555 10.7892 10.6236 11.0647 10.1011C8.559 8.93971 6.39165 7.22366 4.7439 5.11913Z" fill="#28303F"/>
</svg>
