<svg width="24" height="24" viewBox="0 0 24 24" fill="none" xmlns="http://www.w3.org/2000/svg">
<path d="M15.2858 4C13.182 4 11.4765 5.79086 11.4765 8C11.4765 8.33382 11.5154 8.65809 11.5888 8.96808C9.56586 8.96808 6.5189 8.55908 3.97419 6.00961C3.63581 5.67059 3.01184 5.89726 3.03531 6.37567C3.41244 14.0627 6.70452 16.3049 8.39986 16.4444C7.30511 17.5257 5.71486 18.3791 4.11464 18.7622C3.69232 18.8633 3.58799 19.3256 4.00096 19.4599C5.14598 19.8323 6.78492 19.9758 7.66711 20C13.9079 20 18.9804 14.7471 19.0933 8.22229C19.9126 7.68945 20.4375 6.5325 20.7324 5.71291C20.8042 5.5133 20.4771 5.28073 20.2812 5.36226C19.6691 5.61708 18.8921 5.67749 18.2302 5.46181C17.5315 4.56927 16.472 4 15.2858 4Z" fill="#28303F"/>
</svg>
