<svg width="24" height="24" viewBox="0 0 24 24" fill="none" xmlns="http://www.w3.org/2000/svg">
<path fill-rule="evenodd" clip-rule="evenodd" d="M10.8449 2.95007C8.62926 4.87799 4 9.46239 4 14.1111C4 18 7.02944 22 12 22C16.9706 22 20 18 20 14.1111C20 9.46239 15.3707 4.87799 13.1551 2.95007C12.4846 2.36658 11.5154 2.36658 10.8449 2.95007ZM12.8568 18.1692C12.4503 18.2484 12.1849 18.6422 12.2641 19.0487C12.3433 19.4553 12.7371 19.7207 13.1437 19.6415C15.5696 19.1689 17.1486 17.2427 17.6083 15.1618C17.6977 14.7573 17.4422 14.357 17.0378 14.2676C16.6333 14.1783 16.233 14.4337 16.1436 14.8382C15.791 16.4342 14.6036 17.8289 12.8568 18.1692Z" fill="#28303F"/>
</svg>
