<svg width="24" height="24" viewBox="0 0 24 24" fill="none" xmlns="http://www.w3.org/2000/svg">
<path fill-rule="evenodd" clip-rule="evenodd" d="M6.09109 1.29283C6.48163 1.1548 6.91012 1.35949 7.04815 1.75003C7.76923 3.79012 9.71491 5.24996 11.9996 5.24996C12.0567 5.24996 12.1136 5.25067 12.1704 5.25208C12.2271 5.25067 12.284 5.24996 12.3411 5.24996C14.6258 5.24996 16.5715 3.79012 17.2926 1.75003C17.4306 1.35949 17.8591 1.1548 18.2497 1.29283C18.6402 1.43087 18.8449 1.85936 18.7068 2.24989C18.11 3.93856 16.86 5.31945 15.2598 6.08806C16.54 6.79554 17.5659 7.90676 18.1659 9.24997H6.17486C6.77481 7.90676 7.80075 6.79554 9.08095 6.08806C7.48074 5.31945 6.23075 3.93856 5.63389 2.24989C5.49586 1.85936 5.70055 1.43087 6.09109 1.29283ZM5.70663 10.75H18.6341C18.71 11.155 18.7496 11.5729 18.7496 12C18.7496 12.4271 18.71 12.8449 18.6341 13.25H5.70663C5.63078 12.8449 5.59112 12.4271 5.59112 12C5.59112 11.5729 5.63078 11.155 5.70663 10.75ZM6.17487 14.75C6.77482 16.0932 7.80076 17.2044 9.08095 17.9119C7.48074 18.6805 6.23075 20.0614 5.63389 21.75C5.49586 22.1406 5.70055 22.5691 6.09109 22.7071C6.48163 22.8451 6.91012 22.6404 7.04815 22.2499C7.76923 20.2098 9.71491 18.75 11.9996 18.75C12.0567 18.75 12.1136 18.7493 12.1704 18.7478C12.2271 18.7493 12.284 18.75 12.3411 18.75C14.6258 18.75 16.5715 20.2098 17.2926 22.2499C17.4306 22.6404 17.8591 22.8451 18.2497 22.7071C18.6402 22.5691 18.8449 22.1406 18.7068 21.75C18.11 20.0614 16.86 18.6805 15.2598 17.9119C16.54 17.2044 17.5659 16.0932 18.1659 14.75H6.17487Z" fill="#28303F"/>
</svg>
