<svg width="24" height="24" viewBox="0 0 24 24" fill="none" xmlns="http://www.w3.org/2000/svg">
<path fill-rule="evenodd" clip-rule="evenodd" d="M6.80975 3.06638C5.06035 4.75112 2 8.19735 2 11.6889C2 14.5263 3.8899 17.4377 7.05049 17.928C6.68851 16.9492 6.5 15.9174 6.5 14.9C6.5 12.4171 7.65572 10.0891 8.93543 8.24648C9.68779 7.16319 10.5241 6.18928 11.2967 5.37777C10.5585 4.44383 9.79598 3.64973 9.1905 3.06661C8.51673 2.41773 7.48352 2.4175 6.80975 3.06638ZM8 14.9C8 10.8281 11.8368 6.81107 13.8292 4.99948C14.5018 4.38795 15.4982 4.38795 16.1708 4.99948C18.1632 6.81107 22 10.8281 22 14.9C22 18.4 19.3492 22 15 22C10.6508 22 8 18.4 8 14.9ZM15.2636 19.1424C15.185 18.7357 15.451 18.3423 15.8576 18.2637C17.1355 18.0166 18.0081 17.0042 18.2679 15.8371C18.3579 15.4328 18.7587 15.178 19.163 15.268C19.5673 15.358 19.8221 15.7587 19.7321 16.163C19.3631 17.8205 18.0945 19.359 16.1424 19.7364C15.7357 19.815 15.3423 19.5491 15.2636 19.1424Z" fill="#28303F"/>
</svg>
