<svg width="24" height="24" viewBox="0 0 24 24" fill="none" xmlns="http://www.w3.org/2000/svg">
<path d="M16 2V5M8 2V5M7 22H17C19.2091 22 21 20.2091 21 18V7.5C21 5.29086 19.2091 3.5 17 3.5H7C4.79086 3.5 3 5.29086 3 7.5V18C3 20.2091 4.79086 22 7 22ZM11.9999 10.9393L12.2651 10.6742C12.9973 9.94194 14.1845 9.94194 14.9167 10.6742C15.649 11.4064 15.649 12.5936 14.9167 13.3258L13.0606 15.182C12.4748 15.7678 11.5251 15.7678 10.9393 15.182L9.08311 13.3258C8.35088 12.5936 8.35088 11.4064 9.08311 10.6742C9.81534 9.94194 11.0025 9.94194 11.7348 10.6742L11.9999 10.9393Z" stroke="#28303F" stroke-width="1.5" stroke-linecap="round" stroke-linejoin="round"/>
</svg>
