<svg width="24" height="24" viewBox="0 0 24 24" fill="none" xmlns="http://www.w3.org/2000/svg">
<path fill-rule="evenodd" clip-rule="evenodd" d="M12.0003 1.25C12.4146 1.25 12.7503 1.58579 12.7503 2V4C12.7503 4.41421 12.4146 4.75 12.0003 4.75C11.5861 4.75 11.2503 4.41421 11.2503 4V2C11.2503 1.58579 11.5861 1.25 12.0003 1.25ZM17.0003 12C17.0003 14.7614 14.7618 17 12.0003 17C9.23892 17 7.00035 14.7614 7.00035 12C7.00035 9.23858 9.23892 7 12.0003 7C14.7618 7 17.0003 9.23858 17.0003 12ZM12.7503 20C12.7503 19.5858 12.4146 19.25 12.0003 19.25C11.5861 19.25 11.2503 19.5858 11.2503 20V22C11.2503 22.4142 11.5861 22.75 12.0003 22.75C12.4146 22.75 12.7503 22.4142 12.7503 22V20ZM21.3099 6.6251C21.517 6.98382 21.3941 7.44252 21.0354 7.64962L19.3033 8.64962C18.9446 8.85673 18.4859 8.73382 18.2788 8.3751C18.0717 8.01639 18.1946 7.55769 18.5533 7.35059L20.2854 6.35059C20.6441 6.14348 21.1028 6.26639 21.3099 6.6251ZM5.44702 16.6496C5.80574 16.4425 5.92865 15.9838 5.72154 15.6251C5.51443 15.2664 5.05574 15.1435 4.69702 15.3506L2.96497 16.3506C2.60625 16.5577 2.48334 17.0164 2.69045 17.3751C2.89756 17.7338 3.35625 17.8567 3.71497 17.6496L5.44702 16.6496ZM2.69053 6.62514C2.89764 6.26642 3.35633 6.14351 3.71505 6.35062L5.4471 7.35062C5.80582 7.55773 5.92873 8.01642 5.72162 8.37514C5.51452 8.73386 5.05582 8.85676 4.6971 8.64966L2.96505 7.64966C2.60633 7.44255 2.48343 6.98386 2.69053 6.62514ZM19.3035 15.3504C18.9447 15.1433 18.486 15.2662 18.2789 15.6249C18.0718 15.9836 18.1947 16.4423 18.5535 16.6494L20.2855 17.6494C20.6442 17.8565 21.1029 17.7336 21.31 17.3749C21.5171 17.0162 21.3942 16.5575 21.0355 16.3504L19.3035 15.3504Z" fill="#28303F"/>
</svg>
