<svg width="24" height="24" viewBox="0 0 24 24" fill="none" xmlns="http://www.w3.org/2000/svg">
<path d="M19 12V5M19 12H5M19 12C20.1046 12 21 12.8954 21 14V16C21 17.1046 20.1046 18 19 18H5C3.89543 18 3 17.1046 3 16V14C3 12.8954 3.89543 12 5 12M5 12V5M19 5C19 3.34315 17.6569 2 16 2H8C6.34315 2 5 3.34315 5 5M19 5H20C21.1046 5 22 5.89543 22 7V8M19 5H5M5 5H4C2.89543 5 2 5.89543 2 7V8M12 5V12M7 22H9C9.55228 22 10 21.5523 10 21V19C10 18.4477 9.55228 18 9 18H7C6.44772 18 6 18.4477 6 19V21C6 21.5523 6.44772 22 7 22ZM15 22H17C17.5523 22 18 21.5523 18 21V19C18 18.4477 17.5523 18 17 18H15C14.4477 18 14 18.4477 14 19V21C14 21.5523 14.4477 22 15 22Z" stroke="#28303F" stroke-width="1.5" stroke-linecap="round" stroke-linejoin="round"/>
</svg>
