<svg width="24" height="24" viewBox="0 0 24 24" fill="none" xmlns="http://www.w3.org/2000/svg">
<path d="M12 21V22" stroke="#28303F" stroke-width="1.5" stroke-linecap="round"/>
<path d="M19.071 4.92896L18.3639 5.63606" stroke="#28303F" stroke-width="1.5" stroke-linecap="round"/>
<path d="M5.63599 18.364L4.92888 19.0711" stroke="#28303F" stroke-width="1.5" stroke-linecap="round"/>
<path d="M22 12L21 12" stroke="#28303F" stroke-width="1.5" stroke-linecap="round"/>
<path d="M19.071 19.071L18.3639 18.3639" stroke="#28303F" stroke-width="1.5" stroke-linecap="round"/>
<path d="M2 12C2 17.5228 6.47715 22 12 22C17.5228 22 22 17.5228 22 12C22 6.47715 17.5228 2 12 2M2 12C2 6.47715 6.47715 2 12 2M2 12H3M12 2V3M5.63599 5.63605L4.92888 4.92894M12 18C9.38756 18 7.16508 16.3304 6.34141 14H17.6586C16.8349 16.3304 14.6124 18 12 18ZM12 6C14.6124 6 16.8349 7.66962 17.6586 10L6.34141 10C7.16508 7.66962 9.38756 6 12 6Z" stroke="#28303F" stroke-width="1.5" stroke-linecap="round" stroke-linejoin="round"/>
</svg>
