<svg width="24" height="24" viewBox="0 0 24 24" fill="none" xmlns="http://www.w3.org/2000/svg">
<path d="M9 20V10C9 8.89543 9.89543 8 11 8H13C14.1046 8 15 8.89543 15 10V20M9 20C9 21.1046 9.89543 22 11 22H13C14.1046 22 15 21.1046 15 20M9 20V14C9 12.8954 8.10457 12 7 12H5C3.89543 12 3 12.8954 3 14V20C3 21.1046 3.89543 22 5 22H7C8.10457 22 9 21.1046 9 20ZM15 20V16C15 14.8954 15.8954 14 17 14H19C20.1046 14 21 14.8954 21 16V20C21 21.1046 20.1046 22 19 22H17C15.8954 22 15 21.1046 15 20Z" stroke="#28303F" stroke-width="1.5"/>
<path d="M11.5245 1.96353C11.6741 1.50287 12.3259 1.50287 12.4755 1.96353L12.6324 2.4463C12.6993 2.65232 12.8913 2.7918 13.1079 2.7918H13.6155C14.0999 2.7918 14.3013 3.4116 13.9094 3.6963L13.4988 3.99468C13.3235 4.122 13.2502 4.34768 13.3171 4.5537L13.474 5.03647C13.6237 5.49713 13.0964 5.88019 12.7046 5.59549L12.2939 5.29712C12.1186 5.1698 11.8814 5.1698 11.7061 5.29712L11.2954 5.59549C10.9036 5.88019 10.3763 5.49713 10.526 5.03647L10.6829 4.5537C10.7498 4.34768 10.6765 4.122 10.5012 3.99468L10.0906 3.6963C9.69871 3.4116 9.90009 2.7918 10.3845 2.7918H10.8921C11.1087 2.7918 11.3007 2.65232 11.3676 2.4463L11.5245 1.96353Z" fill="#28303F"/>
</svg>
