<svg width="24" height="24" viewBox="0 0 24 24" fill="none" xmlns="http://www.w3.org/2000/svg">
<path d="M9 14C10.6569 14 12 15.3431 12 17C12 17.5523 11.5523 18 11 18H7C6.44772 18 6 17.5523 6 17C6 15.3431 7.34315 14 9 14ZM9 14C10.1046 14 11 13.1046 11 12C11 10.8954 10.1046 10 9 10C7.89543 10 7 10.8954 7 12C7 13.1046 7.89543 14 9 14ZM18 12L15 12M18 16L15 16M5 22H19C20.6569 22 22 20.6569 22 19V9C22 7.34315 20.6569 6 19 6H5C3.34315 6 2 7.34315 2 9V19C2 20.6569 3.34315 22 5 22ZM14 6V4C14 2.89543 13.1046 2 12 2C10.8954 2 10 2.89543 10 4V6H14Z" stroke="#28303F" stroke-width="1.5" stroke-linecap="round"/>
</svg>
