<svg width="24" height="24" viewBox="0 0 24 24" fill="none" xmlns="http://www.w3.org/2000/svg">
<path d="M15.4383 11.8278V10.7842L16.6483 11.3283C17.1783 11.5667 17.7858 11.5627 18.3126 11.3175L19.5579 10.7378V11.8278C19.5579 12.9654 18.6357 13.8876 17.4981 13.8876C16.3605 13.8877 15.4383 12.9654 15.4383 11.8278Z" stroke="#28303F" stroke-width="1.5" stroke-linecap="round"/>
<path d="M21.5217 9.41067L18.1002 7.89003C17.7073 7.71537 17.2587 7.71537 16.8657 7.89003L13.4443 9.41067C13.2437 9.49981 13.2437 9.78448 13.4443 9.87362L16.8657 11.3943C17.2587 11.5689 17.7073 11.5689 18.1002 11.3943L21.5217 9.87362C21.7223 9.78448 21.7223 9.49981 21.5217 9.41067Z" stroke="#28303F" stroke-width="1.5" stroke-linecap="round" stroke-linejoin="round"/>
<path d="M15.4706 15.4524C15.5737 15.4161 15.6793 15.3825 15.7874 15.3518C15.9627 15.3019 16.1503 15.3555 16.2788 15.4812L17.1106 16.2949C17.3156 16.4954 17.6503 16.4954 17.8553 16.2949L18.6871 15.4812C18.8156 15.3555 19.0032 15.3019 19.1785 15.3518C20.6474 15.7697 21.6721 16.7139 21.6721 17.8118C21.6721 18.3714 21.2032 18.825 20.6248 18.825H16.6629" stroke="#28303F" stroke-width="1.5" stroke-linecap="round" stroke-linejoin="round"/>
<line x1="13.6445" y1="10.3921" x2="13.6445" y2="12.0584" stroke="#28303F" stroke-width="1.5" stroke-linecap="round"/>
<path d="M5.49789 9.83825V8.20216L7.76982 9.04885C8.2203 9.21674 8.71619 9.21674 9.16667 9.04885L11.4386 8.20216V9.83825C11.4386 11.4787 10.1087 12.8086 8.46824 12.8086C6.82776 12.8086 5.49789 11.4787 5.49789 9.83825Z" stroke="#28303F" stroke-width="1.5" stroke-linecap="round"/>
<path d="M14.3881 6.07451L9.37304 3.84557C8.79702 3.58956 8.1395 3.58956 7.56348 3.84557L2.54837 6.07451C2.25437 6.20517 2.25437 6.62243 2.54837 6.75309L7.56348 8.98203C8.1395 9.23804 8.79702 9.23804 9.37304 8.98203L14.3881 6.75309C14.6821 6.62243 14.6821 6.20517 14.3881 6.07451Z" stroke="#28303F" stroke-width="1.5" stroke-linecap="round" stroke-linejoin="round"/>
<path d="M6.70324 14.991L7.92251 16.1838C8.22293 16.4777 8.71358 16.4777 9.014 16.1838L10.2333 14.991C10.4216 14.8067 10.6966 14.7282 10.9536 14.8013C13.1067 15.4138 14.6086 16.7979 14.6086 18.4072C14.6086 19.2274 13.9214 19.8924 13.0735 19.8924H3.86297C3.01516 19.8924 2.32787 19.2274 2.32787 18.4072C2.32787 16.7979 3.82986 15.4138 5.98293 14.8013C6.23992 14.7282 6.51489 14.8067 6.70324 14.991Z" stroke="#28303F" stroke-width="1.5" stroke-linecap="round" stroke-linejoin="round"/>
<line x1="3.20068" y1="7.28125" x2="3.20068" y2="10.3051" stroke="#28303F" stroke-width="1.5" stroke-linecap="round"/>
</svg>
