<svg width="24" height="24" viewBox="0 0 24 24" fill="none" xmlns="http://www.w3.org/2000/svg">
<path d="M17.4819 10.3355L18.8961 11.7497M15.3605 12.4568V13.871M19.6031 8.21416H21.0174M7.99994 6L3.20525 11.5938C2.52512 12.3873 2.57057 13.5706 3.30955 14.3096L10.9999 22M10.9999 22H14.9999M10.9999 22H6.99994M8.15065 5.23296L9.80056 9.2399C10.344 10.5596 12.055 10.9018 13.0641 9.89261L15.8926 7.06419C16.9017 6.05504 16.5595 4.34401 15.2398 3.80062L11.2329 2.1507C10.4863 1.84328 9.62811 2.01493 9.05719 2.58584L8.58579 3.05725C8.01487 3.62817 7.84323 4.48638 8.15065 5.23296Z" stroke="#28303F" stroke-width="1.5" stroke-linecap="round" stroke-linejoin="round"/>
</svg>
