<svg width="24" height="24" viewBox="0 0 24 24" fill="none" xmlns="http://www.w3.org/2000/svg">
<path d="M14 9V11M14 4.5V3M10 6L9 5M18 6L19 5M10 15C10 16.1046 9.10457 17 8 17C6.89543 17 6 16.1046 6 15C6 13.8954 6.89543 13 8 13C9.10457 13 10 13.8954 10 15ZM8 9H20C21.1046 9 22 9.89543 22 11V11.9296C22 12.5983 21.6658 13.2228 21.1094 13.5937L20.0077 14.3282C19.3506 14.7662 18.5786 15 17.7889 15H14C14 18.3137 11.3137 21 8 21C4.68629 21 2 18.3137 2 15C2 11.6863 4.68629 9 8 9Z" stroke="#28303F" stroke-width="1.5" stroke-linecap="round" stroke-linejoin="round"/>
</svg>
