<svg width="24" height="24" viewBox="0 0 24 24" fill="none" xmlns="http://www.w3.org/2000/svg">
<path d="M12 6V8C12 10.2091 13.7909 12 16 12H18M12 6C12 3.79086 13.7909 2 16 2H18C20.2091 2 22 3.79086 22 6V8C22 10.2091 20.2091 12 18 12M12 6L6 6C3.79086 6 2 7.79086 2 10V18C2 20.2091 3.79086 22 6 22H14C16.2091 22 18 20.2091 18 18V12" stroke="#28303F" stroke-width="1.5" stroke-linecap="round" stroke-linejoin="round"/>
<path d="M12 17L7 17M7 17L7 12M7 17L13 11" stroke="#28303F" stroke-width="1.5" stroke-linecap="round" stroke-linejoin="round"/>
</svg>
