<svg width="24" height="24" viewBox="0 0 24 24" fill="none" xmlns="http://www.w3.org/2000/svg">
<path d="M8.40915 10C9.10077 8.8044 10.3935 8 11.874 8C14.0832 8 15.874 9.79086 15.874 12C15.874 14.2091 14.0832 16 11.874 16C10.0102 16 8.44408 14.7252 8.00004 13M8.40915 10V7.5M8.40915 10L10.374 10.5" stroke="#28303F" stroke-width="1.5" stroke-linecap="round" stroke-linejoin="round"/>
<path d="M17 3H7C4.79086 3 3 4.79086 3 7V17C3 19.2091 4.79086 21 7 21H17C19.2091 21 21 19.2091 21 17V7C21 4.79086 19.2091 3 17 3Z" stroke="#28303F" stroke-width="1.5" stroke-linecap="round" stroke-linejoin="round"/>
</svg>
