<svg width="24" height="24" viewBox="0 0 24 24" fill="none" xmlns="http://www.w3.org/2000/svg">
<path d="M8.40915 10C9.10077 8.8044 10.3935 8 11.874 8C14.0832 8 15.874 9.79086 15.874 12C15.874 14.2091 14.0832 16 11.874 16C10.0102 16 8.44408 14.7252 8.00004 13M8.40915 10V7.5M8.40915 10L10.374 10.5" stroke="#28303F" stroke-width="1.5" stroke-linecap="round" stroke-linejoin="round"/>
<path d="M3 12C3 16.9706 7.02944 21 12 21C16.9706 21 21 16.9706 21 12C21 7.02944 16.9706 3 12 3C7.02944 3 3 7.02944 3 12Z" stroke="#28303F" stroke-width="1.5" stroke-linecap="round" stroke-linejoin="round"/>
</svg>
