<svg width="24" height="24" viewBox="0 0 24 24" fill="none" xmlns="http://www.w3.org/2000/svg">
<path d="M13.2755 5.43617L13.9381 6.08294L8.58588 11.435C7.83573 12.1851 7.41431 13.2025 7.41431 14.2634V15.435H8.58588C9.64675 15.435 10.6642 15.0135 11.4143 14.2634L16.8006 8.87726L17.4761 9.53664C17.7725 9.82598 18.2473 9.82025 18.5367 9.52385C18.826 9.22744 18.8203 8.7526 18.5239 8.46326L17.8614 7.81653L19.4353 6.24258C20.2164 5.46153 20.2164 4.1952 19.4353 3.41416C18.6543 2.63311 17.3879 2.63311 16.6069 3.41416L14.9988 5.02221L14.3233 4.36279C14.0269 4.07345 13.5521 4.07918 13.2627 4.37558C12.9734 4.67199 12.9791 5.14683 13.2755 5.43617Z" fill="#28303F"/>
<path d="M5.5 21.9999C6.32843 21.9999 7 21.6045 7 20.4999C7 19.3954 5.5 17.9999 5.5 17.9999C5.5 17.9999 4 19.3954 4 20.4999C4 21.6045 4.67157 21.9999 5.5 21.9999Z" fill="#28303F"/>
</svg>
