<svg width="24" height="24" viewBox="0 0 24 24" fill="none" xmlns="http://www.w3.org/2000/svg">
<path fill-rule="evenodd" clip-rule="evenodd" d="M17.5001 15C17.5001 12.9228 16.7551 11.0197 15.5176 9.5432L20.452 4.60877C22.6716 7.35768 22.5041 11.3953 19.9497 13.9497C19.2255 14.6739 18.3822 15.2062 17.4828 15.5467C17.4943 15.3659 17.5001 15.1837 17.5001 15ZM9.00015 6.5C8.81639 6.5 8.63399 6.50583 8.45312 6.51732C8.79362 5.61787 9.32596 4.77446 10.0502 4.05025C12.6047 1.49571 16.6424 1.32832 19.3914 3.54809L14.4569 8.48255C12.9805 7.24507 11.0773 6.5 9.00015 6.5ZM9.00033 22C5.38771 22 2.41427 19.2633 2.04004 15.75H15.9606C15.5864 19.2633 12.613 22 9.00033 22ZM2.04004 14.25H15.9606C15.5864 10.7367 12.613 8 9.00033 8C5.38771 8 2.41427 10.7367 2.04004 14.25Z" fill="#28303F"/>
</svg>
