<svg width="24" height="24" viewBox="0 0 24 24" fill="none" xmlns="http://www.w3.org/2000/svg">
<path d="M12 2H6C3.79086 2 2 3.79086 2 6V18C2 20.2091 3.79086 22 6 22H12M12 2H18C20.2091 2 22 3.79086 22 6V18C22 20.2091 20.2091 22 18 22H12M12 2V22M15.5 6H18.5M5.5 6H8.5M15.5 10H18.5M5.5 10H8.5" stroke="#28303F" stroke-width="1.5" stroke-linecap="round" stroke-linejoin="round"/>
<path d="M18 17.5C18 18.0523 17.5523 18.5 17 18.5C16.4477 18.5 16 18.0523 16 17.5C16 16.9477 16.4477 16.5 17 16.5C17.5523 16.5 18 16.9477 18 17.5Z" fill="#28303F"/>
<path d="M8 17.5C8 18.0523 7.55228 18.5 7 18.5C6.44772 18.5 6 18.0523 6 17.5C6 16.9477 6.44772 16.5 7 16.5C7.55228 16.5 8 16.9477 8 17.5Z" fill="#28303F"/>
</svg>
