<svg width="24" height="24" viewBox="0 0 24 24" fill="none" xmlns="http://www.w3.org/2000/svg">
<path fill-rule="evenodd" clip-rule="evenodd" d="M9.39782 3.46967C9.69071 3.17678 10.1656 3.17678 10.4585 3.46967L11.0443 4.05546C11.5324 4.54361 12.3239 4.54361 12.812 4.05546L13.3978 3.46967C13.6907 3.17678 14.1656 3.17678 14.4585 3.46967C14.7514 3.76256 14.7514 4.23744 14.4585 4.53033L13.8727 5.11612C13.5284 5.46038 13.1156 5.69428 12.6782 5.81783V10.7011L16.9071 8.25949C16.7953 7.81885 16.7915 7.34433 16.9175 6.87401L17.1319 6.07381C17.2391 5.67371 17.6504 5.43628 18.0505 5.54348C18.4506 5.65069 18.688 6.06194 18.5808 6.46204L18.3664 7.26224C18.1877 7.92907 18.5834 8.61449 19.2503 8.79317L20.0505 9.00758C20.4506 9.11479 20.688 9.52604 20.5808 9.92614C20.4736 10.3262 20.0623 10.5637 19.6622 10.4565L18.862 10.2421C18.3918 10.1161 17.9828 9.87552 17.6571 9.5585L13.4283 12L17.6571 14.4415C17.9828 14.1245 18.3918 13.8839 18.862 13.7579L19.6622 13.5435C20.0623 13.4363 20.4736 13.6738 20.5808 14.0739C20.688 14.474 20.4506 14.8852 20.0505 14.9924L19.2503 15.2068C18.5834 15.3855 18.1877 16.0709 18.3664 16.7378L18.5808 17.538C18.688 17.9381 18.4506 18.3493 18.0505 18.4565C17.6504 18.5637 17.2391 18.3263 17.1319 17.9262L16.9175 17.126C16.7915 16.6557 16.7953 16.1811 16.9071 15.7405L12.6782 13.2989V18.1822C13.1156 18.3057 13.5284 18.5396 13.8727 18.8839L14.4585 19.4697C14.7514 19.7626 14.7514 20.2374 14.4585 20.5303C14.1656 20.8232 13.6907 20.8232 13.3978 20.5303L12.812 19.9445C12.3239 19.4564 11.5324 19.4564 11.0443 19.9445L10.4585 20.5303C10.1656 20.8232 9.69071 20.8232 9.39782 20.5303C9.10493 20.2374 9.10493 19.7626 9.39782 19.4697L9.98361 18.8839C10.3279 18.5396 10.7407 18.3057 11.1782 18.1822V13.2991L6.94926 15.7407C7.06096 16.1813 7.0648 16.6557 6.9388 17.1259L6.72439 17.9261C6.61718 18.3262 6.20593 18.5637 5.80583 18.4565C5.40573 18.3493 5.16829 17.938 5.2755 17.5379L5.48991 16.7377C5.66859 16.0709 5.27286 15.3855 4.60603 15.2068L3.80583 14.9924C3.40573 14.8852 3.16829 14.4739 3.2755 14.0738C3.3827 13.6737 3.79396 13.4363 4.19406 13.5435L4.99426 13.7579C5.46457 13.8839 5.87359 14.1245 6.19932 14.4416L10.4283 12L6.19933 9.55838C5.8736 9.87548 5.46458 10.1161 4.99426 10.2421L4.19406 10.4565C3.79396 10.5637 3.38271 10.3263 3.2755 9.92619C3.1683 9.52609 3.40573 9.11483 3.80583 9.00763L4.60603 8.79322C5.27287 8.61454 5.66859 7.92912 5.48992 7.26228L5.2755 6.46209C5.1683 6.06199 5.40573 5.65073 5.80583 5.54353C6.20593 5.43632 6.61719 5.67376 6.72439 6.07386L6.9388 6.87406C7.0648 7.34429 7.06097 7.81873 6.94927 8.25931L11.1782 10.7009V5.81784C10.7407 5.6943 10.3279 5.46039 9.98361 5.11612L9.39782 4.53033C9.10493 4.23744 9.10493 3.76256 9.39782 3.46967Z" fill="#28303F"/>
</svg>
