<svg width="24" height="24" viewBox="0 0 24 24" fill="none" xmlns="http://www.w3.org/2000/svg">
<path fill-rule="evenodd" clip-rule="evenodd" d="M10.7626 2.17687C11.446 1.49345 12.554 1.49345 13.2374 2.17687L14.5303 3.46976C14.8232 3.76266 14.8232 4.23753 14.5303 4.53042C14.2374 4.82332 13.7626 4.82332 13.4697 4.53042L12.75 3.81075V7.00009C12.75 7.41431 12.4142 7.75009 12 7.75009C11.5858 7.75009 11.25 7.41431 11.25 7.00009V3.81075L10.5303 4.53042C10.2374 4.82332 9.76256 4.82332 9.46967 4.53042C9.17678 4.23753 9.17678 3.76266 9.46967 3.46976L10.7626 2.17687ZM4.75212 7.69159C4.45923 7.3987 3.98436 7.3987 3.69146 7.69159C3.39857 7.98449 3.39857 8.45936 3.69146 8.75225L5.10568 10.1665C5.39857 10.4594 5.87344 10.4594 6.16634 10.1665C6.45923 9.87357 6.45923 9.3987 6.16634 9.10581L4.75212 7.69159ZM20.3085 8.75237C20.6014 8.45947 20.6014 7.9846 20.3085 7.69171C20.0156 7.39881 19.5408 7.39881 19.2479 7.69171L17.8337 9.10592C17.5408 9.39881 17.5408 9.87369 17.8337 10.1666C18.1265 10.4595 18.6014 10.4595 18.8943 10.1666L20.3085 8.75237ZM3 15.25C2.58579 15.25 2.25 15.5858 2.25 16C2.25 16.4142 2.58579 16.75 3 16.75H21C21.4142 16.75 21.75 16.4142 21.75 16C21.75 15.5858 21.4142 15.25 21 15.25H18.7088C18.3357 11.875 15.4744 9.25 12 9.25C8.52558 9.25 5.66428 11.875 5.2912 15.25H3ZM5.25 19C5.25 18.5858 5.58579 18.25 6 18.25H18C18.4142 18.25 18.75 18.5858 18.75 19C18.75 19.4142 18.4142 19.75 18 19.75H6C5.58579 19.75 5.25 19.4142 5.25 19ZM9 21.25C8.58579 21.25 8.25 21.5858 8.25 22C8.25 22.4142 8.58579 22.75 9 22.75H15C15.4142 22.75 15.75 22.4142 15.75 22C15.75 21.5858 15.4142 21.25 15 21.25H9Z" fill="#28303F"/>
</svg>
