<svg width="24" height="24" viewBox="0 0 24 24" fill="none" xmlns="http://www.w3.org/2000/svg">
<path fill-rule="evenodd" clip-rule="evenodd" d="M18.1362 5.86381C16.5882 4.31574 14.0783 4.31574 12.5302 5.86381L10.8635 7.53049C10.5706 7.82338 10.0957 7.82338 9.80285 7.53049C9.50996 7.23759 9.50996 6.76272 9.80285 6.46982L11.4695 4.80315C13.6034 2.6693 17.063 2.66929 19.1969 4.80315C21.3308 6.937 21.3308 10.3967 19.1969 12.5305L17.5302 14.1972C17.2373 14.4901 16.7625 14.4901 16.4696 14.1972C16.1767 13.9043 16.1767 13.4294 16.4696 13.1365L18.1362 11.4699C19.6843 9.92179 19.6843 7.41188 18.1362 5.86381ZM14.6516 9.34846C14.9445 9.64135 14.9445 10.1162 14.6516 10.4091L10.409 14.6518C10.1161 14.9447 9.64122 14.9447 9.34833 14.6518C9.05544 14.3589 9.05544 13.884 9.34833 13.5911L13.591 9.34846C13.8839 9.05556 14.3587 9.05556 14.6516 9.34846ZM11.4695 18.1365C9.92142 19.6845 7.41151 19.6845 5.86344 18.1365C4.31538 16.5884 4.31538 14.0785 5.86344 12.5304L7.53012 10.8637C7.82301 10.5708 7.82301 10.096 7.53012 9.80307C7.23723 9.51018 6.76235 9.51018 6.46946 9.80307L4.80278 11.4698C2.66893 13.6036 2.66893 17.0633 4.80278 19.1971C6.93664 21.331 10.3963 21.331 12.5302 19.1971L14.1968 17.5304C14.4897 17.2375 14.4897 16.7627 14.1968 16.4698C13.9039 16.1769 13.4291 16.1769 13.1362 16.4698L11.4695 18.1365Z" fill="#28303F"/>
</svg>
