<svg width="24" height="24" viewBox="0 0 24 24" fill="none" xmlns="http://www.w3.org/2000/svg">
<path d="M14.4855 5.53553L16.6068 3.41421C17.3878 2.63316 18.6542 2.63316 19.4352 3.41421V3.41421C20.2163 4.19526 20.2163 5.46159 19.4352 6.24264L17.3139 8.36396" stroke="#28303F" stroke-width="1.5" stroke-linecap="round"/>
<path d="M14.4853 5.53547L8.58579 11.435C7.83564 12.1851 7.41421 13.2025 7.41421 14.2634L7.41421 15.435H8.58579C9.64665 15.435 10.6641 15.0135 11.4142 14.2634L17.3137 8.3639" stroke="#28303F" stroke-width="1.5" stroke-linecap="round"/>
<path d="M13.0713 4.12134L18.7281 9.77819" stroke="#28303F" stroke-width="1.5" stroke-linecap="round" stroke-linejoin="round"/>
<path d="M7 20.5C7 21.6046 6.32843 22 5.5 22C4.67157 22 4 21.6046 4 20.5C4 19.3954 5.5 18 5.5 18C5.5 18 7 19.3954 7 20.5Z" stroke="#28303F" stroke-width="1.5" stroke-linejoin="round"/>
</svg>
