<svg width="24" height="24" viewBox="0 0 24 24" fill="none" xmlns="http://www.w3.org/2000/svg">
<path d="M13.4852 6.53555L8.29975 11.721C7.99376 12.027 7.79526 12.424 7.73407 12.8524L7.49836 14.5023C7.3098 15.8222 8.44117 16.9536 9.76111 16.765L11.411 16.5293C11.8394 16.4681 12.2364 16.2696 12.5424 15.9636L17.7278 10.7782C18.5089 9.99714 18.5089 8.73081 17.7278 7.94976L16.3136 6.53555C15.5326 5.7545 14.2662 5.7545 13.4852 6.53555Z" stroke="#28303F" stroke-width="1.5" stroke-linecap="round"/>
<path d="M19.8496 4.41431L17.0212 7.24273" stroke="#28303F" stroke-width="1.5" stroke-linecap="round" stroke-linejoin="round"/>
<path d="M18.4351 3L21.2635 5.82843" stroke="#28303F" stroke-width="1.5" stroke-linecap="round" stroke-linejoin="round"/>
<path d="M9.24286 10.7781L16.3139 12.1923" stroke="#28303F" stroke-width="1.5" stroke-linecap="round" stroke-linejoin="round"/>
<path d="M7.82859 16.435L2.99999 21" stroke="#28303F" stroke-width="1.5" stroke-linecap="round" stroke-linejoin="round"/>
</svg>
