<svg width="24" height="24" viewBox="0 0 24 24" fill="none" xmlns="http://www.w3.org/2000/svg">
<path d="M4 12C4 16.4183 7.58172 20 12 20C12.3241 20 12.6437 19.9807 12.9576 19.9433C13.8669 21.1899 15.3389 22 17 22C19.7614 22 22 19.7614 22 17C22 15.3389 21.1899 13.8669 19.9433 12.9576C19.9807 12.6437 20 12.3241 20 12C20 7.58172 16.4183 4 12 4C11.6759 4 11.3563 4.01927 11.0424 4.05673C10.1331 2.81007 8.66115 2 7 2C4.23858 2 2 4.23858 2 7C2 8.66115 2.81007 10.1331 4.05673 11.0424C4.01927 11.3563 4 11.6759 4 12Z" stroke="#28303F" stroke-width="1.5" stroke-linejoin="round"/>
<path d="M14.5 10C14.5 8.89543 13.6046 8 12.5 8H11.5C10.3954 8 9.5 8.89543 9.5 10C9.5 11.1046 10.3954 12 11.5 12H12.5C13.6046 12 14.5 12.8954 14.5 14C14.5 15.1046 13.6046 16 12.5 16H11.5C10.3954 16 9.5 15.1046 9.5 14" stroke="#28303F" stroke-width="1.5" stroke-linecap="round"/>
</svg>
