<svg width="24" height="24" viewBox="0 0 24 24" fill="none" xmlns="http://www.w3.org/2000/svg">
<path d="M12 5.5C12 4.67157 12.6716 4 13.5 4V4C14.3284 4 15 4.67157 15 5.5V10.5C15 11.3284 14.3284 12 13.5 12V12C12.6716 12 12 11.3284 12 10.5V5.5Z" stroke="#28303F" stroke-width="1.5"/>
<path d="M20 10.5C20 11.3284 19.3284 12 18.5 12H17V10.5C17 9.67157 17.6716 9 18.5 9V9C19.3284 9 20 9.67157 20 10.5V10.5Z" stroke="#28303F" stroke-width="1.5" stroke-linejoin="round"/>
<path d="M17 20.5C17 19.6716 16.3284 19 15.5 19H14V20.5C14 21.3284 14.6716 22 15.5 22V22C16.3284 22 17 21.3284 17 20.5V20.5Z" stroke="#28303F" stroke-width="1.5" stroke-linejoin="round"/>
<path d="M7 5.5C7 6.32843 7.67157 7 8.5 7H10V5.5C10 4.67157 9.32843 4 8.5 4V4C7.67157 4 7 4.67157 7 5.5V5.5Z" stroke="#28303F" stroke-width="1.5" stroke-linejoin="round"/>
<path d="M4 15.5C4 14.6716 4.67157 14 5.5 14H7V15.5C7 16.3284 6.32843 17 5.5 17V17C4.67157 17 4 16.3284 4 15.5V15.5Z" stroke="#28303F" stroke-width="1.5" stroke-linejoin="round"/>
<path d="M9 15.5C9 14.6716 9.67157 14 10.5 14V14C11.3284 14 12 14.6716 12 15.5V20.5C12 21.3284 11.3284 22 10.5 22V22C9.67157 22 9 21.3284 9 20.5V15.5Z" stroke="#28303F" stroke-width="1.5"/>
<path d="M8.5 9C9.32843 9 10 9.67157 10 10.5V10.5C10 11.3284 9.32843 12 8.5 12L3.5 12C2.67157 12 2 11.3284 2 10.5V10.5C2 9.67157 2.67157 9 3.5 9L8.5 9Z" stroke="#28303F" stroke-width="1.5"/>
<path d="M20.5 14C21.3284 14 22 14.6716 22 15.5V15.5C22 16.3284 21.3284 17 20.5 17L15.5 17C14.6716 17 14 16.3284 14 15.5V15.5C14 14.6716 14.6716 14 15.5 14L20.5 14Z" stroke="#28303F" stroke-width="1.5"/>
</svg>
