<svg width="24" height="24" viewBox="0 0 24 24" fill="none" xmlns="http://www.w3.org/2000/svg">
<path fill-rule="evenodd" clip-rule="evenodd" d="M13.5002 3.5C13.5002 4.32843 12.8287 5 12.0002 5C11.1718 5 10.5002 4.32843 10.5002 3.5C10.5002 2.67157 11.1718 2 12.0002 2C12.8287 2 13.5002 2.67157 13.5002 3.5ZM13.0002 21C13.0002 21.5523 12.5525 22 12.0002 22C11.448 22 11.0002 21.5523 11.0002 21C11.0002 20.4477 11.448 20 12.0002 20C12.5525 20 13.0002 20.4477 13.0002 21ZM8.00024 22C8.55253 22 9.00024 21.5523 9.00024 21C9.00024 20.4477 8.55253 20 8.00024 20C7.44796 20 7.00024 20.4477 7.00024 21C7.00024 21.5523 7.44796 22 8.00024 22ZM17.0002 21C17.0002 21.5523 16.5525 22 16.0002 22C15.448 22 15.0002 21.5523 15.0002 21C15.0002 20.4477 15.448 20 16.0002 20C16.5525 20 17.0002 20.4477 17.0002 21ZM4.27198 5.82038C4.37115 5.41821 4.77755 5.17258 5.17972 5.27174C7.8605 5.93273 9.89536 6.25087 11.9335 6.24993C13.9732 6.24899 16.0538 5.9285 18.827 5.27021C19.23 5.17454 19.6342 5.42369 19.7299 5.82671C19.8256 6.22972 19.5764 6.63398 19.1734 6.72965C17.2213 7.19306 15.5645 7.50247 14.0002 7.64994V11.9547L14.7443 17.9071C14.7957 18.3181 14.5041 18.6929 14.0931 18.7443C13.6821 18.7957 13.3072 18.5041 13.2559 18.0931L12.4942 12H11.5059L10.7443 18.0931C10.6929 18.5041 10.3181 18.7957 9.90705 18.7443C9.49604 18.6929 9.20449 18.3181 9.25587 17.9071L10.0002 11.9521V7.66265C8.41703 7.52088 6.76382 7.20725 4.82063 6.72812C4.41846 6.62896 4.17282 6.22255 4.27198 5.82038Z" fill="#28303F"/>
</svg>
