<svg width="24" height="24" viewBox="0 0 24 24" fill="none" xmlns="http://www.w3.org/2000/svg">
<path fill-rule="evenodd" clip-rule="evenodd" d="M11.1601 4.94288C10.9973 4.80719 10.7501 4.92298 10.7501 5.13494V10.5985L14.4697 8.11875C14.6088 8.02605 14.6195 7.82566 14.4911 7.71868L11.1601 4.94288ZM9.25008 10.5985V5.13494C9.25008 3.65122 10.9806 2.8407 12.1204 3.79055L15.4514 6.56635C16.35 7.31522 16.2751 8.71795 15.3018 9.36683L11.3522 11.9999L15.3018 14.633C16.2751 15.2818 16.35 16.6846 15.4514 17.4334L12.1204 20.2092C10.9806 21.1591 9.25008 20.3486 9.25008 18.8649V13.4013L4.4161 16.6239C4.07146 16.8537 3.60581 16.7606 3.37604 16.4159C3.14628 16.0713 3.23941 15.6056 3.58405 15.3759L8.648 11.9999L3.58405 8.62393C3.23941 8.39417 3.14628 7.92852 3.37604 7.58387C3.60581 7.23922 4.07146 7.14609 4.4161 7.37586L9.25008 10.5985ZM10.7501 13.4013V18.8649C10.7501 19.0768 10.9973 19.1926 11.1601 19.0569L14.4911 16.2811C14.6195 16.1741 14.6088 15.9737 14.4697 15.881L10.7501 13.4013ZM17 12C17 12.5523 16.5523 13 16 13C15.4477 13 15 12.5523 15 12C15 11.4477 15.4477 11 16 11C16.5523 11 17 11.4477 17 12ZM19.3406 8.22861C19.0688 7.91603 18.5951 7.88295 18.2825 8.15473C17.97 8.42651 17.9369 8.90023 18.2087 9.21282C18.8578 9.95939 19.25 10.9329 19.25 11.9999C19.25 13.0887 18.8415 14.0804 18.1682 14.8328C17.8919 15.1414 17.9182 15.6156 18.2269 15.8918C18.5356 16.168 19.0097 16.1417 19.2859 15.8331C20.1958 14.8163 20.75 13.4719 20.75 11.9999C20.75 10.5576 20.218 9.23773 19.3406 8.22861Z" fill="#28303F"/>
</svg>
