<svg width="24" height="24" viewBox="0 0 24 24" fill="none" xmlns="http://www.w3.org/2000/svg">
<path fill-rule="evenodd" clip-rule="evenodd" d="M21.7499 4.77481C21.7499 2.89778 19.911 1.57236 18.1303 2.16593L11.4978 4.37675C10.5327 4.69846 9.72389 5.30952 9.15479 6.0942L13.3883 10.3277L18.6046 8.58896C19.4141 8.31915 20.2499 8.92162 20.2499 9.77481V13.9997C19.6232 13.5289 18.8441 13.25 17.9999 13.25C17.4998 13.25 17.0225 13.3479 16.5862 13.5256L21.4743 18.4137C21.652 17.9774 21.7499 17.5001 21.7499 17V4.77481ZM3.53033 2.46967C3.23744 2.17678 2.76256 2.17678 2.46967 2.46967C2.17678 2.76256 2.17678 3.23744 2.46967 3.53033L8.25 9.31066V15.9997C7.62325 15.5289 6.8442 15.25 6 15.25C3.92893 15.25 2.25 16.9289 2.25 19C2.25 21.071 3.92893 22.75 6 22.75C8.07107 22.75 9.75 21.071 9.75 19V13.883C9.75 13.0447 10.0715 12.2627 10.6148 11.6754C10.978 11.2827 11.4405 10.977 11.9723 10.7998L3.53033 2.46967ZM21.5303 21.5303C21.8232 21.2374 21.8232 20.7626 21.5303 20.4697L20.6818 19.6211L15.3788 14.3182C14.6823 14.999 14.25 15.949 14.25 17C14.25 19.071 15.9289 20.75 18 20.75C18.5001 20.75 18.9774 20.6521 19.4137 20.4744L20.4697 21.5303C20.7626 21.8232 21.2374 21.8232 21.5303 21.5303Z" fill="#28303F"/>
</svg>
