<svg width="24" height="24" viewBox="0 0 24 24" fill="none" xmlns="http://www.w3.org/2000/svg">
<path fill-rule="evenodd" clip-rule="evenodd" d="M14.1662 2.49166C13.7623 2.4 13.3605 2.65315 13.2688 3.0571C13.1772 3.46104 13.4303 3.86281 13.8343 3.95447C16.9174 4.65407 19.3462 7.08288 20.0458 10.166C20.1133 10.4636 20.3545 10.6906 20.6556 10.7401C20.9568 10.7896 21.2579 10.6517 21.4171 10.3913L22.6401 8.39131C22.8562 8.03793 22.7449 7.57629 22.3915 7.36019C22.0381 7.1441 21.5765 7.25539 21.3604 7.60877L20.9887 8.21651C19.7834 5.35616 17.2536 3.19222 14.1662 2.49166ZM3.95466 13.8341C3.88713 13.5365 3.646 13.3095 3.34487 13.26C3.04373 13.2105 2.74264 13.3484 2.58342 13.6087L1.36028 15.6087C1.14417 15.9621 1.25544 16.4238 1.60881 16.6399C1.96217 16.856 2.42383 16.7447 2.63994 16.3913L3.01169 15.7835C4.21699 18.6439 6.74685 20.8079 9.83427 21.5084C10.2382 21.6001 10.64 21.3469 10.7316 20.943C10.8233 20.5391 10.5701 20.1373 10.1662 20.0456C7.08307 19.346 4.65426 16.9172 3.95466 13.8341ZM5.45914 8.64145C4.67809 9.4225 4.67809 10.6888 5.45914 11.4699L12.5302 18.5409C13.3113 19.322 14.5776 19.322 15.3586 18.5409L18.5409 15.3587C19.3219 14.5777 19.3219 13.3113 18.5409 12.5303L11.4698 5.45922C10.6887 4.67817 9.42242 4.67817 8.64137 5.45922L5.45914 8.64145Z" fill="#28303F"/>
</svg>
