<svg width="24" height="24" viewBox="0 0 24 24" fill="none" xmlns="http://www.w3.org/2000/svg">
<path fill-rule="evenodd" clip-rule="evenodd" d="M10.3931 18.8304L3.03601 8.89839C2.44212 8.09664 2.52319 6.96823 3.29596 6.3371C8.74399 1.88763 15.2564 1.88763 20.7044 6.3371C21.4771 6.96823 21.5582 8.09664 20.9643 8.89839L18.4561 12.2844C17.5721 11.5325 16.2442 11.574 15.4092 12.409C14.5305 13.2877 14.5305 14.7123 15.4092 15.591L15.7525 15.9343L13.6073 18.8304C12.8077 19.9098 11.1926 19.9098 10.3931 18.8304ZM17.5306 13.4697C17.2377 13.1768 16.7628 13.1768 16.4699 13.4697C16.177 13.7626 16.177 14.2374 16.4699 14.5303L18.0609 16.1213L16.4699 17.7123C16.1771 18.0052 16.1771 18.4801 16.4699 18.773C16.7628 19.0659 17.2377 19.0659 17.5306 18.773L19.1216 17.182L20.7126 18.773C21.0054 19.0659 21.4803 19.0659 21.7732 18.773C22.0661 18.4801 22.0661 18.0052 21.7732 17.7123L20.1822 16.1213L21.7733 14.5303C22.0661 14.2374 22.0661 13.7626 21.7733 13.4697C21.4804 13.1768 21.0055 13.1768 20.7126 13.4697L19.1216 15.0607L17.5306 13.4697Z" fill="#28303F"/>
</svg>
