<svg width="24" height="24" viewBox="0 0 24 24" fill="none" xmlns="http://www.w3.org/2000/svg">
<path fill-rule="evenodd" clip-rule="evenodd" d="M3.06083 8.21939C5.41783 6.06396 8.55449 4.75 11.9998 4.75C15.445 4.75 18.5817 6.06396 20.9387 8.21939C21.2444 8.49892 21.7188 8.47773 21.9983 8.17206C22.2778 7.86638 22.2566 7.39198 21.951 7.11245C19.3283 4.7141 15.8342 3.25 11.9998 3.25C8.16536 3.25 4.6712 4.7141 2.04856 7.11245C1.74288 7.39198 1.72169 7.86638 2.00122 8.17206C2.28076 8.47773 2.75516 8.49892 3.06083 8.21939ZM6.28085 12.0538C7.7646 10.6264 9.77905 9.75 11.9998 9.75C14.2205 9.75 16.2349 10.6264 17.7187 12.0538C18.0172 12.341 18.492 12.3318 18.7791 12.0333C19.0663 11.7348 19.0571 11.26 18.7586 10.9729C17.0066 9.28742 14.6236 8.25 11.9998 8.25C9.37594 8.25 6.99287 9.28742 5.24091 10.9729C4.94241 11.26 4.93322 11.7348 5.22039 12.0333C5.50756 12.3318 5.98235 12.341 6.28085 12.0538ZM9.54614 15.8686C10.1431 15.1821 11.0205 14.75 11.9998 14.75C12.979 14.75 13.8564 15.1821 14.4534 15.8687C14.7252 16.1812 15.1989 16.2143 15.5115 15.9425C15.824 15.6707 15.8571 15.1969 15.5853 14.8844C14.7155 13.8842 13.4313 13.25 11.9998 13.25C10.5682 13.25 9.28397 13.8842 8.41423 14.8844C8.14243 15.1969 8.17548 15.6707 8.48805 15.9425C8.80062 16.2143 9.27434 16.1812 9.54614 15.8686ZM11.9998 20C12.552 20 12.9998 19.5523 12.9998 19C12.9998 18.4477 12.552 18 11.9998 18C11.4475 18 10.9998 18.4477 10.9998 19C10.9998 19.5523 11.4475 20 11.9998 20Z" fill="#28303F"/>
</svg>
