<svg width="24" height="24" viewBox="0 0 24 24" fill="none" xmlns="http://www.w3.org/2000/svg">
<path fill-rule="evenodd" clip-rule="evenodd" d="M17.5302 4.46967C17.2373 4.17678 16.7624 4.17678 16.4695 4.46967C16.1766 4.76256 16.1766 5.23744 16.4695 5.53033L17.1892 6.25H9.99985C7.3765 6.25 5.24985 8.37665 5.24985 11V12C5.24985 12.4142 5.58564 12.75 5.99985 12.75C6.41406 12.75 6.74985 12.4142 6.74985 12V11C6.74985 9.20507 8.20492 7.75 9.99985 7.75H17.1892L16.4695 8.46967C16.1766 8.76256 16.1766 9.23744 16.4695 9.53033C16.7624 9.82322 17.2373 9.82322 17.5302 9.53033L18.8231 8.23744C19.5065 7.55402 19.5065 6.44598 18.8231 5.76256L17.5302 4.46967ZM6.46952 19.5303C6.76241 19.8232 7.23729 19.8232 7.53018 19.5303C7.82307 19.2374 7.82307 18.7626 7.53018 18.4697L6.81051 17.75H13.9998C16.6232 17.75 18.7498 15.6234 18.7498 13V12C18.7498 11.5858 18.4141 11.25 17.9998 11.25C17.5856 11.25 17.2498 11.5858 17.2498 12V13C17.2498 14.7949 15.7948 16.25 13.9998 16.25H6.81051L7.53018 15.5303C7.82307 15.2374 7.82307 14.7626 7.53018 14.4697C7.23729 14.1768 6.76241 14.1768 6.46952 14.4697L5.17663 15.7626C4.49321 16.446 4.49321 17.554 5.17663 18.2374L6.46952 19.5303Z" fill="#28303F"/>
</svg>
