<svg width="24" height="24" viewBox="0 0 24 24" fill="none" xmlns="http://www.w3.org/2000/svg">
<path fill-rule="evenodd" clip-rule="evenodd" d="M11.0015 3.125C9.75882 3.125 8.75146 4.13236 8.75146 5.375V6.375C8.75146 6.78921 8.41568 7.125 8.00146 7.125C7.58725 7.125 7.25146 6.78921 7.25146 6.375V5.375C7.25146 3.30393 8.9304 1.625 11.0015 1.625H13.0015C15.0725 1.625 16.7515 3.30393 16.7515 5.375V6.375C16.7515 6.78921 16.4157 7.125 16.0015 7.125C15.5873 7.125 15.2515 6.78921 15.2515 6.375V5.375C15.2515 4.13236 14.2441 3.125 13.0015 3.125H11.0015Z" fill="#28303F"/>
<path d="M18.0016 6.375H6.00156C3.86938 6.375 2.12683 8.04327 2.00802 10.1457C1.99981 10.2911 2.06471 10.4287 2.18341 10.513C2.62654 10.8274 3.90136 11.6161 6.24592 12.2114C6.40544 12.2519 6.56389 12.1517 6.63438 12.0029C6.87489 11.4955 7.39176 11.1447 7.99058 11.1447C8.819 11.1447 9.49058 11.8162 9.49058 12.6447C9.49058 12.7216 9.54863 12.7863 9.62522 12.7941C9.91281 12.8233 10.2095 12.8489 10.5156 12.8705L13.4947 12.9322C13.7771 12.9226 14.0515 12.9085 14.3181 12.8902C14.4224 12.8831 14.5029 12.7961 14.5029 12.6916V12.6447C14.5029 11.8162 15.1745 11.1447 16.0029 11.1447C16.6428 11.1447 17.189 11.5453 17.4046 12.1094C17.4674 12.2737 17.6345 12.3907 17.8048 12.3469C20.1604 11.7418 21.4256 10.85 21.8433 10.5118C21.9478 10.4272 22.0031 10.2991 21.9961 10.1648C21.8868 8.05335 20.1402 6.375 18.0016 6.375Z" fill="#28303F"/>
<path d="M9.47324 14.2631C9.49161 14.144 9.59642 14.0503 9.71613 14.0647C11.2129 14.2443 12.7697 14.3062 14.3163 14.2087C14.4244 14.2019 14.5176 14.2819 14.5422 14.3874C14.6973 15.0507 15.2924 15.5447 16.0029 15.5447C16.8313 15.5447 17.5029 14.8731 17.5029 14.0447V13.9999C17.5029 13.8597 17.6 13.7385 17.7363 13.7057C19.0123 13.3988 20.2428 12.9525 21.384 12.341C21.659 12.1936 22.0016 12.3876 22.0016 12.6996V18.375C22.0016 20.5841 20.2107 22.375 18.0016 22.375H6.00156C3.79242 22.375 2.00156 20.5841 2.00156 18.375L1.99805 12.5443C1.99787 12.2473 2.31066 12.0525 2.58176 12.1738C3.64173 12.6484 4.89238 13.0799 6.26155 13.4253C6.39575 13.4592 6.49058 13.5795 6.49058 13.7179V14.0447C6.49058 14.8731 7.16215 15.5447 7.99058 15.5447C8.73729 15.5447 9.36269 14.9798 9.47324 14.2631Z" fill="#28303F"/>
<rect x="7.24072" y="11.9476" width="1.5" height="2.79403" rx="0.75" fill="#28303F"/>
<rect x="15.2529" y="11.9476" width="1.5" height="2.79403" rx="0.75" fill="#28303F"/>
</svg>
