<svg width="24" height="24" viewBox="0 0 24 24" fill="none" xmlns="http://www.w3.org/2000/svg">
<path fill-rule="evenodd" clip-rule="evenodd" d="M11 3.125C9.75736 3.125 8.75 4.13236 8.75 5.375V6.375C8.75 6.78921 8.41421 7.125 8 7.125C7.58579 7.125 7.25 6.78921 7.25 6.375V5.375C7.25 3.30393 8.92893 1.625 11 1.625H13C15.0711 1.625 16.75 3.30393 16.75 5.375V6.375C16.75 6.78921 16.4142 7.125 16 7.125C15.5858 7.125 15.25 6.78921 15.25 6.375V5.375C15.25 4.13236 14.2426 3.125 13 3.125H11Z" fill="#28303F"/>
<path d="M2.5 14.4073C2.22386 14.4073 2 14.6312 2 14.9073V18.375C2 20.5842 3.79086 22.375 6 22.375H18C20.2091 22.375 22 20.5842 22 18.375V14.9073C22 14.6312 21.7761 14.4073 21.5 14.4073H17.8107C17.7003 14.4073 17.612 14.4973 17.5987 14.607C17.5076 15.3586 16.9079 15.9703 16.1107 15.9703C15.3135 15.9703 14.7138 15.3586 14.6227 14.607C14.6095 14.4973 14.5212 14.4073 14.4107 14.4073H9.61052C9.50007 14.4073 9.41179 14.4973 9.3985 14.607C9.3074 15.3586 8.70774 15.9703 7.91052 15.9703C7.1133 15.9703 6.51365 15.3586 6.42255 14.607C6.40926 14.4973 6.32098 14.4073 6.21052 14.4073H2.5Z" fill="#28303F"/>
<path d="M6 6.375H18C20.2091 6.375 22 8.16586 22 10.375V12.6367C22 12.9129 21.7761 13.1367 21.5 13.1367H17.8042C17.6938 13.1367 17.6055 13.0468 17.5921 12.9371C17.5004 12.1874 16.8979 11.5786 16.1042 11.5786C15.3106 11.5786 14.7081 12.1874 14.6164 12.9371C14.603 13.0468 14.5147 13.1367 14.4042 13.1367H9.60173C9.49128 13.1367 9.40301 13.0468 9.38959 12.9371C9.29784 12.1874 8.69539 11.5786 7.90173 11.5786C7.10807 11.5786 6.50563 12.1874 6.41387 12.9371C6.40046 13.0468 6.31219 13.1367 6.20173 13.1367H2.5C2.22386 13.1367 2 12.9129 2 12.6367V10.375C2 8.16586 3.79086 6.375 6 6.375Z" fill="#28303F"/>
<rect x="15.3608" y="12.375" width="1.5" height="2.79403" rx="0.75" fill="#28303F"/>
<rect x="7.16064" y="12.375" width="1.5" height="2.79403" rx="0.75" fill="#28303F"/>
</svg>
