<svg width="24" height="24" viewBox="0 0 24 24" fill="none" xmlns="http://www.w3.org/2000/svg">
<path fill-rule="evenodd" clip-rule="evenodd" d="M2.09514 1.25613C1.68427 1.20363 1.30863 1.49415 1.25613 1.90502C1.20363 2.31589 1.49415 2.69153 1.90502 2.74403C5.32872 3.18151 8.0123 3.81887 10.8097 5.11635C13.5189 6.37287 16.3682 8.26392 20.1126 11.2501H19.0001C18.5859 11.2501 18.2501 11.5859 18.2501 12.0001C18.2501 12.4143 18.5859 12.7501 19.0001 12.7501H21.0001C21.9666 12.7501 22.7501 11.9666 22.7501 11.0001V9.00008C22.7501 8.58587 22.4143 8.25008 22.0001 8.25008C21.5859 8.25008 21.2501 8.58587 21.2501 9.00008V10.239C17.3671 7.12847 14.3562 5.10775 11.4409 3.75559C8.45922 2.37267 5.61357 1.70571 2.09514 1.25613ZM2.00006 10C2.00006 8.89543 2.89549 8 4.00006 8C5.10463 8 6.00006 8.89543 6.00006 10L6.00006 20C6.00006 21.1046 5.10463 22 4.00006 22C2.89549 22 2.00006 21.1046 2.00006 20L2.00006 10ZM18.0001 18C18.0001 16.8954 18.8956 16 20.0001 16C21.1047 16 22.0001 16.8954 22.0001 18V20C22.0001 21.1046 21.1047 22 20.0001 22C18.8956 22 18.0001 21.1046 18.0001 20V18ZM12.0001 12C10.8955 12 10.0001 12.8954 10.0001 14V20C10.0001 21.1046 10.8955 22 12.0001 22C13.1046 22 14.0001 21.1046 14.0001 20V14C14.0001 12.8954 13.1046 12 12.0001 12Z" fill="#28303F"/>
</svg>
