<svg width="24" height="24" viewBox="0 0 24 24" fill="none" xmlns="http://www.w3.org/2000/svg">
<path fill-rule="evenodd" clip-rule="evenodd" d="M21 10.1505V17.967C21 20.1944 19.2091 22.0001 17 22.0001H7C4.79086 22.0001 3 20.1944 3 17.967V10.1505C3 8.93949 3.53964 7.79262 4.46986 7.02665L9.46986 2.90947C10.9423 1.69701 13.0577 1.69701 14.5301 2.90947L19.5301 7.02664C20.4604 7.79262 21 8.93949 21 10.1505ZM9.75 13.5001C9.75 13.0859 10.0858 12.7501 10.5 12.7501C10.9142 12.7501 11.25 13.0859 11.25 13.5001V16.5001C11.25 17.7428 12.2574 18.7501 13.5 18.7501C14.7426 18.7501 15.75 17.7428 15.75 16.5001V16.0001C15.75 15.8621 15.8619 15.7501 16 15.7501H17C17.4142 15.7501 17.75 15.4143 17.75 15.0001C17.75 14.5859 17.4142 14.2501 17 14.2501H16C15.0335 14.2501 14.25 15.0336 14.25 16.0001V16.5001C14.25 16.9143 13.9142 17.2501 13.5 17.2501C13.0858 17.2501 12.75 16.9143 12.75 16.5001V13.5001C12.75 12.2575 11.7426 11.2501 10.5 11.2501C9.25736 11.2501 8.25 12.2575 8.25 13.5001V14.0001C8.25 14.1382 8.13807 14.2501 8 14.2501H7C6.58579 14.2501 6.25 14.5859 6.25 15.0001C6.25 15.4143 6.58579 15.7501 7 15.7501H8C8.9665 15.7501 9.75 14.9666 9.75 14.0001V13.5001Z" fill="#28303F"/>
</svg>
