<svg width="24" height="24" viewBox="0 0 24 24" fill="none" xmlns="http://www.w3.org/2000/svg">
<path d="M9.5 19.5C9.5 20.6046 8.82843 21 8 21C7.17157 21 6.5 20.6046 6.5 19.5C6.5 18.3954 8 17 8 17C8 17 9.5 18.3954 9.5 19.5Z" stroke="#28303F" stroke-width="1.5" stroke-linejoin="round"/>
<path d="M17.5 19.5C17.5 20.6046 16.8284 21 16 21C15.1716 21 14.5 20.6046 14.5 19.5C14.5 18.3954 16 17 16 17C16 17 17.5 18.3954 17.5 19.5Z" stroke="#28303F" stroke-width="1.5" stroke-linejoin="round"/>
<path d="M13.5 13.5C13.5 14.6046 12.8284 15 12 15C11.1716 15 10.5 14.6046 10.5 13.5C10.5 12.3954 12 11 12 11C12 11 13.5 12.3954 13.5 13.5Z" stroke="#28303F" stroke-width="1.5" stroke-linejoin="round"/>
<path d="M3.00026 8.24266C1.82869 7.07109 1.82869 5.17159 3.00026 4.00002C4.17183 2.82844 6.07133 2.82844 7.2429 4.00002L10.0713 6.82844L5.82869 11.0711L3.00026 8.24266Z" stroke="#28303F" stroke-width="1.5" stroke-linejoin="round"/>
<path d="M20.9998 8.24266C22.1714 7.07109 22.1714 5.17159 20.9998 4.00002C19.8282 2.82844 17.9287 2.82844 16.7571 4.00002L13.9287 6.82844L18.1714 11.0711L20.9998 8.24266Z" stroke="#28303F" stroke-width="1.5" stroke-linejoin="round"/>
</svg>
