<svg width="24" height="24" viewBox="0 0 24 24" fill="none" xmlns="http://www.w3.org/2000/svg">
<circle cx="14.0393" cy="5.2682" r="1.14186" stroke="#28303F" stroke-width="1.5"/>
<path d="M6.61669 16.8855C6.61669 17.6127 6.02716 18.2023 5.29992 18.2023C4.57269 18.2023 3.98315 17.6127 3.98315 16.8855C3.98315 16.1583 4.57269 15.5687 5.29992 15.5687C6.02716 15.5687 6.61669 16.1583 6.61669 16.8855Z" stroke="#28303F" stroke-width="1.5"/>
<path d="M9.25023 16.8855C9.25023 19.0672 6.61669 22.1526 5.29992 22.1526C3.98315 22.1526 1.34961 19.0672 1.34961 16.8855C1.34961 14.7038 3.11822 12.9352 5.29992 12.9352C7.48161 12.9352 9.25023 14.7038 9.25023 16.8855Z" stroke="#28303F" stroke-width="1.5"/>
<path d="M17.4649 5.26824C17.4649 7.16013 15.1812 9.83568 14.0394 9.83568C12.8975 9.83568 10.6138 7.16013 10.6138 5.26824C10.6138 3.37634 12.1475 1.84265 14.0394 1.84265C15.9313 1.84265 17.4649 3.37634 17.4649 5.26824Z" stroke="#28303F" stroke-width="1.5"/>
<path d="M13.9459 12.1945V14.9597C13.9459 16.2257 14.9721 17.2519 16.238 17.2519H18.4953C19.7805 17.2519 20.8223 18.2938 20.8223 19.5789C20.8223 20.8641 19.7805 21.906 18.4953 21.906H9.96484" stroke="#28303F" stroke-width="1.5" stroke-linecap="round"/>
</svg>
