<svg width="24" height="24" viewBox="0 0 24 24" fill="none" xmlns="http://www.w3.org/2000/svg">
<path d="M7.5 16C7.5 16.8284 6.82843 17.5 6 17.5C5.17157 17.5 4.5 16.8284 4.5 16C4.5 15.1716 5.17157 14.5 6 14.5C6.82843 14.5 7.5 15.1716 7.5 16Z" fill="#28303F"/>
<path d="M20 5C20 5.55228 19.5523 6 19 6C18.4477 6 18 5.55228 18 5C18 4.44772 18.4477 4 19 4C19.5523 4 20 4.44772 20 5Z" fill="#28303F"/>
<path d="M10 16C10 18.2091 8 22 6 22C4 22 2 18.2091 2 16C2 13.7909 3.79086 12 6 12C8.20914 12 10 13.7909 10 16Z" stroke="#28303F" stroke-width="1.5"/>
<path d="M22 5C22 6.12304 21.0541 7.56139 20.2246 8.60684C19.574 9.4267 18.3837 9.47089 17.7029 8.67596C16.8918 7.7288 16 6.41359 16 5.20914C16 3 17.3431 2 19 2C20.6569 2 22 3 22 5Z" stroke="#28303F" stroke-width="1.5" stroke-linejoin="round"/>
<path d="M12.5 16L17 11.5" stroke="#28303F" stroke-width="1.5" stroke-linecap="round" stroke-linejoin="round" stroke-dasharray="0.5 3"/>
</svg>
