<svg width="24" height="24" viewBox="0 0 24 24" fill="none" xmlns="http://www.w3.org/2000/svg">
<path d="M13.0758 13H10C8.89543 13 8 13.8954 8 15C8 16.1046 8.89543 17 10 17H19C20.1046 17 21 17.8954 21 19C21 20.1046 20.1046 21 19 21H3" stroke="#28303F" stroke-width="1.5" stroke-linecap="round"/>
<path d="M17.2671 6.34167C17.2671 7.0689 16.6775 7.65844 15.9503 7.65844C15.2231 7.65844 14.6335 7.0689 14.6335 6.34167C14.6335 5.61444 15.2231 5.0249 15.9503 5.0249C16.6775 5.0249 17.2671 5.61444 17.2671 6.34167Z" stroke="#28303F" stroke-width="1.5"/>
<path d="M19.9006 6.34167C19.9006 8.52336 17.2671 11.6087 15.9503 11.6087C14.6335 11.6087 12 8.52336 12 6.34167C12 4.15997 13.7686 2.39136 15.9503 2.39136C18.132 2.39136 19.9006 4.15997 19.9006 6.34167Z" stroke="#28303F" stroke-width="1.5"/>
</svg>
