<svg width="24" height="24" viewBox="0 0 24 24" fill="none" xmlns="http://www.w3.org/2000/svg">
<path d="M14.9999 16H16.1264C17.3135 16 18.4393 16.5273 19.1992 17.4393L20.2662 18.7196C21.3518 20.0223 20.4254 22 18.7298 22H5.26994C3.57426 22 2.64795 20.0223 3.73349 18.7196L4.80047 17.4393C5.56044 16.5273 6.68623 16 7.87335 16H8.99985" stroke="#28303F" stroke-width="1.5" stroke-linecap="round" stroke-linejoin="round"/>
<path d="M12 19V10M12 10V4C12 2.89543 12.8954 2 14 2H19.382C20.1253 2 20.6088 2.78231 20.2764 3.44721L19.2236 5.55279C19.0828 5.83431 19.0828 6.16569 19.2236 6.44721L20.2764 8.55279C20.6088 9.21769 20.1253 10 19.382 10H12Z" stroke="#28303F" stroke-width="1.5" stroke-linecap="round"/>
</svg>
