<svg width="26" height="26" viewBox="0 0 26 26" fill="none" xmlns="http://www.w3.org/2000/svg">
<path d="M13.0629 5.00018L13.0786 3.00024" stroke="#28303F" stroke-width="1.5" stroke-linecap="round"/>
<path d="M12.9218 22.9997L12.9375 20.9998" stroke="#28303F" stroke-width="1.5" stroke-linecap="round"/>
<path d="M21.0001 13.0627L23 13.0784" stroke="#28303F" stroke-width="1.5" stroke-linecap="round"/>
<path d="M3.00055 12.9216L5.00049 12.9373" stroke="#28303F" stroke-width="1.5" stroke-linecap="round"/>
<path d="M4.07129 3.92969L21.9296 22.0702" stroke="#28303F" stroke-width="1.5" stroke-linecap="round"/>
<path d="M9.7648 5.68138C10.7726 5.23509 11.8894 4.99101 13.0632 5.00021C17.4814 5.03484 21.0349 8.64453 21.0003 13.0627C20.9911 14.2365 20.7295 15.3493 20.2675 16.35M7.38818 7.29894C5.92916 8.73526 5.01808 10.7282 5.00077 12.9373C4.96613 17.3554 8.51967 20.9651 12.9378 20.9997C15.1469 21.017 17.1538 20.1373 18.6129 18.701" stroke="#28303F" stroke-width="1.5" stroke-linecap="round"/>
<path d="M15.1003 15.1424C14.5535 15.6783 13.8029 16.0063 12.9768 15.9998C11.32 15.9868 9.98743 14.6332 10.0004 12.9764C10.0069 12.1453 10.3508 11.3958 10.901 10.8568" stroke="#28303F" stroke-width="1.5"/>
</svg>
