<svg width="24" height="24" viewBox="0 0 24 24" fill="none" xmlns="http://www.w3.org/2000/svg">
<path d="M7.81965 22H16.1804C18.4891 22 20.3607 20.214 20.3607 18.0108V13.133C20.3607 12.4248 20.6555 11.7456 21.1803 11.2448C22.3962 10.0845 22.2381 8.16205 20.8475 7.19691L14.4588 2.763C12.9929 1.74567 11.0071 1.74567 9.54124 2.763L3.15251 7.19692C1.76187 8.16205 1.60381 10.0845 2.81969 11.2448C3.34447 11.7456 3.6393 12.4248 3.6393 13.133V18.0108C3.6393 20.214 5.5109 22 7.81965 22Z" stroke="#28303F" stroke-width="1.5" stroke-linejoin="round"/>
<path d="M16.3047 15.6042C16.3047 17.8865 14.1524 21.803 12 21.803C9.84766 21.803 7.69531 17.8865 7.69531 15.6042C7.69531 13.3219 9.62259 11.4717 12 11.4717C14.3774 11.4717 16.3047 13.3219 16.3047 15.6042Z" stroke="#28303F" stroke-width="1.5"/>
<path d="M13.2914 15.3459C13.2914 16.0591 12.7132 16.6373 12 16.6373C11.2868 16.6373 10.7086 16.0591 10.7086 15.3459C10.7086 14.6327 11.2868 14.0545 12 14.0545C12.7132 14.0545 13.2914 14.6327 13.2914 15.3459Z" stroke="#28303F" stroke-width="1.5"/>
</svg>
