<svg width="24" height="24" viewBox="0 0 24 24" fill="none" xmlns="http://www.w3.org/2000/svg">
<path d="M17 11C17 13.7614 14.7614 16 12 16C9.23858 16 7 13.7614 7 11C7 8.23858 9.23858 6 12 6C14.7614 6 17 8.23858 17 11Z" stroke="#28303F" stroke-width="1.5"/>
<path d="M21 10.8889C21 15.7981 15.375 22 12 22C8.625 22 3 15.7981 3 10.8889C3 5.97969 7.02944 2 12 2C16.9706 2 21 5.97969 21 10.8889Z" stroke="#28303F" stroke-width="1.5"/>
<path d="M12 9V13" stroke="#28303F" stroke-width="1.5" stroke-linecap="round"/>
<path d="M14 11L10 11" stroke="#28303F" stroke-width="1.5" stroke-linecap="round"/>
</svg>
