<svg width="24" height="24" viewBox="0 0 24 24" fill="none" xmlns="http://www.w3.org/2000/svg">
<path d="M12.6121 8.03467C11.2212 7.02779 9.94717 5.76361 8 5.98157C6.13272 6.19058 3.85997 7.73867 2.72215 8.599C2.25538 8.95194 2 9.50866 2 10.0938V19.7633C2 20.6167 3.0279 21.1116 3.73627 20.6356C4.94575 19.8228 6.58869 18.8999 8 18.7419C11.3183 18.3705 12.6817 22.3034 16 21.932C17.8673 21.723 20.14 20.1749 21.2778 19.3146C21.7446 18.9616 22 18.4049 22 17.8197V8.15032C22 7.29686 20.9721 6.80196 20.2637 7.27798C19.9622 7.48063 19.6337 7.69013 19.2885 7.89292" stroke="#28303F" stroke-width="1.5"/>
<path d="M18.6673 11.0588L18.4178 10.3515L18.6673 11.0588ZM12.5342 8.0036L11.8849 7.62835H11.8849L12.5342 8.0036ZM19.6311 8.32195L18.9506 8.63733L19.6311 8.32195ZM12.8641 7.51862L13.4518 7.98463L12.8641 7.51862ZM17.25 4.00208C17.25 4.69243 16.6904 5.25208 16 5.25208V6.75208C17.5188 6.75208 18.75 5.52086 18.75 4.00208H17.25ZM16 5.25208C15.3096 5.25208 14.75 4.69243 14.75 4.00208H13.25C13.25 5.52086 14.4812 6.75208 16 6.75208V5.25208ZM14.75 4.00208C14.75 3.31172 15.3096 2.75208 16 2.75208V1.25208C14.4812 1.25208 13.25 2.48329 13.25 4.00208H14.75ZM16 2.75208C16.6904 2.75208 17.25 3.31172 17.25 4.00208H18.75C18.75 2.48329 17.5188 1.25208 16 1.25208V2.75208ZM17.25 12.0021V14.0021H18.75V12.0021H17.25ZM14.75 14.0021V12.0021H13.25V14.0021H14.75ZM16 15.2521C15.3096 15.2521 14.75 14.6924 14.75 14.0021H13.25C13.25 15.5209 14.4812 16.7521 16 16.7521V15.2521ZM17.25 14.0021C17.25 14.6924 16.6904 15.2521 16 15.2521V16.7521C17.5188 16.7521 18.75 15.5209 18.75 14.0021H17.25ZM11.25 10.0021C11.25 10.9686 12.0335 11.7521 13 11.7521V10.2521C12.8619 10.2521 12.75 10.1401 12.75 10.0021H11.25ZM14.75 12.0021C14.75 11.0356 13.9665 10.2521 13 10.2521V11.7521C13.1381 11.7521 13.25 11.864 13.25 12.0021H14.75ZM19.25 10.0021C19.25 10.1401 19.1381 10.2521 19 10.2521V11.7521C19.9665 11.7521 20.75 10.9686 20.75 10.0021H19.25ZM18.75 12.0021C18.75 11.8943 18.8186 11.8007 18.9168 11.7661L18.4178 10.3515C17.7386 10.591 17.25 11.2385 17.25 12.0021H18.75ZM18.9168 11.7661C18.9418 11.7572 18.9695 11.7521 19 11.7521V10.2521C18.7972 10.2521 18.6009 10.2869 18.4178 10.3515L18.9168 11.7661ZM11.8849 7.62835C11.4809 8.32736 11.25 9.13889 11.25 10.0021H12.75C12.75 9.40937 12.908 8.85585 13.1836 8.37886L11.8849 7.62835ZM16 6.75208C17.3062 6.75208 18.434 7.52268 18.9506 8.63733L20.3116 8.00656C19.5584 6.38164 17.9119 5.25208 16 5.25208V6.75208ZM18.9506 8.63733C19.1425 9.05136 19.25 9.51314 19.25 10.0021H20.75C20.75 9.29086 20.5932 8.61421 20.3116 8.00656L18.9506 8.63733ZM16 5.25208C14.4906 5.25208 13.1453 5.95699 12.2765 7.0526L13.4518 7.98463C14.0483 7.23237 14.9678 6.75208 16 6.75208V5.25208ZM12.2765 7.0526C12.1325 7.23412 12.0015 7.4265 11.8849 7.62835L13.1836 8.37886C13.2634 8.2408 13.3531 8.10906 13.4518 7.98463L12.2765 7.0526Z" fill="#28303F"/>
</svg>
