<svg width="24" height="24" viewBox="0 0 24 24" fill="none" xmlns="http://www.w3.org/2000/svg">
<path d="M8 2.29529C6.13272 2.5043 3.85997 4.05239 2.72215 4.91272C2.25538 5.26566 2 5.82238 2 6.40757V16.077C2 16.9304 3.0279 17.4253 3.73627 16.9493C4.66363 16.3261 5.84581 15.6382 6.98303 15.2799M8 2.29529C11.3183 1.92386 12.6817 5.8568 16 5.48537M8 2.29529V11.77M16 5.48537C17.4113 5.3274 19.0542 4.40447 20.2637 3.5917C20.9721 3.11568 22 3.61058 22 4.46404V14.1334C22 14.7186 21.7446 15.2754 21.2778 15.6283C20.14 16.4886 17.8673 18.0367 16 18.2457M16 5.48537V11.8656" stroke="#28303F" stroke-width="1.5"/>
<path d="M17 14.7437C17 17.3947 14.5 21.9437 12 21.9437C9.5 21.9437 7 17.3947 7 14.7437C7 12.0928 9.23858 9.94373 12 9.94373C14.7614 9.94373 17 12.0928 17 14.7437Z" stroke="#28303F" stroke-width="1.5"/>
<path d="M13.5 14.4437C13.5 15.2722 12.8284 15.9437 12 15.9437C11.1716 15.9437 10.5 15.2722 10.5 14.4437C10.5 13.6153 11.1716 12.9437 12 12.9437C12.8284 12.9437 13.5 13.6153 13.5 14.4437Z" stroke="#28303F" stroke-width="1.5"/>
</svg>
