<svg width="24" height="24" viewBox="0 0 24 24" fill="none" xmlns="http://www.w3.org/2000/svg">
<path d="M8 4.02478C6.13272 4.23379 3.85997 5.78189 2.72215 6.64222C2.25538 6.99516 2 7.55187 2 8.13706V17.8065C2 18.6599 3.0279 19.1548 3.73627 18.6788C4.94575 17.866 6.58869 16.9431 8 16.7851M8 4.02478V16.7851M8 4.02478C10.4001 3.75613 11.7775 5.73934 13.6116 6.71689M8 16.7851C11.3183 16.4137 12.6817 20.3466 16 19.9752M16 19.9752C17.8673 19.7662 20.14 18.2181 21.2778 17.3578C21.7446 17.0048 22 16.4481 22 15.8629V6.19353C22 5.34007 20.9721 4.84517 20.2637 5.32119C19.6339 5.74441 18.8866 6.19749 18.1157 6.55689M16 19.9752V16.059" stroke="#28303F" stroke-width="1.5"/>
<path d="M18.6673 11.0567L18.4178 10.3494L18.6673 11.0567ZM12.5342 8.00153L11.8849 7.62627H11.8849L12.5342 8.00153ZM19.6311 8.31987L18.9506 8.63526L19.6311 8.31987ZM12.8641 7.51654L13.4518 7.98256L12.8641 7.51654ZM17.25 4C17.25 4.69036 16.6904 5.25 16 5.25V6.75C17.5188 6.75 18.75 5.51878 18.75 4H17.25ZM16 5.25C15.3096 5.25 14.75 4.69036 14.75 4H13.25C13.25 5.51878 14.4812 6.75 16 6.75V5.25ZM14.75 4C14.75 3.30964 15.3096 2.75 16 2.75V1.25C14.4812 1.25 13.25 2.48122 13.25 4H14.75ZM16 2.75C16.6904 2.75 17.25 3.30964 17.25 4H18.75C18.75 2.48122 17.5188 1.25 16 1.25V2.75ZM17.25 12V14H18.75V12H17.25ZM14.75 14V12H13.25V14H14.75ZM16 15.25C15.3096 15.25 14.75 14.6904 14.75 14H13.25C13.25 15.5188 14.4812 16.75 16 16.75V15.25ZM17.25 14C17.25 14.6904 16.6904 15.25 16 15.25V16.75C17.5188 16.75 18.75 15.5188 18.75 14H17.25ZM11.25 10C11.25 10.9665 12.0335 11.75 13 11.75V10.25C12.8619 10.25 12.75 10.1381 12.75 10H11.25ZM14.75 12C14.75 11.0335 13.9665 10.25 13 10.25V11.75C13.1381 11.75 13.25 11.8619 13.25 12H14.75ZM19.25 10C19.25 10.1381 19.1381 10.25 19 10.25V11.75C19.9665 11.75 20.75 10.9665 20.75 10H19.25ZM18.75 12C18.75 11.8923 18.8186 11.7986 18.9168 11.764L18.4178 10.3494C17.7386 10.589 17.25 11.2365 17.25 12H18.75ZM18.9168 11.764C18.9418 11.7551 18.9695 11.75 19 11.75V10.25C18.7972 10.25 18.6009 10.2848 18.4178 10.3494L18.9168 11.764ZM11.8849 7.62627C11.4809 8.32529 11.25 9.13681 11.25 10H12.75C12.75 9.4073 12.908 8.85377 13.1836 8.37679L11.8849 7.62627ZM16 6.75C17.3062 6.75 18.434 7.52061 18.9506 8.63526L20.3116 8.00449C19.5584 6.37956 17.9119 5.25 16 5.25V6.75ZM18.9506 8.63526C19.1425 9.04929 19.25 9.51106 19.25 10H20.75C20.75 9.28879 20.5932 8.61213 20.3116 8.00449L18.9506 8.63526ZM16 5.25C14.4906 5.25 13.1453 5.95491 12.2765 7.05053L13.4518 7.98256C14.0483 7.2303 14.9678 6.75 16 6.75V5.25ZM12.2765 7.05053C12.1325 7.23205 12.0015 7.42442 11.8849 7.62627L13.1836 8.37679C13.2634 8.23873 13.3531 8.10699 13.4518 7.98256L12.2765 7.05053Z" fill="#28303F"/>
</svg>
