<svg width="24" height="24" viewBox="0 0 24 24" fill="none" xmlns="http://www.w3.org/2000/svg">
<path d="M12.3045 16.6108C11.0287 15.6521 9.80287 14.5833 8 14.7851C6.58869 14.9431 4.94575 15.866 3.73627 16.6788C3.0279 17.1548 2 16.6599 2 15.8065V6.13706C2 5.55187 2.25538 4.99516 2.72215 4.64222C3.85997 3.78189 6.13272 2.23379 8 2.02478C11.3183 1.65335 12.6817 5.5863 16 5.21487C17.4113 5.0569 19.0542 4.13397 20.2637 3.32119C20.9721 2.84517 22 3.34007 22 4.19353V13.8629C22 13.9786 21.99 14.0932 21.9704 14.2054" stroke="#28303F" stroke-width="1.5"/>
<path d="M22 14.8C22 17.451 19.5 22 17 22C14.5 22 12 17.451 12 14.8C12 12.149 14.2386 10 17 10C19.7614 10 22 12.149 22 14.8Z" stroke="#28303F" stroke-width="1.5"/>
<path d="M18.5 14.5C18.5 15.3284 17.8284 16 17 16C16.1716 16 15.5 15.3284 15.5 14.5C15.5 13.6716 16.1716 13 17 13C17.8284 13 18.5 13.6716 18.5 14.5Z" stroke="#28303F" stroke-width="1.5"/>
</svg>
