<svg width="24" height="24" viewBox="0 0 24 24" fill="none" xmlns="http://www.w3.org/2000/svg">
<path d="M8 6.52026C6.13272 6.72927 3.85997 8.27737 2.72215 9.1377C2.25538 9.49064 2 10.0474 2 10.6325V20.302C2 21.1554 3.0279 21.6503 3.73627 21.1743C4.94575 20.3615 6.58869 19.4386 8 19.2806M8 6.52026V19.2806M8 6.52026C10.9642 6.18847 12.3684 9.29135 14.9996 9.69266C15.314 9.7406 15.6459 9.74999 16 9.71035M16 9.71035C16.3331 9.67306 16.6792 9.59315 17.0294 9.48213C18.1628 9.12281 19.3397 8.4376 20.2637 7.81668C20.9721 7.34066 22 7.83556 22 8.68901V18.3584C22 18.9436 21.7446 19.5003 21.2778 19.8533C20.14 20.7136 17.8673 22.2617 16 22.4707M16 9.71035V22.4707M8 19.2806C11.3183 18.9092 12.6817 22.8421 16 22.4707" stroke="#28303F" stroke-width="1.5"/>
<path d="M18.3833 6.49548C19.4879 6.49548 20.3833 5.60005 20.3833 4.49548C20.3833 3.39091 19.4879 2.49548 18.3833 2.49548C17.2787 2.49548 16.3833 3.39091 16.3833 4.49548C16.3833 5.60005 17.2787 6.49548 18.3833 6.49548ZM18.3833 6.49548V14.4955" stroke="#28303F" stroke-width="1.5" stroke-linecap="round"/>
</svg>
