<svg width="24" height="24" viewBox="0 0 24 24" fill="none" xmlns="http://www.w3.org/2000/svg">
<path d="M16 17.9752C17.8673 17.7662 20.14 16.2181 21.2778 15.3578C21.7446 15.0048 22 14.4481 22 13.8629V4.19353C22 3.34007 20.9721 2.84517 20.2637 3.32119C19.0542 4.13397 17.4113 5.0569 16 5.21487C12.6817 5.5863 11.3183 1.65335 8 2.02478C6.13272 2.23379 3.85997 3.78189 2.72215 4.64222C2.25538 4.99516 2 5.55187 2 6.13706V15.8065C2 16.6599 3.0279 17.1548 3.73627 16.6788C4.68659 16.0402 5.90451 15.3336 7.06742 14.9834" stroke="#28303F" stroke-width="1.5"/>
<path d="M17 14.8C17 17.451 14.5 22 12 22C9.5 22 7 17.451 7 14.8C7 12.149 9.23858 10 12 10C14.7614 10 17 12.149 17 14.8Z" stroke="#28303F" stroke-width="1.5"/>
<path d="M13.5 14.5C13.5 15.3284 12.8284 16 12 16C11.1716 16 10.5 15.3284 10.5 14.5C10.5 13.6716 11.1716 13 12 13C12.8284 13 13.5 13.6716 13.5 14.5Z" stroke="#28303F" stroke-width="1.5"/>
</svg>
