<svg width="24" height="24" viewBox="0 0 24 24" fill="none" xmlns="http://www.w3.org/2000/svg">
<path d="M6.29904 6.5C4.9023 7.07929 3.52775 8.0332 2.72215 8.64234C2.25538 8.99528 2 9.55199 2 10.1372V19.8066C2 20.66 3.0279 21.155 3.73627 20.6789C4.94575 19.8662 6.58869 18.9432 8 18.7853C11.3183 18.4138 12.6817 22.3468 16 21.9753C17.8673 21.7663 20.14 20.2182 21.2778 19.3579C21.7446 19.005 22 18.4483 22 17.8631V8.19365C22 7.3402 20.9721 6.84529 20.2637 7.32132C19.583 7.77877 18.7649 8.27112 17.9282 8.64234" stroke="#28303F" stroke-width="1.5"/>
<path d="M10.7628 8.92094L9.24761 8.41587C8.81145 8.27048 8.78618 7.66306 9.20877 7.48196L13.8511 5.4924C14.2659 5.3146 14.6854 5.73407 14.5076 6.14893L12.518 10.7912C12.3369 11.2138 11.7295 11.1886 11.5841 10.7524L11.0791 9.23717C11.0293 9.08787 10.9121 8.97071 10.7628 8.92094Z" stroke="#28303F" stroke-width="1.5"/>
<path d="M18 8C18 11.3137 15.3137 14 12 14C8.68629 14 6 11.3137 6 8C6 4.68629 8.68629 2 12 2C15.3137 2 18 4.68629 18 8Z" stroke="#28303F" stroke-width="1.5"/>
</svg>
