<svg width="24" height="24" viewBox="0 0 24 24" fill="none" xmlns="http://www.w3.org/2000/svg">
<path d="M17 11.5H5.41421C5.149 11.5 4.89464 11.3946 4.70711 11.2071L2.70711 9.20711C2.31658 8.81658 2.31658 8.18342 2.70711 7.79289L4.70711 5.79289C4.89464 5.60536 5.149 5.5 5.41421 5.5H17C17.5523 5.5 18 5.94772 18 6.5V10.5C18 11.0523 17.5523 11.5 17 11.5Z" stroke="#28303F" stroke-width="1.5" stroke-linecap="round" stroke-linejoin="round"/>
<path d="M7 14.5H18.5858C18.851 14.5 19.1054 14.6054 19.2929 14.7929L21.2929 16.7929C21.6834 17.1834 21.6834 17.8166 21.2929 18.2071L19.2929 20.2071C19.1054 20.3946 18.851 20.5 18.5858 20.5H7C6.44772 20.5 6 20.0523 6 19.5V15.5C6 14.9477 6.44771 14.5 7 14.5Z" stroke="#28303F" stroke-width="1.5" stroke-linecap="round" stroke-linejoin="round"/>
<path d="M13.5 5.5V4C13.5 3.44772 13.0523 3 12.5 3H11.5C10.9477 3 10.5 3.44772 10.5 4V5.5M13.5 11.5V14.5M10.5 11.5V14.5M13.5 20.5V22C13.5 22.5523 13.0523 23 12.5 23H11.5C10.9477 23 10.5 22.5523 10.5 22L10.5 20.5" stroke="#28303F" stroke-width="1.5"/>
</svg>
