<svg width="24" height="24" viewBox="0 0 24 24" fill="none" xmlns="http://www.w3.org/2000/svg">
<path d="M13.4995 4.5099V3C13.4995 2.44772 13.0518 2 12.4995 2H11.4995C10.9472 2 10.4995 2.44772 10.4995 3V5.31375M13.4995 4.5099L15.7179 3.91549C16.0113 3.83687 16.3246 3.89589 16.5693 4.07591L18.1166 5.21421C18.4933 5.49136 18.6277 5.99264 18.44 6.42103L17.6691 8.1805C17.5472 8.45875 17.3054 8.6665 17.012 8.74512L13.4995 9.68628M13.4995 4.5099L10.4995 5.31375M10.4995 5.31375L5.55693 6.63811C5.02346 6.78105 4.70688 7.32939 4.84982 7.86285L5.62628 10.7606C5.76922 11.2941 6.31756 11.6107 6.85103 11.4677L10.4995 10.4901M13.4995 9.68628L10.4995 10.4901M13.4995 9.68628V14M10.4995 10.4901V14M13.4995 14H16.5189C16.8227 14 17.11 14.1381 17.2998 14.3753L18.4998 15.8753C18.7919 16.2405 18.7919 16.7595 18.4998 17.1247L17.2998 18.6247C17.11 18.8619 16.8227 19 16.5189 19H13.4995M13.4995 14H10.4995M10.4995 14H5.99951C5.44723 14 4.99951 14.4477 4.99951 15V18C4.99951 18.5523 5.44723 19 5.99951 19H10.4995M13.4995 19V21C13.4995 21.5523 13.0518 22 12.4995 22H11.4995C10.9472 22 10.4995 21.5523 10.4995 21L10.4995 19M13.4995 19H10.4995" stroke="#28303F" stroke-width="1.5"/>
</svg>
