<svg width="24" height="24" viewBox="0 0 24 24" fill="none" xmlns="http://www.w3.org/2000/svg">
<path d="M8.97272 3.25394C10.6446 1.58202 13.3554 1.58202 15.0273 3.25394L20.7461 8.97272C22.418 10.6446 22.418 13.3554 20.7461 15.0273L15.0273 20.7461C13.3554 22.418 10.6446 22.418 8.97272 20.7461L3.25394 15.0273C1.58202 13.3554 1.58202 10.6446 3.25394 8.97272L8.97272 3.25394Z" stroke="#28303F" stroke-width="1.5"/>
<path d="M10 7.58579L11.2929 6.29289C11.6834 5.90237 12.3166 5.90237 12.7071 6.29289L14 7.58579M12 16L12 6.58579M12 16L12 17M12 16C12 13.7909 13.7909 12 16 12H17.4142M12 16C12 13.7909 10.2091 12 8 12H6.58579M16.4142 10L17.7071 11.2929C18.0976 11.6834 18.0976 12.3166 17.7071 12.7071L16.4142 14M7.58579 10L6.29289 11.2929C5.90237 11.6834 5.90237 12.3166 6.29289 12.7071L7.58579 14" stroke="#28303F" stroke-width="1.5" stroke-linecap="round"/>
</svg>
