<svg width="24" height="24" viewBox="0 0 24 24" fill="none" xmlns="http://www.w3.org/2000/svg">
<path d="M8.97272 3.25394C10.6446 1.58202 13.3554 1.58202 15.0273 3.25394L20.7461 8.97272C22.418 10.6446 22.418 13.3554 20.7461 15.0273L15.0273 20.7461C13.3554 22.418 10.6446 22.418 8.97272 20.7461L3.25394 15.0273C1.58202 13.3554 1.58202 10.6446 3.25394 8.97272L8.97272 3.25394Z" stroke="#28303F" stroke-width="1.5"/>
<path d="M13 12.4142L14.2929 13.7071C14.6834 14.0976 15.3166 14.0976 15.7071 13.7071L17 12.4142M15 13.4142V11C15 9.34315 13.6569 8 12 8C10.3431 8 9 9.34315 9 11V16" stroke="#28303F" stroke-width="1.5" stroke-linecap="round"/>
</svg>
