<svg width="24" height="24" viewBox="0 0 24 24" fill="none" xmlns="http://www.w3.org/2000/svg">
<path d="M17 18.25C16.5858 18.25 16.25 18.5858 16.25 19C16.25 19.4142 16.5858 19.75 17 19.75V18.25ZM12.975 9.89371C12.6792 10.1837 12.6745 10.6585 12.9644 10.9543C13.2544 11.2501 13.7292 11.2548 14.025 10.9649L12.975 9.89371ZM15.4386 9.24864L15.6726 9.96119L15.4386 9.24864ZM12.4559 5.91117L12.0851 6.56309L12.4559 5.91117ZM21.0004 11L20.4007 11.4504L21.0004 11ZM7.8938 19.6716C8.30384 19.7302 8.68379 19.4454 8.74244 19.0353C8.8011 18.6253 8.51624 18.2453 8.1062 18.1867L7.8938 19.6716ZM2.75 12C2.75 8.54822 5.54822 5.75 9 5.75V4.25C4.71979 4.25 1.25 7.71979 1.25 12H2.75ZM21.25 14C21.25 16.3472 19.3472 18.25 17 18.25V19.75C20.1756 19.75 22.75 17.1756 22.75 14H21.25ZM14.025 10.9649C14.4856 10.5134 15.0475 10.1665 15.6726 9.96119L15.2045 8.53608C14.3565 8.8146 13.5965 9.28445 12.975 9.89371L14.025 10.9649ZM15.6726 9.96119C16.0893 9.82433 16.5352 9.75 17 9.75V8.25C16.3743 8.25 15.7704 8.35023 15.2045 8.53608L15.6726 9.96119ZM17 3.75C19.3472 3.75 21.25 5.65279 21.25 8H22.75C22.75 4.82436 20.1756 2.25 17 2.25V3.75ZM13.1371 6.22485C13.8104 4.76259 15.2877 3.75 17 3.75V2.25C14.6807 2.25 12.6837 3.62311 11.7746 5.5975L13.1371 6.22485ZM9 5.75C10.1234 5.75 11.1755 6.04574 12.0851 6.56309L12.8267 5.25926C11.6971 4.61673 10.3902 4.25 9 4.25V5.75ZM12.0851 6.56309C13.268 7.23595 14.21 8.28387 14.749 9.54367L16.1281 8.9536C15.4593 7.39046 14.2922 6.09286 12.8267 5.25926L12.0851 6.56309ZM21.25 8C21.25 8.95763 20.9342 9.83933 20.4007 10.5496L21.6 11.4504C22.3219 10.4894 22.75 9.29358 22.75 8H21.25ZM17 9.75C18.39 9.75 19.624 10.4165 20.4007 11.4504L21.6 10.5496C20.5523 9.15464 18.8817 8.25 17 8.25V9.75ZM20.4007 11.4504C20.9342 12.1607 21.25 13.0424 21.25 14H22.75C22.75 12.7064 22.3219 11.5106 21.6 10.5496L20.4007 11.4504ZM8.1062 18.1867C5.07807 17.7535 2.75 15.148 2.75 12H1.25C1.25 15.905 4.13735 19.1342 7.8938 19.6716L8.1062 18.1867Z" fill="#28303F"/>
<path d="M13.5 19.5C13.5 20.6046 12.8284 21 12 21C11.1716 21 10.5 20.6046 10.5 19.5C10.5 18.3954 12 17 12 17C12 17 13.5 18.3954 13.5 19.5Z" stroke="#28303F" stroke-width="1.5" stroke-linejoin="round"/>
</svg>
