<svg width="24" height="24" viewBox="0 0 24 24" fill="none" xmlns="http://www.w3.org/2000/svg">
<path d="M13.5 8.42928C14.041 7.89892 14.702 7.49054 15.4386 7.24864M15.4386 7.24864C15.9299 7.08728 16.4547 7 17 7C19.7614 7 22 9.23858 22 12C22 13.8507 20.9945 15.4666 19.5 16.3311M15.4386 7.24864C14.3696 4.75042 11.8892 3 9 3C5.13401 3 2 6.13401 2 10C2 12.3787 3.18652 14.4804 5 15.7453M10 19.5C10 20.6046 9.32843 21 8.5 21C7.67157 21 7 20.6046 7 19.5C7 18.3954 8.5 17 8.5 17C8.5 17 10 18.3954 10 19.5ZM17 19.5C17 20.6046 16.3284 21 15.5 21C14.6716 21 14 20.6046 14 19.5C14 18.3954 15.5 17 15.5 17C15.5 17 17 18.3954 17 19.5Z" stroke="#28303F" stroke-width="1.5" stroke-linecap="round" stroke-linejoin="round"/>
</svg>
