<svg width="24" height="24" viewBox="0 0 24 24" fill="none" xmlns="http://www.w3.org/2000/svg">
<path d="M13.5 8.42928C14.041 7.89892 14.702 7.49054 15.4386 7.24864M15.4386 7.24864C15.9299 7.08728 16.4547 7 17 7C19.7614 7 22 9.23858 22 12C22 13.8507 20.9945 15.4666 19.5 16.3311M15.4386 7.24864C14.3696 4.75042 11.8892 3 9 3C5.13401 3 2 6.13401 2 10C2 11.0736 2.24169 12.0907 2.67363 13M17.5 19.5C17.5 20.6046 16.8284 21 16 21C15.1716 21 14.5 20.6046 14.5 19.5C14.5 18.3954 16 17 16 17C16 17 17.5 18.3954 17.5 19.5ZM9 11L4 17H7V21L12 15H9V11Z" stroke="#28303F" stroke-width="1.5" stroke-linecap="round" stroke-linejoin="round"/>
</svg>
