<svg width="24" height="24" viewBox="0 0 24 24" fill="none" xmlns="http://www.w3.org/2000/svg">
<path d="M13.5 8.42928C14.041 7.89892 14.702 7.49054 15.4386 7.24864M15.4386 7.24864C15.9299 7.08728 16.4547 7 17 7C19.7614 7 22 9.23858 22 12C22 14.7614 19.7614 17 17 17H16M15.4386 7.24864C14.3696 4.75042 11.8892 3 9 3C5.13401 3 2 6.13401 2 10C2 13.5265 4.60771 16.4439 8 16.9291M13.5 19.5C13.5 20.6046 12.8284 21 12 21C11.1716 21 10.5 20.6046 10.5 19.5C10.5 18.3954 12 17 12 17C12 17 13.5 18.3954 13.5 19.5Z" stroke="#28303F" stroke-width="1.5" stroke-linecap="round" stroke-linejoin="round"/>
</svg>
