<svg width="24" height="24" viewBox="0 0 24 24" fill="none" xmlns="http://www.w3.org/2000/svg">
<path d="M22 19L19.3849 17.431C17.9512 16.5708 16.1338 16.693 14.8282 17.7375L14.4988 18.001C13.0379 19.1697 10.9621 19.1697 9.50122 18.001L9.17183 17.7375C7.86624 16.693 6.04876 16.5708 4.61506 17.431L2 19M22 13L19.3849 11.431C17.9512 10.5708 16.1338 10.693 14.8282 11.7375L14.4988 12.001C13.0379 13.1697 10.9621 13.1697 9.50122 12.001L9.17183 11.7375C7.86624 10.693 6.04876 10.5708 4.61506 11.431L2 13M22 7.00005L19.3849 5.43101C17.9512 4.57079 16.1338 4.69304 14.8282 5.73751L14.4988 6.00102C13.0379 7.16972 10.9621 7.16972 9.50122 6.00102L9.17183 5.73751C7.86624 4.69304 6.04876 4.57079 4.61506 5.43101L2 7.00005" stroke="#28303F" stroke-width="1.5" stroke-linecap="round"/>
</svg>
