<svg width="24" height="24" viewBox="0 0 24 24" fill="none" xmlns="http://www.w3.org/2000/svg">
<path fill-rule="evenodd" clip-rule="evenodd" d="M2.9165 6.99974C2.9165 6.58552 3.25229 6.24974 3.6665 6.24974H6.24986L6.24986 3.66638C6.24986 3.25217 6.58564 2.91638 6.99986 2.91638C7.41407 2.91638 7.74986 3.25217 7.74986 3.66638V6.99974C7.74986 7.41395 7.41407 7.74974 6.99986 7.74974L3.6665 7.74974C3.25229 7.74974 2.9165 7.41395 2.9165 6.99974ZM16.9999 21.0831C17.4141 21.0831 17.7499 20.7473 17.7499 20.3331V17.7498H20.3332C20.7475 17.7498 21.0832 17.414 21.0832 16.9998C21.0832 16.5856 20.7475 16.2498 20.3332 16.2498H16.9999C16.5857 16.2498 16.2499 16.5856 16.2499 16.9998V20.3331C16.2499 20.7473 16.5857 21.0831 16.9999 21.0831ZM15.0302 10.0302C15.3231 9.73729 15.3231 9.26241 15.0302 8.96952C14.7373 8.67663 14.2624 8.67663 13.9696 8.96952L8.96953 13.9695C8.67663 14.2624 8.67663 14.7373 8.96953 15.0302C9.26242 15.3231 9.73729 15.3231 10.0302 15.0302L15.0302 10.0302ZM18.1364 5.86353C16.5883 4.31547 14.0784 4.31547 12.5304 5.86353L10.8637 7.53021C10.5708 7.8231 10.0959 7.8231 9.80302 7.53021C9.51013 7.23732 9.51013 6.76244 9.80302 6.46955L11.4697 4.80287C13.6036 2.66902 17.0632 2.66902 19.1971 4.80287C21.3309 6.93673 21.3309 10.3964 19.1971 12.5302L17.5304 14.1969C17.2375 14.4898 16.7626 14.4898 16.4697 14.1969C16.1768 13.904 16.1768 13.4292 16.4697 13.1363L18.1364 11.4696C19.6845 9.92151 19.6845 7.4116 18.1364 5.86353ZM11.4694 18.1362C9.92135 19.6842 7.41143 19.6842 5.86337 18.1362C4.3153 16.5881 4.3153 14.0782 5.86337 12.5301L7.53004 10.8635C7.82294 10.5706 7.82294 10.0957 7.53004 9.8028C7.23715 9.5099 6.76228 9.5099 6.46938 9.8028L4.80271 11.4695C2.66885 13.6033 2.66885 17.063 4.80271 19.1968C6.93656 21.3307 10.3962 21.3307 12.5301 19.1968L14.1968 17.5302C14.4896 17.2373 14.4896 16.7624 14.1968 16.4695C13.9039 16.1766 13.429 16.1766 13.1361 16.4695L11.4694 18.1362Z" fill="#28303F"/>
</svg>
