<svg width="24" height="24" viewBox="0 0 24 24" fill="none" xmlns="http://www.w3.org/2000/svg">
<path d="M7.81965 22H16.1804C18.4891 22 20.3607 20.214 20.3607 18.0108V13.133C20.3607 12.4248 20.6555 11.7456 21.1803 11.2448C22.3962 10.0845 22.2381 8.16205 20.8475 7.19691L14.4588 2.763C12.9929 1.74567 11.0071 1.74567 9.54124 2.763L3.15251 7.19692C1.76187 8.16205 1.60381 10.0845 2.81969 11.2448C3.34447 11.7456 3.6393 12.4248 3.6393 13.133V18.0108C3.6393 20.214 5.5109 22 7.81965 22Z" stroke="#28303F" stroke-width="1.5" stroke-linejoin="round"/>
<path d="M12.3094 11.4029L12 11.7123L11.6906 11.4029C10.8364 10.5486 9.45132 10.5486 8.59705 11.4029C7.74278 12.2572 7.74278 13.6422 8.59705 14.4965L10.7626 16.662C11.446 17.3454 12.554 17.3454 13.2374 16.662L15.403 14.4965C16.2572 13.6422 16.2572 12.2572 15.403 11.4029C14.5487 10.5486 13.1636 10.5486 12.3094 11.4029Z" stroke="#28303F" stroke-width="1.5" stroke-linejoin="round"/>
</svg>
