<svg width="24" height="24" viewBox="0 0 24 24" fill="none" xmlns="http://www.w3.org/2000/svg">
<path d="M14 12H10M14 12C15.1046 12 16 12.8954 16 14V16C16 17.1046 15.1046 18 14 18H10C8.89543 18 8 17.1046 8 16V14C8 12.8954 8.89543 12 10 12M14 12V11C14 9.89543 13.1046 9 12 9C10.8954 9 10 9.89543 10 11V12M21 10.1503V17.9668C21 20.1943 19.2091 22 17 22H7C4.79086 22 3 20.1943 3 17.9668V10.1503C3 8.93937 3.53964 7.7925 4.46986 7.02652L9.46986 2.90935C10.9423 1.69689 13.0577 1.69688 14.5301 2.90935L19.5301 7.02652C20.4604 7.7925 21 8.93937 21 10.1503Z" stroke="#28303F" stroke-width="1.5" stroke-linecap="round" stroke-linejoin="round"/>
</svg>
