<svg width="24" height="24" viewBox="0 0 24 24" fill="none" xmlns="http://www.w3.org/2000/svg">
<path d="M21 17.9668V10.1503C21 8.93937 20.4604 7.7925 19.5301 7.02652L14.5301 2.90935C13.0577 1.69688 10.9423 1.69689 9.46986 2.90935L4.46986 7.02652C3.53964 7.7925 3 8.93937 3 10.1503V17.9668C3 20.1943 4.79086 22 7 22H17C19.2091 22 21 20.1943 21 17.9668Z" stroke="#28303F" stroke-width="1.5" stroke-linejoin="round"/>
<path d="M11.1056 9.44721L9.10649 10.4468C8.42845 10.7858 7.99114 11.4804 8.02788 12.2375C8.17507 15.2712 8.93009 16.6489 10.887 18.1872C11.5391 18.6998 12.4617 18.701 13.113 18.1873C15.075 16.6394 15.8032 15.2444 15.9644 12.247C16.0054 11.4852 15.5675 10.7838 14.8851 10.4426L12.8944 9.44721C12.3314 9.16569 11.6686 9.16569 11.1056 9.44721Z" stroke="#28303F" stroke-width="1.5" stroke-linejoin="round"/>
</svg>
