<svg width="24" height="24" viewBox="0 0 24 24" fill="none" xmlns="http://www.w3.org/2000/svg">
<path d="M7.81965 22H16.1804C18.4891 22 20.3607 20.214 20.3607 18.0108V13.133C20.3607 12.4248 20.6555 11.7456 21.1803 11.2448C22.3962 10.0845 22.2381 8.16205 20.8475 7.19691L14.4588 2.763C12.9929 1.74567 11.0071 1.74567 9.54124 2.763L3.15251 7.19692C1.76187 8.16205 1.60381 10.0845 2.81969 11.2448C3.34447 11.7456 3.6393 12.4248 3.6393 13.133V18.0108C3.6393 20.214 5.5109 22 7.81965 22Z" stroke="#28303F" stroke-width="1.5"/>
<path d="M15.9914 12.9026C16.6369 13.5084 16.6369 14.4916 15.9914 15.0974C15.0787 15.9541 13.6305 17 12 17C10.3695 17 8.92133 15.9541 8.00859 15.0974C7.3631 14.4916 7.3631 13.5084 8.00859 12.9026C8.92133 12.0459 10.3695 11 12 11C13.6305 11 15.0787 12.0459 15.9914 12.9026Z" stroke="#28303F" stroke-width="1.5"/>
<circle cx="12" cy="14" r="1" fill="#28303F"/>
</svg>
