<svg width="24" height="24" viewBox="0 0 24 24" fill="none" xmlns="http://www.w3.org/2000/svg">
<path d="M21 17.9668V10.1503C21 8.93937 20.4604 7.7925 19.5301 7.02652L14.5301 2.90935C13.0577 1.69688 10.9423 1.69689 9.46986 2.90935L4.46986 7.02652C3.53964 7.7925 3 8.93937 3 10.1503V17.9668C3 20.1943 4.79086 22 7 22H17C19.2091 22 21 20.1943 21 17.9668Z" stroke="#28303F" stroke-width="1.5" stroke-linejoin="round"/>
<path d="M15.5 12.6C15.5 15.0853 12 18 12 18C12 18 8.5 15.0853 8.5 12.6C8.5 10.1147 10.3431 9 12 9C13.6569 9 15.5 10.1147 15.5 12.6Z" stroke="#28303F" stroke-width="1.5" stroke-linejoin="round"/>
<circle cx="12" cy="12" r="1" fill="#28303F"/>
</svg>
