<svg width="24" height="24" viewBox="0 0 24 24" fill="none" xmlns="http://www.w3.org/2000/svg">
<path d="M21 17.9668V10.1503C21 8.93937 20.4604 7.7925 19.5301 7.02652L14.5301 2.90935C13.0577 1.69688 10.9423 1.69689 9.46986 2.90935L4.46986 7.02652C3.53964 7.7925 3 8.93937 3 10.1503V17.9668C3 20.1943 4.79086 22 7 22H17C19.2091 22 21 20.1943 21 17.9668Z" stroke="#28303F" stroke-width="1.5" stroke-linejoin="round"/>
<path d="M12.3094 11.6906L12 12L11.6906 11.6906C10.8364 10.8364 9.45132 10.8364 8.59705 11.6906C7.74278 12.5449 7.74278 13.93 8.59705 14.7842L10.7626 16.9497C11.446 17.6332 12.554 17.6332 13.2374 16.9497L15.403 14.7842C16.2572 13.93 16.2572 12.5449 15.403 11.6906C14.5487 10.8364 13.1636 10.8364 12.3094 11.6906Z" stroke="#28303F" stroke-width="1.5" stroke-linejoin="round"/>
</svg>
