<svg width="24" height="24" viewBox="0 0 24 24" fill="none" xmlns="http://www.w3.org/2000/svg">
<path d="M12.75 18C12.75 18.4142 12.4142 18.75 12 18.75C11.5858 18.75 11.25 18.4142 11.25 18C11.25 17.5858 11.5858 17.25 12 17.25C12.4142 17.25 12.75 17.5858 12.75 18Z" fill="#28303F"/>
<path d="M16.2426 13.7574C15.1568 12.6716 13.6568 12 12 12C10.3431 12 8.84311 12.6716 7.75732 13.7574M9.87864 15.8787C10.4215 15.3358 11.1715 15 12 15C12.8284 15 13.5784 15.3358 14.1213 15.8787M20 14C20 9.83662 15.4537 5.13091 13.2155 3.06654C12.5215 2.42639 11.4785 2.42639 10.7845 3.06654C8.5463 5.13091 4 9.83662 4 14C4 19.5229 8.2129 22 12 22C15.7871 22 20 19.5229 20 14Z" stroke="#28303F" stroke-width="1.5" stroke-linecap="round" stroke-linejoin="round"/>
</svg>
