<svg width="24" height="24" viewBox="0 0 24 24" fill="none" xmlns="http://www.w3.org/2000/svg">
<path d="M3.99991 6H19.9999M18.9999 10V16C18.9999 17.1046 18.1045 18 16.9999 18H16.4999M4.99991 10V16C4.99991 17.1046 5.89534 18 6.99991 18H7.49991M12.9999 14L9.99991 18H13.9999L10.9999 22M5.23598 10H18.7638C20.2506 10 21.2176 8.43538 20.5527 7.10557L18.5527 3.10557C18.2139 2.428 17.5214 2 16.7638 2H7.23598C6.47843 2 5.78591 2.428 5.44712 3.10557L3.44712 7.10557C2.78222 8.43538 3.74922 10 5.23598 10ZM10.1999 2H13.7999L14.9999 10H8.99991L10.1999 2Z" stroke="#28303F" stroke-width="1.5" stroke-linecap="round" stroke-linejoin="round"/>
</svg>
