<svg width="24" height="24" viewBox="0 0 24 24" fill="none" xmlns="http://www.w3.org/2000/svg">
<path d="M16.2426 6.51468C15.1569 5.4289 13.6569 4.75732 12 4.75732C10.3431 4.75732 8.84315 5.4289 7.75736 6.51468M9.87868 8.636C10.4216 8.09311 11.1716 7.75732 12 7.75732C12.8284 7.75732 13.5784 8.09311 14.1213 8.636M17 18H7C5.89543 18 5 17.1045 5 16L5 14C5 12.8954 5.89543 12 7 12L17 12M17 18C18.1046 18 19 17.1045 19 16V14C19 12.8954 18.1046 12 17 12M17 18H14C12.8954 18 12 17.1045 12 16V14C12 12.8954 12.8954 12 14 12H17" stroke="#28303F" stroke-width="1.5" stroke-linecap="round"/>
</svg>
