<svg width="24" height="24" viewBox="0 0 24 24" fill="none" xmlns="http://www.w3.org/2000/svg">
<circle cx="12" cy="19" r="1" fill="#28303F"/>
<path d="M16.2426 3.75736C15.1568 2.67157 13.6568 2 12 2C10.3431 2 8.84311 2.67157 7.75732 3.75736M9.87864 5.87868C10.4215 5.33579 11.1715 5 12 5C12.8284 5 13.5784 5.33579 14.1213 5.87868M17 9H18M17 12H20M17 15H18M9.99997 10C9.99997 8.89543 10.8954 8 12 8C13.1045 8 14 8.89543 14 10L14 16.7639C14.6137 17.3132 15 18.1115 15 19C15 20.6569 13.6568 22 12 22C10.3431 22 8.99996 20.6569 8.99996 19C8.99996 18.1115 9.38622 17.3132 9.99996 16.7639L9.99997 10Z" stroke="#28303F" stroke-width="1.5" stroke-linecap="round" stroke-linejoin="round"/>
</svg>
