<svg width="24" height="24" viewBox="0 0 24 24" fill="none" xmlns="http://www.w3.org/2000/svg">
<path fill-rule="evenodd" clip-rule="evenodd" d="M7.49715 3.68712C7.87667 3.52116 8.04979 3.07897 7.88383 2.69945C7.71787 2.31994 7.27568 2.14682 6.89617 2.31277C4.63941 3.29963 2.72454 4.92017 1.37553 6.9491C1.14619 7.29403 1.2399 7.75957 1.58482 7.98891C1.92975 8.21825 2.39529 8.12454 2.62463 7.77961C3.81588 5.98796 5.50681 4.55748 7.49715 3.68712ZM17.104 2.31277C16.7245 2.14682 16.2823 2.31994 16.1163 2.69945C15.9504 3.07897 16.1235 3.52116 16.503 3.68712C18.4934 4.55748 20.1843 5.98796 21.3755 7.77961C21.6049 8.12454 22.0704 8.21824 22.4153 7.9889C22.7603 7.75957 22.854 7.29403 22.6246 6.9491C21.2756 4.92017 19.3607 3.29963 17.104 2.31277ZM18.9916 18.6678C20.2475 17.1205 21.0001 15.1481 21.0001 13C21.0001 8.02944 16.9707 4 12.0001 4C7.02956 4 3.00012 8.02944 3.00012 13C3.00012 15.1481 3.75269 17.1204 5.00856 18.6677L3.34594 21.6331C3.14337 21.9944 3.27204 22.4515 3.63334 22.6541C3.99464 22.8567 4.45175 22.728 4.65432 22.3667L6.09693 19.7937C7.67715 21.168 9.74147 22 12.0001 22C14.2587 22 16.323 21.168 17.9033 19.7938L19.346 22.3667C19.5485 22.728 20.0056 22.8567 20.3669 22.6541C20.7282 22.4515 20.8569 21.9944 20.6543 21.6331L18.9916 18.6678ZM15.7501 13C15.7501 13.4142 15.4143 13.75 15.0001 13.75H9.00012C8.58591 13.75 8.25012 13.4142 8.25012 13C8.25012 12.5858 8.58591 12.25 9.00012 12.25H15.0001C15.4143 12.25 15.7501 12.5858 15.7501 13Z" fill="#28303F"/>
</svg>
