<svg width="24" height="24" viewBox="0 0 24 24" fill="none" xmlns="http://www.w3.org/2000/svg">
<path fill-rule="evenodd" clip-rule="evenodd" d="M7.49715 2.68712C7.87667 2.52116 8.04979 2.07897 7.88383 1.69945C7.71787 1.31994 7.27568 1.14682 6.89617 1.31277C4.63941 2.29963 2.72454 3.92017 1.37553 5.9491C1.14619 6.29403 1.2399 6.75957 1.58482 6.98891C1.92975 7.21825 2.39529 7.12454 2.62463 6.77961C3.81588 4.98796 5.50681 3.55748 7.49715 2.68712ZM17.104 1.31277C16.7245 1.14682 16.2823 1.31994 16.1163 1.69945C15.9504 2.07897 16.1235 2.52116 16.503 2.68712C18.4934 3.55748 20.1843 4.98796 21.3755 6.77961C21.6049 7.12454 22.0704 7.21824 22.4153 6.9889C22.7603 6.75957 22.854 6.29403 22.6246 5.9491C21.2756 3.92017 19.3607 2.29963 17.104 1.31277ZM18.9918 18.6678C20.2477 17.1205 21.0002 15.1481 21.0002 13C21.0002 8.02944 16.9708 4 12.0002 4C7.02968 4 3.00024 8.02944 3.00024 13C3.00024 15.1481 3.75281 17.1204 5.00868 18.6677L3.34607 21.6331C3.14349 21.9944 3.27217 22.4515 3.63347 22.6541C3.99476 22.8567 4.45187 22.728 4.65445 22.3667L6.09705 19.7937C7.67727 21.168 9.7416 22 12.0002 22C14.2589 22 16.3232 21.168 17.9034 19.7938L19.3461 22.3667C19.5487 22.728 20.0058 22.8567 20.3671 22.6541C20.7284 22.4515 20.857 21.9944 20.6544 21.6331L18.9918 18.6678ZM15.4939 10.4356C15.8056 10.7083 15.8372 11.1822 15.5645 11.4939L12.6946 14.7738C12.0779 15.4786 11.0156 15.5729 10.2843 14.9879L8.53151 13.5857C8.20806 13.3269 8.15562 12.8549 8.41438 12.5315C8.67313 12.208 9.1451 12.1556 9.46855 12.4144L11.2214 13.8166C11.3258 13.9002 11.4776 13.8867 11.5657 13.786L14.4356 10.5061C14.7084 10.1944 15.1822 10.1628 15.4939 10.4356Z" fill="#28303F"/>
</svg>
