<svg width="24" height="24" viewBox="0 0 24 24" fill="none" xmlns="http://www.w3.org/2000/svg">
<path fill-rule="evenodd" clip-rule="evenodd" d="M7.49715 2.68712C7.87667 2.52116 8.04979 2.07897 7.88383 1.69945C7.71787 1.31994 7.27568 1.14682 6.89617 1.31277C4.63941 2.29963 2.72454 3.92017 1.37553 5.9491C1.14619 6.29403 1.2399 6.75957 1.58482 6.98891C1.92975 7.21825 2.39529 7.12454 2.62463 6.77961C3.81588 4.98796 5.50681 3.55748 7.49715 2.68712ZM17.104 1.31277C16.7245 1.14682 16.2823 1.31994 16.1163 1.69945C15.9504 2.07897 16.1235 2.52116 16.503 2.68712C18.4934 3.55748 20.1843 4.98796 21.3755 6.77961C21.6049 7.12454 22.0704 7.21824 22.4153 6.9889C22.7603 6.75957 22.854 6.29403 22.6246 5.9491C21.2756 3.92017 19.3607 2.29963 17.104 1.31277ZM18.9916 18.6678C20.2475 17.1205 21.0001 15.1481 21.0001 13C21.0001 8.02944 16.9707 4 12.0001 4C7.02956 4 3.00012 8.02944 3.00012 13C3.00012 15.1481 3.75269 17.1204 5.00856 18.6677L3.34594 21.6331C3.14337 21.9944 3.27204 22.4515 3.63334 22.6541C3.99464 22.8567 4.45175 22.728 4.65432 22.3667L6.09693 19.7937C7.67715 21.168 9.74147 22 12.0001 22C14.2587 22 16.323 21.168 17.9033 19.7938L19.346 22.3667C19.5485 22.728 20.0056 22.8567 20.3669 22.6541C20.7282 22.4515 20.8569 21.9944 20.6543 21.6331L18.9916 18.6678ZM14.6517 11.4089C14.9446 11.116 14.9446 10.6411 14.6517 10.3482C14.3588 10.0553 13.8839 10.0553 13.591 10.3482L11.9999 11.9393L10.409 10.3484C10.1161 10.0555 9.64127 10.0555 9.34838 10.3484C9.05548 10.6413 9.05548 11.1161 9.34838 11.409L10.9393 12.9999L9.34837 14.5908C9.05547 14.8837 9.05547 15.3586 9.34837 15.6515C9.64126 15.9444 10.1161 15.9444 10.409 15.6515L11.9999 14.0606L13.591 15.6517C13.8839 15.9446 14.3588 15.9446 14.6517 15.6517C14.9446 15.3588 14.9446 14.8839 14.6517 14.591L13.0606 12.9999L14.6517 11.4089Z" fill="#28303F"/>
</svg>
