<svg width="24" height="24" viewBox="0 0 24 24" fill="none" xmlns="http://www.w3.org/2000/svg">
<path fill-rule="evenodd" clip-rule="evenodd" d="M15.6023 5.25H8.39826C7.23581 3.67982 8.80193 1.48227 10.7473 2.10985L11.6751 2.40914C11.8863 2.47728 12.1142 2.47728 12.3254 2.40914L13.2532 2.10985C15.1986 1.48227 16.7647 3.67982 15.6023 5.25ZM8.50643 6.75H15.4941C16.8134 7.48048 17.8441 8.70013 18.316 10.2104L19.566 14.2104C20.7734 18.0739 17.887 22 13.8391 22H10.1614C6.11357 22 3.22716 18.0739 4.43453 14.2104L5.68453 10.2103C6.15648 8.70013 7.18715 7.48048 8.50643 6.75ZM9.75024 14.5C9.75024 14.4157 9.75403 14.3323 9.76146 14.25H12.0002C12.4145 14.25 12.7502 13.9142 12.7502 13.5C12.7502 13.0858 12.4145 12.75 12.0002 12.75H10.3788C10.8832 12.1392 11.6463 11.75 12.5002 11.75C13.2699 11.75 13.9646 12.0652 14.4646 12.5754C14.7545 12.8713 15.2293 12.8761 15.5252 12.5862C15.821 12.2963 15.8258 11.8214 15.5359 11.5256C14.7654 10.7393 13.6893 10.25 12.5002 10.25C10.7769 10.25 9.29311 11.2757 8.62611 12.75H8.00024C7.58603 12.75 7.25024 13.0858 7.25024 13.5C7.25024 13.9142 7.58603 14.25 8.00024 14.25H8.25747C8.25268 14.3327 8.25024 14.4161 8.25024 14.5C8.25024 14.5839 8.25268 14.6673 8.25747 14.75H8.00024C7.58603 14.75 7.25024 15.0858 7.25024 15.5C7.25024 15.9142 7.58603 16.25 8.00024 16.25H8.62611C9.29311 17.7243 10.7769 18.75 12.5002 18.75C13.6893 18.75 14.7654 18.2607 15.5359 17.4744C15.8258 17.1786 15.821 16.7037 15.5252 16.4138C15.2293 16.1239 14.7545 16.1287 14.4646 16.4246C13.9646 16.9348 13.2699 17.25 12.5002 17.25C11.6463 17.25 10.8832 16.8608 10.3788 16.25H12.0002C12.4145 16.25 12.7502 15.9142 12.7502 15.5C12.7502 15.0858 12.4145 14.75 12.0002 14.75H9.76146C9.75403 14.6677 9.75024 14.5843 9.75024 14.5Z" fill="#28303F"/>
</svg>
