<svg width="24" height="24" viewBox="0 0 24 24" fill="none" xmlns="http://www.w3.org/2000/svg">
<path fill-rule="evenodd" clip-rule="evenodd" d="M15.6023 5.25H8.39826C7.23581 3.67982 8.80193 1.48227 10.7473 2.10985L11.6751 2.40914C11.8863 2.47728 12.1142 2.47728 12.3254 2.40914L13.2532 2.10985C15.1986 1.48227 16.7647 3.67982 15.6023 5.25ZM8.50643 6.75H15.4941C16.8134 7.48048 17.8441 8.70013 18.316 10.2104L19.566 14.2104C20.7734 18.0739 17.887 22 13.8391 22H10.1614C6.11357 22 3.22716 18.0739 4.43453 14.2104L5.68453 10.2103C6.15648 8.70013 7.18715 7.48048 8.50643 6.75ZM12.0002 12C13.381 12 14.5002 13.1193 14.5002 14.5C14.5002 15.8807 13.381 17 12.0002 17C10.6195 17 9.50024 15.8807 9.50024 14.5C9.50024 13.1193 10.6195 12 12.0002 12Z" fill="#28303F"/>
</svg>
