<svg width="24" height="24" viewBox="0 0 24 24" fill="none" xmlns="http://www.w3.org/2000/svg">
<path fill-rule="evenodd" clip-rule="evenodd" d="M8.39826 5.25H15.6023C16.7647 3.67982 15.1986 1.48227 13.2532 2.10985L12.3254 2.40914C12.1142 2.47728 11.8863 2.47728 11.6751 2.40914L10.7473 2.10985C8.80193 1.48227 7.23581 3.67982 8.39826 5.25ZM15.4941 6.75H8.50643C7.18715 7.48048 6.15648 8.70013 5.68453 10.2103L4.43453 14.2104C3.22716 18.0739 6.11357 22 10.1614 22H11.1273C10.7319 21.4331 10.5 20.7436 10.5 20C10.5 19.2564 10.7319 18.5669 11.1273 18C10.7319 17.4331 10.5 16.7436 10.5 16C10.5 14.067 12.067 12.5 14 12.5H19.0315L18.316 10.2104C17.8441 8.70013 16.8134 7.48048 15.4941 6.75ZM14 14C12.8954 14 12 14.8954 12 16C12 17.1046 12.8954 18 14 18C12.8954 18 12 18.8954 12 20C12 21.1046 12.8954 22 14 22H20C21.1046 22 22 21.1046 22 20C22 18.8954 21.1046 18 20 18C21.1046 18 22 17.1046 22 16C22 14.8954 21.1046 14 20 14H19.3333H14Z" fill="#28303F"/>
</svg>
