<svg width="24" height="24" viewBox="0 0 24 24" fill="none" xmlns="http://www.w3.org/2000/svg">
<path fill-rule="evenodd" clip-rule="evenodd" d="M15.6023 5.25H8.39826C7.23581 3.67982 8.80193 1.48227 10.7473 2.10985L11.6751 2.40914C11.8863 2.47728 12.1142 2.47728 12.3254 2.40914L13.2532 2.10985C15.1986 1.48227 16.7647 3.67982 15.6023 5.25ZM8.50643 6.75H15.4941C16.8134 7.48048 17.8441 8.70013 18.316 10.2104L19.566 14.2104C20.7734 18.0739 17.887 22 13.8391 22H10.1614C6.11357 22 3.22716 18.0739 4.43453 14.2104L5.68453 10.2103C6.15648 8.70013 7.18715 7.48048 8.50643 6.75ZM10.6243 10.584C10.3945 10.2393 9.92887 10.1462 9.58422 10.376C9.23957 10.6057 9.14644 11.0714 9.37621 11.416L10.9322 13.75H10.0002C9.58603 13.75 9.25024 14.0858 9.25024 14.5C9.25024 14.9142 9.58603 15.25 10.0002 15.25H11.2502V15.75H10.0002C9.58603 15.75 9.25024 16.0858 9.25024 16.5C9.25024 16.9142 9.58603 17.25 10.0002 17.25H11.2502V19C11.2502 19.4142 11.586 19.75 12.0002 19.75C12.4145 19.75 12.7502 19.4142 12.7502 19V17.25H14.0002C14.4145 17.25 14.7502 16.9142 14.7502 16.5C14.7502 16.0858 14.4145 15.75 14.0002 15.75H12.7502V15.25H14.0002C14.4145 15.25 14.7502 14.9142 14.7502 14.5C14.7502 14.0858 14.4145 13.75 14.0002 13.75H13.0683L14.6243 11.416C14.854 11.0714 14.7609 10.6057 14.4163 10.376C14.0716 10.1462 13.606 10.2393 13.3762 10.584L12.0002 12.6479L10.6243 10.584Z" fill="#28303F"/>
</svg>
