<svg width="24" height="24" viewBox="0 0 24 24" fill="none" xmlns="http://www.w3.org/2000/svg">
<path fill-rule="evenodd" clip-rule="evenodd" d="M8.24973 5C8.24973 2.92893 9.92867 1.25 11.9997 1.25C14.0708 1.25 15.7497 2.92893 15.7497 5V6.00977C17.642 6.14174 19.1992 7.59586 19.4377 9.50386L20.4377 17.5039C20.7361 19.8913 18.8746 22 16.4686 22H7.53086C5.12487 22 3.26332 19.8913 3.56175 17.5039L4.56175 9.50386C4.80025 7.59586 6.35743 6.14174 8.24973 6.00977V5ZM14.2497 5V6H9.74973V5C9.74973 3.75736 10.7571 2.75 11.9997 2.75C13.2424 2.75 14.2497 3.75736 14.2497 5ZM15.3681 16.6533C15.7289 16.4499 15.8565 15.9925 15.6531 15.6317C15.4496 15.2708 14.9922 15.1433 14.6314 15.3467C13.4942 15.9879 12.7189 16.2486 11.9997 16.25C11.2819 16.2514 10.5068 15.9945 9.3706 15.3481C9.01057 15.1433 8.55267 15.2691 8.34786 15.6292C8.14304 15.9892 8.26887 16.4471 8.62891 16.6519C9.84886 17.3459 10.8976 17.7521 12.0026 17.75C13.1063 17.7479 14.1529 17.3384 15.3681 16.6533Z" fill="#28303F"/>
</svg>
