<svg width="24" height="24" viewBox="0 0 24 24" fill="none" xmlns="http://www.w3.org/2000/svg">
<path fill-rule="evenodd" clip-rule="evenodd" d="M11.9997 1.25C9.92867 1.25 8.24973 2.92893 8.24973 5V6.00977C6.35743 6.14174 4.80025 7.59586 4.56175 9.50386L3.56175 17.5039C3.26332 19.8913 5.12487 22 7.53086 22H16.4686C18.8746 22 20.7361 19.8913 20.4377 17.5039L19.4377 9.50386C19.1992 7.59586 17.642 6.14174 15.7497 6.00977V5C15.7497 2.92893 14.0708 1.25 11.9997 1.25ZM14.2497 6V5C14.2497 3.75736 13.2424 2.75 11.9997 2.75C10.7571 2.75 9.74973 3.75736 9.74973 5V6H14.2497ZM8.24976 14C8.24976 13.5858 8.58554 13.25 8.99976 13.25H11.2498V11C11.2498 10.5858 11.5855 10.25 11.9998 10.25C12.414 10.25 12.7498 10.5858 12.7498 11V13.25H14.9998C15.414 13.25 15.7498 13.5858 15.7498 14C15.7498 14.4142 15.414 14.75 14.9998 14.75H12.7498V17C12.7498 17.4142 12.414 17.75 11.9998 17.75C11.5855 17.75 11.2498 17.4142 11.2498 17V14.75H8.99976C8.58554 14.75 8.24976 14.4142 8.24976 14Z" fill="#28303F"/>
</svg>
