<svg width="24" height="24" viewBox="0 0 24 24" fill="none" xmlns="http://www.w3.org/2000/svg">
<path fill-rule="evenodd" clip-rule="evenodd" d="M8.24973 5C8.24973 2.92893 9.92867 1.25 11.9997 1.25C14.0708 1.25 15.7497 2.92893 15.7497 5V6.00977C17.642 6.14174 19.1992 7.59586 19.4377 9.50386L20.4377 17.5039C20.7361 19.8913 18.8746 22 16.4686 22H7.53086C5.12487 22 3.26332 19.8913 3.56175 17.5039L4.56175 9.50386C4.80025 7.59586 6.35743 6.14174 8.24973 6.00977V5ZM14.2497 5V6H9.74973V5C9.74973 3.75736 10.7571 2.75 11.9997 2.75C13.2424 2.75 14.2497 3.75736 14.2497 5ZM11.9998 11.9999L12.2649 11.7347C12.9972 11.0025 14.1843 11.0025 14.9166 11.7347C15.6488 12.467 15.6488 13.6542 14.9166 14.3864L13.0604 16.2425C12.4746 16.8283 11.5249 16.8283 10.9391 16.2425L9.08294 14.3864C8.35071 13.6542 8.35071 12.467 9.08294 11.7347C9.81517 11.0025 11.0024 11.0025 11.7346 11.7347L11.9998 11.9999Z" fill="#28303F"/>
</svg>
