<svg width="24" height="24" viewBox="0 0 24 24" fill="none" xmlns="http://www.w3.org/2000/svg">
<path fill-rule="evenodd" clip-rule="evenodd" d="M8.24973 5C8.24973 2.92893 9.92867 1.25 11.9997 1.25C14.0708 1.25 15.7497 2.92893 15.7497 5V6.00977C17.642 6.14174 19.1992 7.59586 19.4377 9.50386L20.4377 17.5039C20.7361 19.8913 18.8746 22 16.4686 22H7.53086C5.12487 22 3.26332 19.8913 3.56175 17.5039L4.56175 9.50386C4.80025 7.59586 6.35743 6.14174 8.24973 6.00977V5ZM14.2497 5V6H9.74973V5C9.74973 3.75736 10.7571 2.75 11.9997 2.75C13.2424 2.75 14.2497 3.75736 14.2497 5ZM15.5642 12.4939C15.837 12.1822 15.8054 11.7083 15.4936 11.4356C15.1819 11.1628 14.7081 11.1944 14.4353 11.5061L11.5654 14.786C11.4773 14.8867 11.3256 14.9002 11.2211 14.8166L9.46828 13.4143C9.14483 13.1556 8.67286 13.208 8.4141 13.5315C8.15535 13.8549 8.20779 14.3269 8.53123 14.5857L10.2841 15.9879C11.0153 16.5729 12.0776 16.4786 12.6943 15.7738L15.5642 12.4939Z" fill="#28303F"/>
</svg>
