<svg width="24" height="24" viewBox="0 0 24 24" fill="none" xmlns="http://www.w3.org/2000/svg">
<path fill-rule="evenodd" clip-rule="evenodd" d="M12.0002 1.625C9.92915 1.625 8.25022 3.30393 8.25022 5.375V6.38477C6.35792 6.51674 4.80074 7.97086 4.56224 9.87886L3.56224 17.8789C3.26381 20.2663 5.12536 22.375 7.53135 22.375H16.4691C18.8751 22.375 20.7366 20.2663 20.4382 17.8789L19.4382 9.87886C19.1997 7.97086 17.6425 6.51674 15.7502 6.38477V5.375C15.7502 3.30393 14.0713 1.625 12.0002 1.625ZM14.2502 6.375V5.375C14.2502 4.13236 13.2429 3.125 12.0002 3.125C10.7576 3.125 9.75022 4.13236 9.75022 5.375V6.375H14.2502Z" fill="#28303F"/>
</svg>
