<svg width="24" height="24" viewBox="0 0 24 24" fill="none" xmlns="http://www.w3.org/2000/svg">
<path fill-rule="evenodd" clip-rule="evenodd" d="M15.6113 3H8.38836C6.433 3 4.76424 4.41365 4.44278 6.3424L2.77612 16.3424C2.36976 18.7805 4.24994 21 6.72169 21H11.9999C12.5521 21 12.9999 20.5523 12.9999 20V17C12.9999 14.7909 14.7907 13 16.9998 13H19.4861C20.104 13 20.574 12.4451 20.4725 11.8356L19.5569 6.3424C19.2355 4.41365 17.5667 3 15.6113 3ZM15.7498 7C15.7498 9.07107 14.0708 10.75 11.9998 10.75C9.92869 10.75 8.24976 9.07107 8.24976 7V6C8.24976 5.58579 8.58554 5.25 8.99976 5.25C9.41397 5.25 9.74976 5.58579 9.74976 6V7C9.74976 8.24264 10.7571 9.25 11.9998 9.25C13.2424 9.25 14.2498 8.24264 14.2498 7V6C14.2498 5.58579 14.5855 5.25 14.9998 5.25C15.414 5.25 15.7498 5.58579 15.7498 6V7ZM20.6514 16.409C20.9443 16.1161 20.9443 15.6412 20.6514 15.3483C20.3585 15.0554 19.8836 15.0554 19.5907 15.3483L17.9997 16.9393L16.4087 15.3484C16.1159 15.0555 15.641 15.0555 15.3481 15.3484C15.0552 15.6413 15.0552 16.1161 15.3481 16.409L16.9391 18L15.3481 19.591C15.0552 19.8839 15.0552 20.3587 15.3481 20.6516C15.641 20.9445 16.1159 20.9445 16.4087 20.6516L17.9997 19.0607L19.5907 20.6517C19.8836 20.9446 20.3585 20.9446 20.6514 20.6517C20.9443 20.3588 20.9443 19.8839 20.6514 19.591L19.0604 18L20.6514 16.409Z" fill="#28303F"/>
</svg>
