<svg width="24" height="25" viewBox="0 0 24 25" fill="none" xmlns="http://www.w3.org/2000/svg">
<path d="M16.3127 6L14.4002 3.45004C14.1517 3.11867 14.2189 2.64857 14.5502 2.40004C14.8816 2.15152 15.3517 2.21867 15.6002 2.55004L18.1958 6.01078C20.0505 6.14567 21.5006 7.53009 21.8295 9.25H2.1709C2.49986 7.53007 3.94999 6.14564 5.80469 6.01078L8.40024 2.55004C8.64877 2.21867 9.11887 2.15152 9.45024 2.40004C9.78161 2.64857 9.84877 3.11867 9.60024 3.45004L7.68777 6H16.3127Z" fill="#28303F"/>
<path fill-rule="evenodd" clip-rule="evenodd" d="M2.17331 10.75H21.8271C21.814 10.8182 21.7991 10.8865 21.7823 10.9548L19.8158 18.9548C19.3762 20.7429 17.7728 22 15.9314 22H8.06907C6.22772 22 4.62426 20.743 4.18471 18.9548L2.21818 10.9548C2.20137 10.8865 2.18643 10.8182 2.17331 10.75ZM15.5644 14.4939C15.8372 14.1822 15.8056 13.7083 15.4939 13.4356C15.1822 13.1628 14.7083 13.1944 14.4356 13.5061L11.5657 16.786C11.4776 16.8867 11.3258 16.9002 11.2213 16.8166L9.46852 15.4143C9.14507 15.1556 8.67311 15.208 8.41435 15.5315C8.15559 15.8549 8.20803 16.3269 8.53148 16.5857L10.2843 17.9879C11.0156 18.5729 12.0778 18.4786 12.6945 17.7738L15.5644 14.4939Z" fill="#28303F"/>
</svg>
