<svg width="24" height="24" viewBox="0 0 24 24" fill="none" xmlns="http://www.w3.org/2000/svg">
<path fill-rule="evenodd" clip-rule="evenodd" d="M7.23146 2H16.7689C18.5863 2 20.2206 3.24475 20.8955 5.14305L21.6535 7.27487C21.8829 7.92019 22.0415 8.61074 21.8742 9.27488C21.4778 10.8478 20.192 12 18.6669 12C16.8259 12 15.3335 10.3211 15.3335 8.25C15.3335 10.3211 13.8412 12 12.0002 12C10.1593 12 8.66687 10.3211 8.66687 8.25C8.66687 10.3211 7.17449 12 5.33354 12C3.80844 12 2.52257 10.8478 2.12622 9.27488C1.95887 8.61074 2.11747 7.92019 2.34692 7.27487L3.1049 5.14305C3.77985 3.24476 5.41411 2 7.23146 2ZM4.00021 13.3005V17.9999C4.00021 20.2091 5.79107 21.9999 8.00021 21.9999H9.00021V20C9.00021 18.3431 10.3434 17 12.0002 17C13.6571 17 15.0002 18.3431 15.0002 20V21.9999H16.0002C18.2093 21.9999 20.0002 20.2091 20.0002 17.9999V13.3005C19.5814 13.4298 19.135 13.4999 18.6669 13.4999C17.3298 13.4999 16.1774 12.9373 15.3336 12.0559C14.4898 12.9373 13.3374 13.4999 12.0003 13.4999C10.6632 13.4999 9.51076 12.9373 8.66695 12.0559C7.82313 12.9373 6.67073 13.4999 5.33361 13.4999C4.86548 13.4999 4.41907 13.4297 4.00021 13.3005Z" fill="#28303F"/>
</svg>
