<svg width="24" height="24" viewBox="0 0 24 24" fill="none" xmlns="http://www.w3.org/2000/svg">
<path fill-rule="evenodd" clip-rule="evenodd" d="M8.27102 7.14585C8.00858 6.18188 8.58983 5.19104 9.56927 4.93275L16.663 3.06202C17.6424 2.80373 18.6492 3.37579 18.9116 4.33975L20.8124 11.3214C21.0748 12.2854 20.4936 13.2762 19.5141 13.5345L12.4204 15.4052C11.441 15.6635 10.4342 15.0915 10.1718 14.1275L8.27102 7.14585ZM15.4408 6.19034C15.5464 6.59086 15.3073 7.00117 14.9068 7.1068L13.1334 7.57448C12.7329 7.6801 12.3226 7.44104 12.2169 7.04052C12.1113 6.64 12.3504 6.22969 12.7509 6.12407L14.5243 5.65639C14.9248 5.55076 15.3352 5.78982 15.4408 6.19034ZM5.85814 5.90106C5.48337 4.53276 4.06273 3.73845 2.69565 4.09897L1.80894 4.33281C1.40842 4.43843 1.16935 4.84874 1.27498 5.24927C1.3806 5.64979 1.79091 5.88885 2.19143 5.78322L3.07815 5.54938C3.66867 5.39365 4.26014 5.74164 4.41186 6.29892L7.64047 17.716C7.02996 18.1402 6.72134 18.9085 6.92605 19.6604C7.18849 20.6243 8.19523 21.1964 9.17467 20.9381C9.83616 20.7637 10.316 20.2551 10.477 19.6463L22.1999 16.4078C22.5992 16.2975 22.8334 15.8844 22.7231 15.4852C22.6128 15.0859 22.1997 14.8517 21.8005 14.962L10.2096 18.164C9.94967 17.7945 9.5585 17.5351 9.11933 17.4332L5.85814 5.90106Z" fill="#28303F"/>
</svg>
