<svg width="24" height="24" viewBox="0 0 24 24" fill="none" xmlns="http://www.w3.org/2000/svg">
<rect x="2" y="6" width="20" height="16" rx="4" stroke="#28303F" stroke-width="1.5"/>
<path d="M8 6V5C8 3.34315 9.34315 2 11 2H13C14.6569 2 16 3.34315 16 5V6" stroke="#28303F" stroke-width="1.5" stroke-linecap="round"/>
<path d="M2 11C2 11 8.09476 15 12 15C15.9052 15 22 11 22 11" stroke="#28303F" stroke-width="1.5" stroke-linecap="round"/>
<path d="M14 15C14 16.1046 13.1046 17 12 17C10.8954 17 10 16.1046 10 15C10 13.8954 10.8954 13 12 13C13.1046 13 14 13.8954 14 15Z" fill="#28303F"/>
</svg>
