<svg width="24" height="24" viewBox="0 0 24 24" fill="none" xmlns="http://www.w3.org/2000/svg">
<path d="M18 15H12V7H18M18 15C19.1046 15 20 14.1046 20 13V9C20 7.89543 19.1046 7 18 7M18 15V20C18 21.1046 17.1046 22 16 22H8C6.89543 22 6 21.1046 6 20V4C6 2.89543 6.89543 2 8 2H16C17.1046 2 18 2.89543 18 4V7" stroke="#28303F" stroke-width="1.5" stroke-linejoin="round"/>
<path d="M13 19C13 19.5523 12.5523 20 12 20C11.4477 20 11 19.5523 11 19C11 18.4477 11.4477 18 12 18C12.5523 18 13 18.4477 13 19Z" fill="#28303F"/>
<path d="M20 10L12 10" stroke="#28303F" stroke-width="1.5" stroke-linecap="round" stroke-linejoin="round"/>
</svg>
