<svg width="24" height="24" viewBox="0 0 24 24" fill="none" xmlns="http://www.w3.org/2000/svg">
<path d="M14 20H6C3.79086 20 2 18.2091 2 16V8C2 5.79086 3.79086 4 6 4H18C20.2091 4 22 5.79086 22 8V12.5" stroke="#28303F" stroke-width="1.5" stroke-linecap="round"/>
<circle cx="1" cy="1" r="1" transform="matrix(1 0 0 -1 5 9)" fill="#28303F"/>
<circle cx="2" cy="2" r="2" transform="matrix(1 0 0 -1 10 14)" stroke="#28303F" stroke-width="1.5"/>
<path d="M19.2211 15.7791L19.0001 16L18.7792 15.7791C18.169 15.1689 17.1797 15.1689 16.5695 15.7791C15.9593 16.3893 15.9593 17.3786 16.5695 17.9888L18.1163 19.5356C18.6044 20.0237 19.3959 20.0237 19.884 19.5356L21.4308 17.9888C22.041 17.3786 22.041 16.3893 21.4308 15.7791C20.8206 15.1689 19.8313 15.1689 19.2211 15.7791Z" stroke="#28303F" stroke-width="1.5" stroke-linejoin="round"/>
</svg>
