<svg width="24" height="24" viewBox="0 0 24 24" fill="none" xmlns="http://www.w3.org/2000/svg">
<path d="M17.5858 21L16.2929 19.7071C15.9024 19.3166 15.9024 18.6834 16.2929 18.2929L17.5858 17M22 19L16.5858 19" stroke="#28303F" stroke-width="1.5" stroke-linecap="round"/>
<path d="M8 12C8 10.3431 6.65685 9 5 9H2V15H5C6.65685 15 8 13.6569 8 12V12Z" stroke="#28303F" stroke-width="1.5" stroke-linejoin="round"/>
<path d="M13 21H6C3.79086 21 2 19.2091 2 17V7C2 4.79086 3.79086 3 6 3H18C20.2091 3 22 4.79086 22 7V14" stroke="#28303F" stroke-width="1.5" stroke-linecap="round" stroke-linejoin="round"/>
</svg>
