<svg width="24" height="24" viewBox="0 0 24 24" fill="none" xmlns="http://www.w3.org/2000/svg">
<path d="M13.5 6C14.3284 6 15 5.32843 15 4.5C15 3.67157 14.3284 3 13.5 3C12.6716 3 12 3.67157 12 4.5C12 5.32843 12.6716 6 13.5 6ZM13.5 6H19.5M19.5 6C20.3284 6 21 5.32843 21 4.5C21 3.67157 20.3284 3 19.5 3C18.6716 3 18 3.67157 18 4.5C18 5.32843 18.6716 6 19.5 6ZM21 17.3541V19C21 20.1046 20.1046 21 19 21C10.1634 21 3 13.8366 3 5C3 3.89543 3.89543 3 5 3H6.64593C7.46374 3 8.19916 3.4979 8.50289 4.25722L9.31654 6.29136C9.70285 7.25714 9.28438 8.35781 8.35402 8.82299L8 9C8 9 8.5 11.5 10.5 13.5C12.5 15.5 15 16 15 16L15.177 15.646C15.6422 14.7156 16.7429 14.2971 17.7086 14.6835L19.7428 15.4971C20.5021 15.8008 21 16.5363 21 17.3541Z" stroke="#28303F" stroke-width="1.5" stroke-linejoin="round"/>
</svg>
