<svg width="24" height="24" viewBox="0 0 24 24" fill="none" xmlns="http://www.w3.org/2000/svg">
<path d="M6.80273 12.2893L9.00273 13.9393C10.0694 14.7393 11.5361 14.7393 12.6027 13.9393L14.8027 12.2893M12.4876 7.28931H5.80273C4.14588 7.28931 2.80273 8.63245 2.80273 10.2893V18.2893C2.80273 19.9462 4.14588 21.2893 5.80273 21.2893H15.8027C17.4596 21.2893 18.8027 19.9462 18.8027 18.2893V10.2893C18.8027 10.0495 18.8027 9.85516 18.8027 9.85516" stroke="#28303F" stroke-width="1.5" stroke-linecap="round" stroke-linejoin="round"/>
<path d="M17.2092 5.00854C17.2092 4.59433 16.8734 4.25854 16.4592 4.25854C16.045 4.25854 15.7092 4.59433 15.7092 5.00854H17.2092ZM16.4592 6.50854H15.7092C15.7092 6.92276 16.045 7.25854 16.4592 7.25854V6.50854ZM17.9592 7.25854C18.3734 7.25854 18.7092 6.92276 18.7092 6.50854C18.7092 6.09433 18.3734 5.75854 17.9592 5.75854V7.25854ZM19.7092 6.50854C19.7092 8.30347 18.2542 9.75854 16.4592 9.75854V11.2585C19.0826 11.2585 21.2092 9.1319 21.2092 6.50854H19.7092ZM16.4592 9.75854C14.6643 9.75854 13.2092 8.30347 13.2092 6.50854H11.7092C11.7092 9.1319 13.8359 11.2585 16.4592 11.2585V9.75854ZM13.2092 6.50854C13.2092 4.71362 14.6643 3.25854 16.4592 3.25854V1.75854C13.8359 1.75854 11.7092 3.88519 11.7092 6.50854H13.2092ZM16.4592 3.25854C18.2542 3.25854 19.7092 4.71362 19.7092 6.50854H21.2092C21.2092 3.88519 19.0826 1.75854 16.4592 1.75854V3.25854ZM15.7092 5.00854V6.50854H17.2092V5.00854H15.7092ZM16.4592 7.25854H17.9592V5.75854H16.4592V7.25854Z" fill="#28303F"/>
</svg>
