<svg width="507" height="100" viewBox="0 0 507 100" fill="none" xmlns="http://www.w3.org/2000/svg">
<path d="M19.3477 43.0715H63.1073V59.4327H19.3477V43.0715ZM20.9059 80.4685H70.3789V97.349H0V6.45372H68.6909V23.3343H20.9059V80.4685Z" fill="#101316"/>
<path d="M85.6881 97.349V1H105.945V97.349H85.6881Z" fill="#101316"/>
<path d="M159.415 98.3878C151.451 98.3878 144.439 96.8296 138.379 93.7132C132.406 90.5968 127.775 86.355 124.485 80.9879C121.195 75.5342 119.551 69.3446 119.551 62.4193C119.551 55.4073 121.152 49.2178 124.355 43.8506C127.645 38.3969 132.103 34.1551 137.73 31.1253C143.357 28.0089 149.719 26.4507 156.818 26.4507C163.657 26.4507 169.803 27.9223 175.257 30.8656C180.797 33.7223 185.168 37.8775 188.371 43.3312C191.574 48.6984 193.176 55.1476 193.176 62.679C193.176 63.4581 193.133 64.367 193.046 65.4058C192.959 66.3581 192.873 67.267 192.786 68.1327H89.8555V56.3163H182.139L174.348 59.8223C174.348 56.1864 173.612 53.0267 172.14 50.3432C170.668 47.6596 168.634 45.582 166.037 44.1103C163.44 42.5521 160.41 41.773 156.948 41.773C153.485 41.773 150.412 42.5521 147.728 44.1103C145.131 45.582 143.097 47.7029 141.625 50.473C140.154 53.1566 139.418 56.3596 139.418 60.082V63.1984C139.418 67.0073 140.24 70.3834 141.885 73.3267C143.616 76.1834 145.997 78.3909 149.027 79.9491C152.143 81.4207 155.779 82.1565 159.934 82.1565C163.657 82.1565 166.903 81.5938 169.673 80.4685C172.53 79.3431 175.127 77.655 177.464 75.4043L188.242 87.0908C185.039 90.7267 181.013 93.5401 176.165 95.5311C171.318 97.4356 165.734 98.3878 159.415 98.3878Z" fill="#101316"/>
<path d="M240.423 98.3878C232.892 98.3878 226.183 96.8729 220.296 93.8431C214.41 90.7267 209.778 86.4416 206.402 80.9879C203.113 75.5342 201.468 69.3446 201.468 62.4193C201.468 55.4073 203.113 49.2178 206.402 43.8506C209.778 38.3969 214.41 34.1551 220.296 31.1253C226.183 28.0089 232.892 26.4507 240.423 26.4507C247.781 26.4507 254.187 28.0089 259.641 31.1253C265.095 34.1551 269.12 38.5268 271.717 44.2402L256.005 52.6805C254.187 49.3909 251.893 46.9671 249.123 45.4089C246.44 43.8506 243.496 43.0715 240.293 43.0715C236.831 43.0715 233.714 43.8506 230.944 45.4089C228.174 46.9671 225.966 49.1745 224.322 52.0312C222.763 54.8879 221.984 58.3506 221.984 62.4193C221.984 66.4879 222.763 69.9506 224.322 72.8073C225.966 75.664 228.174 77.8715 230.944 79.4297C233.714 80.9879 236.831 81.767 240.293 81.767C243.496 81.767 246.44 81.0312 249.123 79.5595C251.893 78.0013 254.187 75.5342 256.005 72.158L271.717 80.7282C269.12 86.355 265.095 90.7267 259.641 93.8431C254.187 96.8729 247.781 98.3878 240.423 98.3878Z" fill="#101316"/>
<path d="M312.962 98.3878C304.738 98.3878 298.332 96.3102 293.744 92.155C289.156 87.9132 286.862 81.6371 286.862 73.3267V1H307.119V73.067C307.119 76.0103 307.898 78.3043 309.456 79.9491C311.014 81.5073 313.135 82.2864 315.819 82.2864C319.022 82.2864 321.748 81.4207 323.999 79.6894L329.453 93.9729C327.375 95.4445 324.865 96.5699 321.922 97.349C319.065 98.0416 316.078 98.3878 312.962 98.3878ZM276.084 44.6297V29.0477H324.519V44.6297H276.084Z" fill="#101316"/>
<path d="M340.824 97.349V27.4895H360.172V47.2268L357.445 41.5133C359.522 36.579 362.855 32.8566 367.443 30.3462C372.031 27.7492 377.615 26.4507 384.194 26.4507V45.1492C383.328 45.0626 382.549 45.0193 381.857 45.0193C381.164 44.9327 380.428 44.8895 379.649 44.8895C374.109 44.8895 369.607 46.4909 366.145 49.6939C362.769 52.8103 361.081 57.7014 361.081 64.367V97.349H340.824Z" fill="#101316"/>
<path d="M428.973 98.3878C421.528 98.3878 414.906 96.8296 409.106 93.7132C403.393 90.5968 398.848 86.355 395.472 80.9879C392.182 75.5342 390.537 69.3446 390.537 62.4193C390.537 55.4073 392.182 49.2178 395.472 43.8506C398.848 38.3969 403.393 34.1551 409.106 31.1253C414.906 28.0089 421.528 26.4507 428.973 26.4507C436.331 26.4507 442.91 28.0089 448.71 31.1253C454.51 34.1551 459.055 38.3536 462.345 43.7208C465.634 49.0879 467.279 55.3208 467.279 62.4193C467.279 69.3446 465.634 75.5342 462.345 80.9879C459.055 86.355 454.51 90.5968 448.71 93.7132C442.91 96.8296 436.331 98.3878 428.973 98.3878ZM428.973 81.767C432.349 81.767 435.379 80.9879 438.063 79.4297C440.746 77.8715 442.867 75.664 444.425 72.8073C445.983 69.864 446.763 66.4013 446.763 62.4193C446.763 58.3506 445.983 54.8879 444.425 52.0312C442.867 49.1745 440.746 46.9671 438.063 45.4089C435.379 43.8506 432.349 43.0715 428.973 43.0715C425.597 43.0715 422.567 43.8506 419.884 45.4089C417.2 46.9671 415.036 49.1745 413.391 52.0312C411.833 54.8879 411.054 58.3506 411.054 62.4193C411.054 66.4013 411.833 69.864 413.391 72.8073C415.036 75.664 417.2 77.8715 419.884 79.4297C422.567 80.9879 425.597 81.767 428.973 81.767Z" fill="#101316"/>
<path d="M491.606 98.9727C488.615 98.9727 485.953 98.3399 483.623 97.0742C481.327 95.8085 479.5 94.0857 478.144 91.9059C476.822 89.691 476.161 87.1772 476.161 84.3645C476.161 81.5167 476.822 79.0029 478.144 76.8231C479.5 74.6082 481.327 72.8854 483.623 71.6549C485.953 70.3892 488.615 69.7564 491.606 69.7564C494.563 69.7564 497.207 70.3892 499.538 71.6549C501.869 72.8854 503.695 74.5906 505.017 76.7704C506.339 78.9502 507 81.4816 507 84.3645C507 87.1772 506.339 89.691 505.017 91.9059C503.695 94.0857 501.869 95.8085 499.538 97.0742C497.207 98.3399 494.563 98.9727 491.606 98.9727ZM491.606 92.2224C492.963 92.2224 494.181 91.9059 495.259 91.2731C496.338 90.6403 497.19 89.7437 497.816 88.5835C498.442 87.3881 498.755 85.9818 498.755 84.3645C498.755 82.7121 498.442 81.3058 497.816 80.1456C497.19 78.9854 496.338 78.0888 495.259 77.456C494.181 76.8231 492.963 76.5067 491.606 76.5067C490.25 76.5067 489.032 76.8231 487.954 77.456C486.875 78.0888 486.006 78.9854 485.345 80.1456C484.718 81.3058 484.405 82.7121 484.405 84.3645C484.405 85.9818 484.718 87.3881 485.345 88.5835C486.006 89.7437 486.875 90.6403 487.954 91.2731C489.032 91.9059 490.25 92.2224 491.606 92.2224Z" fill="#1C4E8E"/>
</svg>
