<svg width="24" height="24" viewBox="0 0 24 24" fill="none" xmlns="http://www.w3.org/2000/svg">
<path d="M12 5V3" stroke="#28303F" stroke-width="1.5" stroke-linecap="round"/>
<path d="M12 21V19" stroke="#28303F" stroke-width="1.5" stroke-linecap="round"/>
<path d="M19 12L21 12" stroke="#28303F" stroke-width="1.5" stroke-linecap="round"/>
<path d="M3 12L5 12" stroke="#28303F" stroke-width="1.5" stroke-linecap="round"/>
<path d="M3 3L21 21" stroke="#28303F" stroke-width="1.5" stroke-linecap="round"/>
<path d="M9.47085 5.47085C10.2553 5.16678 11.1082 5 12 5C15.866 5 19 8.13401 19 12C19 12.8918 18.8332 13.7447 18.5291 14.5291M7.05025 7.05025C5.7835 8.317 5 10.067 5 12C5 15.866 8.13401 19 12 19C13.933 19 15.683 18.2165 16.9497 16.9497" stroke="#28303F" stroke-width="1.5" stroke-linecap="round"/>
<path d="M14.1213 14.1213C13.5784 14.6642 12.8284 15 12 15C10.3431 15 9 13.6568 9 12C9 11.1716 9.33579 10.4216 9.87868 9.87866" stroke="#28303F" stroke-width="1.5"/>
</svg>
