<svg width="24" height="24" viewBox="0 0 24 24" fill="none" xmlns="http://www.w3.org/2000/svg">
<path d="M3 2.75L21 20.75" stroke="#28303F" stroke-width="1.5" stroke-linecap="round"/>
<path d="M19.9175 15.6675C20.0918 15.0861 20.0001 14.4163 19.5445 13.88C19.0575 13.3069 18.7509 12.595 18.6652 11.8385L18.3204 8.79403C17.9462 5.49085 15.2291 3 12 3C10.6705 3 9.42776 3.42226 8.39962 4.14962M6.50209 6.25209C6.07165 7.01157 5.78419 7.8711 5.67964 8.79403L5.33476 11.8385C5.24906 12.595 4.94246 13.3069 4.45549 13.88C3.42209 15.0964 4.26081 17 5.83014 17H17.25" stroke="#28303F" stroke-width="1.5" stroke-linecap="round" stroke-linejoin="round"/>
<path d="M15 19C14.5633 20.1652 13.385 21 12 21C10.615 21 9.43668 20.1652 9 19" stroke="#28303F" stroke-width="1.5" stroke-linecap="round"/>
</svg>
