<svg width="24" height="24" viewBox="0 0 24 24" fill="none" xmlns="http://www.w3.org/2000/svg">
<path d="M13 8L10 12H14L11 16" stroke="#28303F" stroke-width="1.5" stroke-linecap="round" stroke-linejoin="round"/>
<path d="M4.92893 4.92896C3.11929 6.7386 2 9.2386 2 12C2 14.7614 3.11929 17.2614 4.92893 19.0711M7.75736 7.75738C6.67157 8.84317 6 10.3432 6 12C6 13.6569 6.67157 15.1569 7.75736 16.2427M19.0711 19.0711C20.8807 17.2614 22 14.7614 22 12C22 9.2386 20.8807 6.7386 19.0711 4.92896M16.2426 16.2427C17.3284 15.1569 18 13.6569 18 12C18 10.3432 17.3284 8.84317 16.2426 7.75738" stroke="#28303F" stroke-width="1.5" stroke-linecap="round" stroke-linejoin="round"/>
</svg>
