<svg width="24" height="24" viewBox="0 0 24 24" fill="none" xmlns="http://www.w3.org/2000/svg">
<path d="M21.0982 15.567C21.1608 15.5207 21.2208 15.4758 21.2778 15.4326C21.7446 15.0796 22 14.5229 22 13.9377V4.26833C22 3.41488 20.9721 2.91997 20.2637 3.396C19.2635 4.06813 17.9669 4.81559 16.75 5.14348V10.0473C19.2252 10.6846 21.0983 12.8615 21.0983 15.5263C21.0983 15.5398 21.0983 15.5534 21.0982 15.567Z" fill="#28303F"/>
<path d="M9.42975 14.9688C9.2119 14.9093 8.98593 14.8677 8.75 14.848V2.08765C10.0281 2.19443 11.014 2.94447 12 3.69452C12.9859 4.44456 13.9719 5.19461 15.25 5.30139V9.85791C12.2984 9.85793 9.79283 11.9962 9.44281 14.852C9.43804 14.8908 9.43369 14.9298 9.42975 14.9688Z" fill="#28303F"/>
<path d="M2.72215 4.71686C3.71116 3.96905 5.55765 2.7016 7.25 2.24561V15.006C6.03308 15.3339 4.73646 16.0813 3.73627 16.7534C3.0279 17.2295 2 16.7346 2 15.8811V6.2117C2 5.62651 2.25537 5.0698 2.72215 4.71686Z" fill="#28303F"/>
<path fill-rule="evenodd" clip-rule="evenodd" d="M19.3378 17.6137C19.5986 16.8706 19.7484 16.1414 19.7484 15.526C19.7484 13.1408 17.7342 11.2073 15.2497 11.2073C12.9449 11.2073 11.0449 12.8712 10.782 15.0159C10.7615 15.1832 10.751 15.3534 10.751 15.526C10.751 17.9112 13.0003 22.0041 15.2497 22.0041C16.9186 22.0041 18.5876 19.7508 19.3378 17.6137ZM15.2497 16.6055C15.9951 16.6055 16.5993 16.0013 16.5993 15.2559C16.5993 14.5105 15.9951 13.9063 15.2497 13.9063C14.5043 13.9063 13.9001 14.5105 13.9001 15.2559C13.9001 16.0013 14.5043 16.6055 15.2497 16.6055Z" fill="#28303F"/>
</svg>
