<svg width="24" height="24" viewBox="0 0 24 24" fill="none" xmlns="http://www.w3.org/2000/svg">
<path fill-rule="evenodd" clip-rule="evenodd" d="M8.50771 16.2343C5.27167 16.6888 3 17.756 3 19C3 20.6569 7.02944 22 12 22C16.9706 22 21 20.6569 21 19C21 17.756 18.7283 16.6888 15.4923 16.2343C15.3718 18.058 13.8543 19.5 12 19.5C10.1457 19.5 8.62822 18.058 8.50771 16.2343Z" fill="#28303F"/>
<path fill-rule="evenodd" clip-rule="evenodd" d="M12 6C13.1046 6 14 5.10457 14 4C14 2.89543 13.1046 2 12 2C10.8954 2 10 2.89543 10 4C10 5.10457 10.8954 6 12 6ZM12 6C9.79086 6 8 7.79086 8 10V11C8 11.5523 8.44772 12 9 12C9.55228 12 10 12.4477 10 13V16C10 17.1046 10.8954 18 12 18C13.1046 18 14 17.1046 14 16V13C14 12.4477 14.4477 12 15 12C15.5523 12 16 11.5523 16 11V10C16 7.79086 14.2091 6 12 6Z" fill="#28303F"/>
</svg>
