<svg width="24" height="24" viewBox="0 0 24 24" fill="none" xmlns="http://www.w3.org/2000/svg">
<path fill-rule="evenodd" clip-rule="evenodd" d="M8.50034 16H7.87384C6.68672 16 5.56093 16.5273 4.80096 17.4393L3.73398 18.7196C2.64844 20.0223 3.57475 22 5.27042 22H18.7303C20.4259 22 21.3522 20.0223 20.2667 18.7196L19.1997 17.4393C18.4397 16.5273 17.314 16 16.1268 16H15.5003C15.5003 17.933 13.9333 19.5 12.0003 19.5C10.0673 19.5 8.50034 17.933 8.50034 16Z" fill="#28303F"/>
<path fill-rule="evenodd" clip-rule="evenodd" d="M12 6C13.1046 6 14 5.10457 14 4C14 2.89543 13.1046 2 12 2C10.8954 2 10 2.89543 10 4C10 5.10457 10.8954 6 12 6ZM12 6C9.79086 6 8 7.79086 8 10V11C8 11.5523 8.44772 12 9 12C9.55228 12 10 12.4477 10 13V16C10 17.1046 10.8954 18 12 18C13.1046 18 14 17.1046 14 16V13C14 12.4477 14.4477 12 15 12C15.5523 12 16 11.5523 16 11V10C16 7.79086 14.2091 6 12 6Z" fill="#28303F"/>
</svg>
