<svg width="24" height="24" viewBox="0 0 24 24" fill="none" xmlns="http://www.w3.org/2000/svg">
<path fill-rule="evenodd" clip-rule="evenodd" d="M12.4998 3H11.4998C10.9476 3 10.4998 3.44772 10.4998 4V4.5H13.4998V4C13.4998 3.44772 13.0521 3 12.4998 3ZM11.4998 23H12.4998C13.0521 23 13.4998 22.5523 13.4998 22V21.5H10.4998V22C10.4998 22.5523 10.9476 23 11.4998 23ZM13.4998 12.5V13.5H10.4998V12.5H13.4998ZM16.9998 11.5H5.41406C5.14885 11.5 4.89449 11.3946 4.70696 11.2071L2.70696 9.20711C2.31643 8.81658 2.31643 8.18342 2.70696 7.79289L4.70696 5.79289C4.89449 5.60536 5.14885 5.5 5.41406 5.5H16.9998C17.5521 5.5 17.9998 5.94772 17.9998 6.5V10.5C17.9998 11.0523 17.5521 11.5 16.9998 11.5ZM6.99985 14.5H18.5856C18.8509 14.5 19.1052 14.6054 19.2927 14.7929L21.2927 16.7929C21.6833 17.1834 21.6833 17.8166 21.2927 18.2071L19.2927 20.2071C19.1052 20.3946 18.8509 20.5 18.5856 20.5H6.99985C6.44757 20.5 5.99985 20.0523 5.99985 19.5V15.5C5.99985 14.9477 6.44756 14.5 6.99985 14.5Z" fill="#28303F"/>
</svg>
