<svg width="24" height="24" viewBox="0 0 24 24" fill="none" xmlns="http://www.w3.org/2000/svg">
<path fill-rule="evenodd" clip-rule="evenodd" d="M9.75086 16H7.87384C6.68672 16 5.56093 16.5273 4.80096 17.4393L3.73398 18.7196C2.64844 20.0223 3.57475 22 5.27042 22H18.7303C20.4259 22 21.3522 20.0223 20.2667 18.7196L19.1997 17.4393C18.4397 16.5273 17.314 16 16.1268 16H14.2503V17.5C14.2503 18.7426 13.243 19.75 12.0003 19.75C10.7577 19.75 9.75034 18.7426 9.75034 17.5L9.75086 16Z" fill="#28303F"/>
<path d="M12.75 17.5C12.75 17.9142 12.4142 18.25 12 18.25C11.5858 18.25 11.25 17.9142 11.25 17.5L11.2548 3.5C11.2548 2.39543 12.1503 1.5 13.2548 1.5H18.6368C19.3802 1.5 19.8637 2.28231 19.5312 2.94721L18.4784 5.05279C18.3377 5.33431 18.3377 5.66569 18.4784 5.94721L19.5312 8.05279C19.8637 8.71769 19.3802 9.5 18.6368 9.5H12.75V17.5Z" fill="#28303F"/>
</svg>
