<svg width="24" height="24" viewBox="0 0 24 24" fill="none" xmlns="http://www.w3.org/2000/svg">
<path fill-rule="evenodd" clip-rule="evenodd" d="M9.87619 4.47813C9.18929 6.3671 8.74977 9.02637 8.74977 12C8.74977 12.3796 8.75693 12.754 8.77085 13.1224C9.79603 13.2054 10.879 13.25 11.9998 13.25C13.1206 13.25 14.2035 13.2054 15.2287 13.1224C15.2426 12.754 15.2498 12.3796 15.2498 12C15.2498 9.02637 14.8102 6.3671 14.1234 4.47813C13.7788 3.53057 13.3862 2.81652 12.988 2.35338C12.8694 2.21534 12.7563 2.10612 12.6494 2.02076C12.4346 2.00699 12.218 2 11.9998 2C11.7815 2 11.5649 2.00699 11.3502 2.02076C11.2432 2.10612 11.1302 2.21534 11.0115 2.35338C10.6133 2.81652 10.2208 3.53057 9.87619 4.47813ZM15.1312 14.6346C14.1288 14.71 13.0795 14.75 11.9998 14.75C10.92 14.75 9.87071 14.71 8.86829 14.6346C9.04269 16.5326 9.4 18.2123 9.87619 19.5219C10.2208 20.4694 10.6133 21.1835 11.0115 21.6466C11.1302 21.7847 11.2432 21.8939 11.3502 21.9792C11.5649 21.993 11.7815 22 11.9998 22C12.218 22 12.4346 21.993 12.6494 21.9792C12.7563 21.8939 12.8694 21.7847 12.988 21.6466C13.3862 21.1835 13.7788 20.4694 14.1234 19.5219C14.5995 18.2123 14.9569 16.5326 15.1312 14.6346ZM7.26468 12.968C7.2548 12.6486 7.24977 12.3257 7.24977 12C7.24977 8.8985 7.70568 6.05777 8.4665 3.96552C8.67316 3.39719 8.90657 2.87226 9.16663 2.407C5.1222 3.59958 2.14433 7.28026 2.00488 11.6772C2.88183 12.0753 4.09198 12.433 5.56673 12.7066C6.10376 12.8062 6.6713 12.8938 7.26468 12.968ZM2.08767 13.3317C3.00425 13.6736 4.0925 13.9587 5.29315 14.1814C5.9421 14.3018 6.63013 14.4051 7.35005 14.4893C7.52356 16.6072 7.91489 18.5176 8.4665 20.0345C8.67316 20.6028 8.90657 21.1277 9.16663 21.593C5.43575 20.4929 2.61246 17.2755 2.08767 13.3317ZM16.6495 14.4893C17.3694 14.4051 18.0574 14.3018 18.7064 14.1814C19.907 13.9587 20.9953 13.6736 21.9119 13.3317C21.3871 17.2755 18.5638 20.4929 14.8329 21.593C15.093 21.1277 15.3264 20.6028 15.533 20.0345C16.0847 18.5176 16.476 16.6072 16.6495 14.4893ZM21.9947 11.6772C21.1177 12.0753 19.9076 12.433 18.4328 12.7066C17.8958 12.8062 17.3282 12.8938 16.7349 12.968C16.7447 12.6486 16.7498 12.3257 16.7498 12C16.7498 8.8985 16.2939 6.05777 15.533 3.96552C15.3264 3.39719 15.093 2.87226 14.8329 2.407C18.8773 3.59958 21.8552 7.28026 21.9947 11.6772Z" fill="#28303F"/>
</svg>
