<svg width="24" height="24" viewBox="0 0 24 24" fill="none" xmlns="http://www.w3.org/2000/svg">
<path fill-rule="evenodd" clip-rule="evenodd" d="M12 17C14 17 18 12.3137 18 9C18 5.68629 15.3137 3 12 3C8.68629 3 6 5.68629 6 9C6 12.3137 10 17 12 17ZM12 11C13.1046 11 14 10.1046 14 9C14 7.89543 13.1046 7 12 7C10.8954 7 10 7.89543 10 9C10 10.1046 10.8954 11 12 11Z" fill="#28303F"/>
<path fill-rule="evenodd" clip-rule="evenodd" d="M7.01182 15.094C6.15401 15.2833 5.37362 15.7521 4.80096 16.4393L3.73398 17.7197C2.64844 19.0223 3.57475 21 5.27042 21H18.7303C20.4259 21 21.3522 19.0223 20.2667 17.7197L19.1997 16.4393C18.6271 15.7521 17.8467 15.2833 16.9889 15.094C16.9687 15.1199 16.9485 15.1457 16.9284 15.1713C16.2406 16.0438 15.4622 16.8319 14.6803 17.417C13.9576 17.9579 13.0025 18.5 12.0003 18.5C10.9981 18.5 10.0431 17.9579 9.32034 17.417C8.5385 16.8319 7.76009 16.0438 7.07232 15.1713C7.05213 15.1457 7.03197 15.1199 7.01182 15.094Z" fill="#28303F"/>
</svg>
