<svg width="24" height="24" viewBox="0 0 24 24" fill="none" xmlns="http://www.w3.org/2000/svg">
<path d="M16.75 13.7574V21.8528C18.4424 21.3968 20.2888 20.1294 21.2778 19.3816C21.7446 19.0286 22 18.4719 22 17.8867V8.21731C22 7.69664 21.6174 7.30942 21.1582 7.1947C21.0766 7.7228 20.9333 8.26109 20.7512 8.77996C20.3321 9.97403 19.6546 11.2142 18.8164 12.1815C18.2813 12.799 17.5806 13.4174 16.75 13.7574Z" fill="#28303F"/>
<path d="M9.6457 6.22302C9.36195 6.12826 9.06484 6.06293 8.75 6.03662V18.797C10.0281 18.9038 11.014 19.6538 12 20.4038C12.9859 21.1539 13.9719 21.9039 15.25 22.0107V14.0182C14.3625 13.966 13.5853 13.5535 12.9686 13.0611C12.3006 12.5276 11.7206 11.8231 11.2483 11.0833C10.3246 9.63619 9.64551 7.78321 9.64551 6.26878C9.64551 6.25352 9.64557 6.23826 9.6457 6.22302Z" fill="#28303F"/>
<path d="M2.72215 8.66595C3.71116 7.91814 5.55765 6.6507 7.25 6.1947V18.9551C6.03308 19.2829 4.73646 20.0304 3.73627 20.7025C3.0279 21.1786 2 20.6837 2 19.8302V10.1608C2 9.57561 2.25538 9.01889 2.72215 8.66595Z" fill="#28303F"/>
<path fill-rule="evenodd" clip-rule="evenodd" d="M19.4894 8.33744C19.7479 7.60117 19.8962 6.87882 19.8962 6.26911C19.8962 3.90609 17.9008 1.99048 15.4393 1.99048C13.1559 1.99048 11.2736 3.63891 11.0132 5.76377C10.9929 5.9295 10.9824 6.09814 10.9824 6.26911C10.9824 8.63214 13.2109 12.6871 15.4393 12.6871C17.0928 12.6871 18.7463 10.4547 19.4894 8.33744ZM15.4394 7.33871C16.1778 7.33871 16.7764 6.74008 16.7764 6.00164C16.7764 5.26319 16.1778 4.66457 15.4394 4.66457C14.7009 4.66457 14.1023 5.26319 14.1023 6.00164C14.1023 6.74008 14.7009 7.33871 15.4394 7.33871Z" fill="#28303F"/>
</svg>
