<svg width="24" height="24" viewBox="0 0 24 24" fill="none" xmlns="http://www.w3.org/2000/svg">
<path d="M12.8481 9.6415C12.2282 9.33273 11.6632 8.90291 11.0981 8.47309C9.92772 7.58272 8.7573 6.69234 7.09814 6.87805C5.57956 7.04803 3.7928 8.10367 2.56642 8.95476C1.60491 9.62204 1.09814 10.7421 1.09814 11.9125V20.6597C1.09814 21.5132 2.12604 22.0081 2.83441 21.5321C4.0439 20.7193 5.68683 19.7964 7.09814 19.6384C8.7573 19.4527 9.92772 20.3431 11.0981 21.2334C12.2686 22.1238 13.439 23.0142 15.0981 22.8285C16.6167 22.6585 18.4035 21.6029 19.6299 20.7518C20.5914 20.0845 21.0981 18.9644 21.0981 17.794V9.81914C21.0981 9.09777 20.3535 8.60351 19.6768 8.85355C18.978 9.11178 18.0893 9.41388 17.1696 9.65796V12.8533C17.1696 14.0959 16.2022 15.1033 15.0089 15.1033C13.8155 15.1033 12.8481 14.0959 12.8481 12.8533V9.6415Z" fill="#28303F"/>
<path d="M14.25 1.89661C14.25 1.48239 14.5858 1.14661 15 1.14661H21C21.2599 1.14661 21.5013 1.2812 21.638 1.50231C21.7746 1.72342 21.7871 1.99953 21.6708 2.23202L20.8385 3.89661L21.6708 5.5612C21.7871 5.79369 21.7746 6.06979 21.638 6.2909C21.5013 6.51202 21.2599 6.64661 21 6.64661H15.75V13.1318C15.75 13.546 15.4142 13.8818 15 13.8818C14.5858 13.8818 14.25 13.546 14.25 13.1318V1.89661Z" fill="#28303F"/>
</svg>
