<svg width="24" height="24" viewBox="0 0 24 24" fill="none" xmlns="http://www.w3.org/2000/svg">
<path d="M16.75 11.9402V21.8079C18.4424 21.3519 20.2888 20.0844 21.2778 19.3366C21.7446 18.9837 22 18.427 22 17.8418V8.17238C22 7.31893 20.9721 6.82403 20.2637 7.30005C19.7563 7.64105 19.1726 8.00143 18.5616 8.31658C18.4698 8.91474 18.2981 9.4872 18.0576 10.0221C17.736 10.7375 17.2912 11.3859 16.75 11.9402Z" fill="#28303F"/>
<path d="M8.75 13.0928V18.752C10.0281 18.8588 11.014 19.6088 12 20.3589C12.9859 21.1089 13.9719 21.859 15.25 21.9658V13.0925C14.2897 13.6328 13.1811 13.9412 11.9999 13.9412C10.8191 13.9412 9.7105 13.6331 8.75 13.0928Z" fill="#28303F"/>
<path d="M5.37224 6.91492C4.31647 7.46689 3.34776 8.14785 2.72215 8.62088C2.25538 8.97382 2 9.53054 2 10.1157V19.7851C2 20.6386 3.0279 21.1335 3.73627 20.6575C4.73646 19.9853 6.03308 19.2379 7.25 18.91V11.9405C6.26647 10.9331 5.60065 9.61402 5.4142 8.14505C5.3791 7.86854 5.36108 7.58726 5.36108 7.30241C5.36108 7.17243 5.36484 7.04323 5.37224 6.91492Z" fill="#28303F"/>
<path fill-rule="evenodd" clip-rule="evenodd" d="M17.2827 7.85522C17.3015 7.67351 17.3111 7.48909 17.3111 7.30242C17.3111 4.36919 14.9333 1.99133 12.0001 1.99133C9.50877 1.99133 7.41812 3.70662 6.84468 6.02062C6.74295 6.43112 6.68896 6.86047 6.68896 7.30242C6.68896 7.53124 6.70344 7.75668 6.73151 7.97788C7.06334 10.5922 9.29564 12.6135 12.0001 12.6135C14.1582 12.6135 16.0157 11.3263 16.8467 9.47773C17.0732 8.97372 17.2235 8.42798 17.2827 7.85522ZM9.56368 7.67048L10.9049 8.11756C11.0371 8.16161 11.1408 8.26532 11.1848 8.39748L11.6319 9.73872C11.7606 10.1248 12.2983 10.1472 12.4586 9.7731L14.2197 5.66382C14.3771 5.2966 14.0058 4.92529 13.6386 5.08267L9.5293 6.84379C9.15523 7.00411 9.1776 7.54178 9.56368 7.67048Z" fill="#28303F"/>
</svg>
