<svg width="24" height="24" viewBox="0 0 24 24" fill="none" xmlns="http://www.w3.org/2000/svg">
<path fill-rule="evenodd" clip-rule="evenodd" d="M6.9998 7.82843V10.1716C6.9998 10.702 6.78909 11.2107 6.41401 11.5858C5.15408 12.8457 6.04642 15 7.82823 15H11.2498V21C11.2498 21.4142 11.5856 21.75 11.9998 21.75C12.414 21.75 12.7498 21.4142 12.7498 21V15H16.1714C17.9532 15 18.8455 12.8457 17.5856 11.5858C17.2105 11.2107 16.9998 10.702 16.9998 10.1716V7.82843C16.9998 7.29799 17.2105 6.78929 17.5856 6.41421C18.8455 5.15428 17.9532 3 16.1714 3H7.82823C6.04642 3 5.15408 5.15428 6.41401 6.41421C6.78909 6.78929 6.9998 7.29799 6.9998 7.82843Z" fill="#28303F"/>
</svg>
