<svg width="24" height="24" viewBox="0 0 24 24" fill="none" xmlns="http://www.w3.org/2000/svg">
<path fill-rule="evenodd" clip-rule="evenodd" d="M9.75034 15H9.00034H7.87384C6.68672 15 5.56093 15.5273 4.80096 16.4393L3.73398 17.7196C2.64844 19.0223 3.57475 21 5.27042 21H18.7303C20.4259 21 21.3522 19.0223 20.2667 17.7196L19.1997 16.4393C18.4397 15.5273 17.314 15 16.1268 15H14.2503V16C14.2503 17.2426 13.243 18.25 12.0003 18.25C10.7577 18.25 9.75034 17.2426 9.75034 16V15Z" fill="#28303F"/>
<path fill-rule="evenodd" clip-rule="evenodd" d="M12.75 6.85462C13.483 6.55793 14 5.83934 14 5C14 3.89543 13.1046 3 12 3C10.8954 3 10 3.89543 10 5C10 5.83934 10.517 6.55793 11.25 6.85462V16C11.25 16.4142 11.5858 16.75 12 16.75C12.4142 16.75 12.75 16.4142 12.75 16V6.85462Z" fill="#28303F"/>
</svg>
