<svg width="24" height="24" viewBox="0 0 24 24" fill="none" xmlns="http://www.w3.org/2000/svg">
<path fill-rule="evenodd" clip-rule="evenodd" d="M11.4998 2C10.9476 2 10.4998 2.44772 10.4998 3V21C10.4998 21.5523 10.9476 22 11.4998 22H12.4998C13.0521 22 13.4998 21.5523 13.4998 21V3C13.4998 2.44772 13.0521 2 12.4998 2H11.4998ZM9.49985 12H5.41406C5.14885 12 4.89449 11.8946 4.70696 11.7071L2.70696 9.70711C2.31643 9.31658 2.31643 8.68342 2.70696 8.29289L4.70696 6.29289C4.89449 6.10536 5.14885 6 5.41406 6H9.49985V12ZM14.4998 12H18.9998L21.9998 15L18.9998 18H14.4998V12Z" fill="#28303F"/>
</svg>
