<svg width="24" height="24" viewBox="0 0 24 24" fill="none" xmlns="http://www.w3.org/2000/svg">
<path fill-rule="evenodd" clip-rule="evenodd" d="M12.4995 2H11.4995C10.9472 2 10.4995 2.44772 10.4995 3V4.31375L13.4995 3.5099V3C13.4995 2.44772 13.0518 2 12.4995 2ZM11.4995 22H12.4995C13.0518 22 13.4995 21.5523 13.4995 21V20H10.4995L10.4995 21C10.4995 21.5523 10.9472 22 11.4995 22ZM10.4995 11.4901L13.4995 10.6863V13H10.4995V11.4901ZM10.4994 5.31381L5.55686 6.63817C5.02339 6.78111 4.70681 7.32945 4.84975 7.86291L5.62621 10.7607C5.76915 11.2942 6.31749 11.6107 6.85095 11.4678L10.4994 10.4902L13.4994 9.68634L17.0119 8.74518C17.3053 8.66656 17.5471 8.45881 17.669 8.18056L18.4399 6.42109C18.6276 5.99269 18.4933 5.49142 18.1165 5.21427L16.5692 4.07596C16.3245 3.89595 16.0112 3.83693 15.7178 3.91555L13.4994 4.50996L10.4994 5.31381ZM10.4994 14.0001H5.99944C5.44716 14.0001 4.99944 14.4478 4.99944 15.0001V18.0001C4.99944 18.5523 5.44716 19.0001 5.99944 19.0001H10.4995H13.4994H16.5188C16.8226 19.0001 17.1099 18.862 17.2997 18.6248L18.4997 17.1248C18.7919 16.7595 18.7919 16.2406 18.4997 15.8754L17.2997 14.3754C17.1099 14.1381 16.8226 14.0001 16.5188 14.0001H13.4994H10.4994Z" fill="#28303F"/>
</svg>
