<svg width="24" height="24" viewBox="0 0 24 24" fill="none" xmlns="http://www.w3.org/2000/svg">
<path fill-rule="evenodd" clip-rule="evenodd" d="M15.4386 11.2486C15.9299 11.0873 16.4547 11 17 11C18.1018 11 19.1204 11.3564 19.9468 11.9602C21.1914 11.0507 22 9.57997 22 7.92037C22 7.67494 21.7325 7.53516 21.5051 7.62756C21.0405 7.81637 20.5324 7.92037 20 7.92037C17.7909 7.92037 16 6.12951 16 3.92037C16 3.86469 16.0011 3.80927 16.0034 3.75414C16.0181 3.39444 15.7097 3.07495 15.3694 3.19231C13.4818 3.84319 12.106 5.59254 12.0059 7.67641C13.5408 8.40734 14.7677 9.68071 15.4386 11.2486ZM9 8.5C5.96243 8.5 3.5 10.9624 3.5 14C3.5 17.0376 5.96243 19.5 9 19.5H17C18.933 19.5 20.5 17.933 20.5 16C20.5 14.8394 19.9366 13.8105 19.0618 13.1713C18.4837 12.7489 17.7731 12.5 17 12.5C16.6157 12.5 16.2487 12.5614 15.9066 12.6737C15.1675 12.9165 14.3655 12.5539 14.0595 11.8387C13.5326 10.6073 12.5673 9.60516 11.361 9.0307C10.6474 8.69091 9.84809 8.5 9 8.5Z" fill="#28303F"/>
</svg>
