<svg width="24" height="24" viewBox="0 0 24 24" fill="none" xmlns="http://www.w3.org/2000/svg">
<path d="M21 13V15C21 16.6569 19.6569 18 18 18C16.3431 18 15 16.6569 15 15V13C15 11.3431 16.3431 10 18 10C19.6569 10 21 11.3431 21 13ZM21 13V11C21 6.02944 16.9706 2 12 2C7.02944 2 3 6.02944 3 11V13M3 13V15C3 16.6569 4.34315 18 6 18C7.65685 18 9 16.6569 9 15V13C9 11.3431 7.65685 10 6 10C4.34315 10 3 11.3431 3 13ZM21 14V16C21 19.3137 18.3137 22 15 22H12" stroke="#28303F" stroke-width="1.5" stroke-linecap="round" stroke-linejoin="round"/>
</svg>
