<svg width="24" height="24" viewBox="0 0 24 24" fill="none" xmlns="http://www.w3.org/2000/svg">
<path d="M18.7285 9.81898L21.1094 11.4063C21.6658 11.7772 22 12.4017 22 13.0704V16C22 18.2091 20.2091 20 18 20H6C3.79086 20 2 18.2091 2 16V13.8685C2 13.0698 2.89014 12.5934 3.5547 13.0365L5.27153 14.181C6.85802 15.2387 8.9705 15.0295 10.3188 13.6812L13.6812 10.3188C15.0295 8.9705 17.142 8.76132 18.7285 9.81898Z" stroke="#28303F" stroke-width="1.5"/>
<path d="M10 6.5C10 7.88071 8.88071 9 7.5 9C6.11929 9 5 7.88071 5 6.5C5 5.11929 6.11929 4 7.5 4C8.88071 4 10 5.11929 10 6.5Z" stroke="#28303F" stroke-width="1.5"/>
</svg>
