<svg width="24" height="24" viewBox="0 0 24 24" fill="none" xmlns="http://www.w3.org/2000/svg">
<path d="M17 15.2663C17 16.3709 16.1046 17.2663 15 17.2663C13.8954 17.2663 13 16.3709 13 15.2663C13 14.1618 13.8954 13.2663 15 13.2663C16.1046 13.2663 17 14.1618 17 15.2663ZM17 15.2663V10.3367C17 9.66799 16.6658 9.04353 16.1094 8.6726L14.1094 7.33926C12.7803 6.45319 11 7.40597 11 9.00336V12.2663M11 12.2663C11 13.3709 10.1046 14.2663 9 14.2663C7.89543 14.2663 7 13.3709 7 12.2663C7 11.1618 7.89543 10.2663 9 10.2663C10.1046 10.2663 11 11.1618 11 12.2663ZM6 22H18C20.2091 22 22 20.2091 22 18V6C22 3.79086 20.2091 2 18 2H6C3.79086 2 2 3.79086 2 6V18C2 20.2091 3.79086 22 6 22Z" stroke="#28303F" stroke-width="1.5" stroke-linecap="round" stroke-linejoin="round"/>
</svg>
