<svg width="24" height="24" viewBox="0 0 24 24" fill="none" xmlns="http://www.w3.org/2000/svg">
<path d="M18.3165 2.97579L18.0602 2.27094L18.3165 2.97579ZM12.633 5.04251L12.3767 4.33766L12.633 5.04251ZM20.25 12.5C20.25 14.0188 19.0188 15.25 17.5 15.25V16.75C19.8472 16.75 21.75 14.8472 21.75 12.5H20.25ZM17.5 15.25C15.9812 15.25 14.75 14.0188 14.75 12.5H13.25C13.25 14.8472 15.1528 16.75 17.5 16.75V15.25ZM14.75 12.5C14.75 10.9812 15.9812 9.74997 17.5 9.74997V8.24997C15.1528 8.24997 13.25 10.1528 13.25 12.5H14.75ZM17.5 9.74997C19.0188 9.74997 20.25 10.9812 20.25 12.5H21.75C21.75 10.1528 19.8472 8.24997 17.5 8.24997V9.74997ZM9.25 18.5C9.25 20.0188 8.01878 21.25 6.5 21.25V22.75C8.84721 22.75 10.75 20.8472 10.75 18.5H9.25ZM6.5 21.25C4.98122 21.25 3.75 20.0188 3.75 18.5H2.25C2.25 20.8472 4.15279 22.75 6.5 22.75V21.25ZM3.75 18.5C3.75 16.9812 4.98122 15.75 6.5 15.75V14.25C4.15279 14.25 2.25 16.1528 2.25 18.5H3.75ZM6.5 15.75C8.01878 15.75 9.25 16.9812 9.25 18.5H10.75C10.75 16.1528 8.84721 14.25 6.5 14.25V15.75ZM21.75 12.5V4.85537H20.25V12.5H21.75ZM18.0602 2.27094L12.3767 4.33766L12.8893 5.74735L18.5728 3.68063L18.0602 2.27094ZM9.25 8.80168V18.5H10.75V8.80168H9.25ZM12.3767 4.33766C10.4996 5.02026 9.25 6.80428 9.25 8.80168H10.75C10.75 7.43504 11.605 6.21439 12.8893 5.74735L12.3767 4.33766ZM21.75 4.85537C21.75 2.94697 19.8537 1.61876 18.0602 2.27094L18.5728 3.68063C19.3881 3.38418 20.25 3.98792 20.25 4.85537H21.75Z" fill="#28303F"/>
</svg>
