<svg width="24" height="24" viewBox="0 0 24 24" fill="none" xmlns="http://www.w3.org/2000/svg">
<path d="M21 17C21 18.6569 19.6569 20 18 20C16.3431 20 15 18.6569 15 17C15 15.3431 16.3431 14 18 14C19.6569 14 21 15.3431 21 17ZM21 17V10.7748C21 9.40973 19.6626 8.44579 18.3675 8.87748L11.7351 11.0883C10.1017 11.6328 9 13.1613 9 14.883V19M9 19C9 20.6569 7.65685 22 6 22C4.34315 22 3 20.6569 3 19C3 17.3431 4.34315 16 6 16C7.65685 16 9 17.3431 9 19ZM21 12V4.77485C21 3.40973 19.6626 2.44579 18.3675 2.87748L11.7351 5.0883C10.1017 5.63276 9 7.16131 9 8.88303V14" stroke="#28303F" stroke-width="1.5" stroke-linecap="round" stroke-linejoin="round"/>
</svg>
