<svg width="24" height="24" viewBox="0 0 24 24" fill="none" xmlns="http://www.w3.org/2000/svg">
<rect x="13" y="3" width="9" height="9" rx="2" stroke="#28303F" stroke-width="1.5"/>
<path d="M18.5 6L16.5 6" stroke="#28303F" stroke-width="1.5" stroke-linecap="round" stroke-linejoin="round"/>
<path d="M2 9H4L10.2622 11.7397C11.2241 12.1605 11.6664 13.2784 11.2528 14.2434V14.2434C10.837 15.2136 9.71355 15.663 8.74342 15.2472L7 14.5" stroke="#28303F" stroke-width="1.5" stroke-linecap="round" stroke-linejoin="round"/>
<path d="M2.33541 17.3292C1.96493 17.1439 1.51442 17.2941 1.32918 17.6646C1.14394 18.0351 1.29411 18.4856 1.66459 18.6708L2.33541 17.3292ZM11.3354 14.3292L10.6646 13.9938L9.99377 15.3354L10.6646 15.6708L11.3354 14.3292ZM19.25 19C19.25 19.4142 19.5858 19.75 20 19.75C20.4142 19.75 20.75 19.4142 20.75 19H19.25ZM13.7331 16.3666L13.3977 17.0374L13.7331 16.3666ZM16.4164 17.75H18V16.25H16.4164V17.75ZM18 20.25H9.88854V21.75H18V20.25ZM6.64625 19.4846L2.33541 17.3292L1.66459 18.6708L5.97542 20.8262L6.64625 19.4846ZM14.0685 15.6957L11.3354 14.3292L10.6646 15.6708L13.3977 17.0374L14.0685 15.6957ZM9.88854 20.25C8.76302 20.25 7.65295 19.9879 6.64625 19.4846L5.97542 20.8262C7.19041 21.4337 8.53015 21.75 9.88854 21.75V20.25ZM19.25 19C19.25 19.6904 18.6904 20.25 18 20.25V21.75C19.5188 21.75 20.75 20.5188 20.75 19H19.25ZM18 17.75C18.6904 17.75 19.25 18.3096 19.25 19H20.75C20.75 17.4812 19.5188 16.25 18 16.25V17.75ZM16.4164 16.25C15.6014 16.25 14.7975 16.0602 14.0685 15.6957L13.3977 17.0374C14.335 17.506 15.3685 17.75 16.4164 17.75V16.25Z" fill="#28303F"/>
</svg>
