<svg width="24" height="24" viewBox="0 0 24 24" fill="none" xmlns="http://www.w3.org/2000/svg">
<circle cx="10" cy="8" r="2" stroke="#28303F" stroke-width="1.5"/>
<path d="M16.0016 14C16.6045 12.6793 17 11.3127 17 10C17 4.47715 13.866 2 10 2C6.13401 2 3 4.47715 3 10C3 13.2811 5.47059 16.8989 7.47627 19.2954C8.81698 20.8973 11.183 20.8973 12.5237 19.2954C12.6801 19.1085 12.8393 18.9142 13 18.7133M16.0016 14H15C13.8954 14 13 14.8954 13 16V18.7133M16.0016 14H19C20.1046 14 21 14.8954 21 16V20C21 21.1046 20.1046 22 19 22H15C13.8954 22 13 21.1046 13 20V18.7133" stroke="#28303F" stroke-width="1.5"/>
<path d="M18 16L16 16" stroke="#28303F" stroke-width="1.5" stroke-linecap="round" stroke-linejoin="round"/>
</svg>
