<svg width="24" height="24" viewBox="0 0 24 24" fill="none" xmlns="http://www.w3.org/2000/svg">
<circle cx="12" cy="13" r="1" fill="#28303F"/>
<path d="M22 18V8.40312C22 7.49484 21.6909 6.6136 21.1235 5.90434L19.201 3.50122C18.4419 2.55236 17.2926 2 16.0775 2H7.9225C6.70736 2 5.55811 2.55236 4.79902 3.50122L2.87652 5.90434C2.30912 6.6136 2 7.49484 2 8.40312V18C2 20.2091 3.79086 22 6 22H18C20.2091 22 22 20.2091 22 18Z" stroke="#28303F" stroke-width="1.5" stroke-linejoin="round"/>
<path d="M3 7H21" stroke="#28303F" stroke-width="1.5" stroke-linecap="round" stroke-linejoin="round"/>
<path d="M15 13C15 14.5456 13.5314 16.376 12.6493 17.3361C12.2946 17.7222 11.7054 17.7222 11.3507 17.3361C10.4686 16.376 9 14.5456 9 13C9 10.7909 10.3431 10 12 10C13.6569 10 15 10.7909 15 13Z" stroke="#28303F" stroke-width="1.5" stroke-linejoin="round"/>
</svg>
