<svg width="24" height="24" viewBox="0 0 24 24" fill="none" xmlns="http://www.w3.org/2000/svg">
<path d="M5 5L19 19" stroke="#28303F" stroke-width="1.5" stroke-linecap="round"/>
<path fill-rule="evenodd" clip-rule="evenodd" d="M10.5795 9.64014L9.25751 18.8939C9.19893 19.304 9.48386 19.6839 9.89391 19.7424C10.304 19.801 10.6839 19.5161 10.7424 19.106L11.9053 10.966L10.5795 9.64014ZM12.1705 9.10981L12.7424 5.10604C12.801 4.69599 12.5161 4.31609 12.106 4.25751C11.696 4.19893 11.3161 4.48386 11.2575 4.89391L10.8446 7.78398L12.1705 9.10981Z" fill="#28303F"/>
<path fill-rule="evenodd" clip-rule="evenodd" d="M5.4402 4.50086C5.3219 4.63345 5.25 4.80833 5.25 5C5.25 5.41421 5.58579 5.75 6 5.75H6.68934L5.4402 4.50086ZM8.81066 5.75H18C18.4142 5.75 18.75 5.41421 18.75 5C18.75 4.58579 18.4142 4.25 18 4.25H7.31066L8.81066 5.75Z" fill="#28303F"/>
</svg>
