<svg width="24" height="24" viewBox="0 0 24 24" fill="none" xmlns="http://www.w3.org/2000/svg">
<path d="M2 6V3C2 2.44772 2.44772 2 3 2H6C6.55228 2 7 2.44772 7 3V6C7 6.55228 6.55228 7 6 7H3C2.44772 7 2 6.55228 2 6Z" stroke="#28303F" stroke-width="1.5" stroke-linecap="round" stroke-linejoin="round"/>
<path d="M17 6V3C17 2.44772 17.4477 2 18 2H21C21.5523 2 22 2.44772 22 3V6C22 6.55228 21.5523 7 21 7H18C17.4477 7 17 6.55228 17 6Z" stroke="#28303F" stroke-width="1.5" stroke-linecap="round" stroke-linejoin="round"/>
<path d="M17 21V18C17 17.4477 17.4477 17 18 17H21C21.5523 17 22 17.4477 22 18V21C22 21.5523 21.5523 22 21 22H18C17.4477 22 17 21.5523 17 21Z" stroke="#28303F" stroke-width="1.5" stroke-linecap="round" stroke-linejoin="round"/>
<path d="M2 21V18C2 17.4477 2.44772 17 3 17H6C6.55228 17 7 17.4477 7 18V21C7 21.5523 6.55228 22 6 22H3C2.44772 22 2 21.5523 2 21Z" stroke="#28303F" stroke-width="1.5" stroke-linecap="round" stroke-linejoin="round"/>
<path d="M10 13H14" stroke="#28303F" stroke-width="1.5" stroke-linecap="round"/>
<path d="M9 15L12 8L15 15" stroke="#28303F" stroke-width="1.5" stroke-linecap="round" stroke-linejoin="round"/>
<path d="M7 4.5H17M19.5 7V17M17 19.5H7M4.5 17V7" stroke="#28303F" stroke-width="1.5" stroke-linecap="round" stroke-linejoin="round"/>
</svg>
