<svg width="24" height="24" viewBox="0 0 24 24" fill="none" xmlns="http://www.w3.org/2000/svg">
<path d="M9 15.5C9 17.433 10.7909 19 13 19C15.2091 19 17 17.433 17 15.5C17 13.567 15.2091 12 13 12" stroke="#28303F" stroke-width="1.5" stroke-linecap="round"/>
<path d="M4 12H20" stroke="#28303F" stroke-width="1.5" stroke-linecap="round"/>
<path fill-rule="evenodd" clip-rule="evenodd" d="M9.75 8.5C9.75 7.07216 11.1079 5.75 13 5.75C14.8921 5.75 16.25 7.07216 16.25 8.5C16.25 8.91421 16.5858 9.25 17 9.25C17.4142 9.25 17.75 8.91421 17.75 8.5C17.75 6.06185 15.5261 4.25 13 4.25C10.4739 4.25 8.25 6.06185 8.25 8.5C8.25 9.13236 8.39959 9.72259 8.66525 10.25H10.4974C10.024 9.76151 9.75 9.14142 9.75 8.5ZM13.7073 11.75H9.93864C10.7793 12.3802 11.8588 12.75 13 12.75C13.4142 12.75 13.75 12.4142 13.75 12C13.75 11.9123 13.735 11.8282 13.7073 11.75Z" fill="#28303F"/>
</svg>
