<svg width="24" height="24" viewBox="0 0 24 24" fill="none" xmlns="http://www.w3.org/2000/svg">
<path d="M10.3754 2.72202L5.37758 4.94328C3.93196 5.58578 2.97797 7.02462 3.06996 8.60391C3.42959 14.7781 5.23764 17.4963 9.93576 20.677C11.1804 21.5196 12.8209 21.5216 14.0646 20.6777C18.7772 17.4797 20.5205 14.7231 20.9117 8.6253C21.0137 7.03556 20.0582 5.58145 18.6025 4.93447L13.6245 2.72202C12.5903 2.26235 11.4097 2.26235 10.3754 2.72202Z" stroke="#28303F" stroke-width="1.5"/>
<path d="M15 12C15 13.6569 13.6568 15 12 15C10.3431 15 8.99996 13.6569 8.99996 12C8.99996 10.3431 10.3431 9 12 9C13.6568 9 15 10.3431 15 12Z" stroke="#28303F" stroke-width="1.5"/>
</svg>
