<svg width="24" height="24" viewBox="0 0 24 24" fill="none" xmlns="http://www.w3.org/2000/svg">
<path d="M16 8H8C5.79086 8 4 9.79086 4 12V18C4 20.2091 5.79086 22 8 22H16C18.2091 22 20 20.2091 20 18V12C20 9.79086 18.2091 8 16 8ZM16 8L16 6C16 3.79086 14.2092 2 12 2C10.5195 2 9.22678 2.8044 8.53516 4M14 15C14 16.1046 13.1046 17 12 17C10.8954 17 10 16.1046 10 15C10 13.8954 10.8954 13 12 13C13.1046 13 14 13.8954 14 15Z" stroke="#28303F" stroke-width="1.5" stroke-linecap="round" stroke-linejoin="round"/>
</svg>
