<svg width="24" height="24" viewBox="0 0 24 24" fill="none" xmlns="http://www.w3.org/2000/svg">
<path fill-rule="evenodd" clip-rule="evenodd" d="M18 12C20.2091 12 22 10.2091 22 8C22 5.79086 20.2091 4 18 4C15.7909 4 14 5.79086 14 8C14 10.2091 15.7909 12 18 12ZM2 8H3.58164C3.85756 8 4.1305 8.05709 4.38328 8.16769L10.2622 10.7397C11.2241 11.1605 11.6664 12.2784 11.2528 13.2434C11.19 13.3899 11.1111 13.5245 11.0191 13.646L13.7331 15.3666C14.5663 15.7831 15.4849 16 16.4164 16H18C19.1046 16 20 16.8954 20 18C20 19.1046 19.1046 20 18 20H9.88854C8.64658 20 7.42168 19.7108 6.31083 19.1554L2 17V8Z" fill="#28303F"/>
</svg>
