<svg width="24" height="24" viewBox="0 0 24 24" fill="none" xmlns="http://www.w3.org/2000/svg">
<path fill-rule="evenodd" clip-rule="evenodd" d="M15.6023 5.25H8.39826C7.23581 3.67982 8.80193 1.48227 10.7473 2.10985L11.6751 2.40914C11.8863 2.47728 12.1142 2.47728 12.3254 2.40914L13.2532 2.10985C15.1986 1.48227 16.7647 3.67982 15.6023 5.25ZM8.50643 6.75H15.4941C16.8134 7.48048 17.8441 8.70013 18.316 10.2104L19.566 14.2104C20.7734 18.0739 17.887 22 13.8391 22H10.1614C6.11357 22 3.22716 18.0739 4.43453 14.2104L5.68453 10.2103C6.15648 8.70013 7.18715 7.48048 8.50643 6.75ZM12.7502 9.5C12.7502 9.08579 12.4145 8.75 12.0002 8.75C11.586 8.75 11.2502 9.08579 11.2502 9.5V10.3462C10.1442 10.6338 9.25024 11.5427 9.25024 12.75C9.25024 14.2217 10.5787 15.25 12.0002 15.25C12.7878 15.25 13.2502 15.7887 13.2502 16.25C13.2502 16.7113 12.7878 17.25 12.0002 17.25C11.2127 17.25 10.7502 16.7113 10.7502 16.25C10.7502 15.8358 10.4145 15.5 10.0002 15.5C9.58603 15.5 9.25024 15.8358 9.25024 16.25C9.25024 17.4573 10.1442 18.3662 11.2502 18.6538V19.5C11.2502 19.9142 11.586 20.25 12.0002 20.25C12.4145 20.25 12.7502 19.9142 12.7502 19.5V18.6538C13.8563 18.3662 14.7502 17.4573 14.7502 16.25C14.7502 14.7783 13.4218 13.75 12.0002 13.75C11.2127 13.75 10.7502 13.2113 10.7502 12.75C10.7502 12.2887 11.2127 11.75 12.0002 11.75C12.7878 11.75 13.2502 12.2887 13.2502 12.75C13.2502 13.1642 13.586 13.5 14.0002 13.5C14.4145 13.5 14.7502 13.1642 14.7502 12.75C14.7502 11.5427 13.8563 10.6338 12.7502 10.3462V9.5Z" fill="#28303F"/>
</svg>
