<svg width="24" height="24" viewBox="0 0 24 24" fill="none" xmlns="http://www.w3.org/2000/svg">
<path fill-rule="evenodd" clip-rule="evenodd" d="M15.6023 5.25H8.39826C7.23581 3.67982 8.80193 1.48227 10.7473 2.10985L11.6751 2.40914C11.8863 2.47728 12.1142 2.47728 12.3254 2.40914L13.2532 2.10985C15.1986 1.48227 16.7647 3.67982 15.6023 5.25ZM8.50643 6.75H15.4941C16.8134 7.48048 17.8441 8.70013 18.316 10.2104L19.566 14.2104C20.7734 18.0739 17.887 22 13.8391 22H10.1614C6.11357 22 3.22716 18.0739 4.43453 14.2104L5.68453 10.2103C6.15648 8.70013 7.18715 7.48048 8.50643 6.75ZM15.3642 17.6558C15.7264 17.4547 15.857 16.9982 15.656 16.636C15.455 16.2739 14.9984 16.1432 14.6363 16.3442C13.4671 16.9932 12.6657 17.2501 11.9404 17.2472C11.2188 17.2443 10.4609 16.9836 9.37807 16.3521C9.02026 16.1435 8.56104 16.2644 8.35237 16.6222C8.1437 16.98 8.2646 17.4392 8.62241 17.6479C9.79395 18.3311 10.825 18.7427 11.9343 18.7472C13.0398 18.7517 14.1112 18.3513 15.3642 17.6558Z" fill="#28303F"/>
</svg>
