<svg width="24" height="24" viewBox="0 0 24 24" fill="none" xmlns="http://www.w3.org/2000/svg">
<path fill-rule="evenodd" clip-rule="evenodd" d="M15.6023 5.25H8.39826C7.23581 3.67982 8.80193 1.48227 10.7473 2.10985L11.6751 2.40914C11.8863 2.47728 12.1142 2.47728 12.3254 2.40914L13.2532 2.10985C15.1986 1.48227 16.7647 3.67982 15.6023 5.25ZM8.50643 6.75H15.4941C16.8134 7.48048 17.8441 8.70013 18.316 10.2104L19.566 14.2104C20.7734 18.0739 17.887 22 13.8391 22H10.1614C6.11357 22 3.22716 18.0739 4.43453 14.2104L5.68453 10.2103C6.15648 8.70013 7.18715 7.48048 8.50643 6.75ZM12.6156 9.75C11.4367 9.75 10.481 10.7057 10.481 11.8846V12.4548C10.481 12.8944 10.4275 13.3291 10.3237 13.75H9.00024C8.58603 13.75 8.25024 14.0858 8.25024 14.5C8.25024 14.9142 8.58603 15.25 9.00024 15.25H9.70283C9.54878 15.5052 9.37305 15.7487 9.17668 15.9775C8.07364 17.2628 8.9869 19.25 10.6806 19.25H14.0002C14.4145 19.25 14.7502 18.9142 14.7502 18.5C14.7502 18.0858 14.4145 17.75 14.0002 17.75H10.6806C10.2688 17.75 10.0468 17.2669 10.315 16.9544C10.7582 16.4379 11.1192 15.863 11.3903 15.25H13.0002C13.4145 15.25 13.7502 14.9142 13.7502 14.5C13.7502 14.0858 13.4145 13.75 13.0002 13.75H11.8585C11.9395 13.3257 11.981 12.8921 11.981 12.4548V11.8846C11.981 11.5341 12.2651 11.25 12.6156 11.25C12.9661 11.25 13.2502 11.5341 13.2502 11.8846V12.3824C13.2502 12.7966 13.586 13.1324 14.0002 13.1324C14.4145 13.1324 14.7502 12.7966 14.7502 12.3824V11.8846C14.7502 10.7057 13.7945 9.75 12.6156 9.75Z" fill="#28303F"/>
</svg>
