<svg width="24" height="24" viewBox="0 0 24 24" fill="none" xmlns="http://www.w3.org/2000/svg">
<path fill-rule="evenodd" clip-rule="evenodd" d="M12.0002 3C8.32685 3 5.18395 5.26328 3.88648 8.46859C3.73106 8.85254 3.91632 9.28978 4.30027 9.4452C4.68422 9.60062 5.12147 9.41536 5.27689 9.03141C6.35296 6.37306 8.95872 4.5 12.0002 4.5C15.5714 4.5 18.5398 7.08231 19.1396 10.4812L18.3356 10.0792C17.9651 9.89394 17.5146 10.0441 17.3293 10.4146C17.1441 10.7851 17.2943 11.2356 17.6648 11.4208L18.5592 11.868C19.0352 12.1061 19.5594 12.1962 20.0689 12.1441C20.5565 12.0942 21.0316 11.9139 21.439 11.6084L22.4502 10.85C22.7815 10.6015 22.8487 10.1314 22.6002 9.8C22.3516 9.46863 21.8815 9.40147 21.5502 9.65L20.6363 10.3354C19.96 6.17532 16.3511 3 12.0002 3ZM3.23 12.9736C3.26253 12.9573 3.29555 12.9426 3.32897 12.9294C3.90489 17.2041 7.56763 20.5 12.0002 20.5C15.6735 20.5 18.8164 18.2367 20.1139 15.0314C20.2693 14.6475 20.084 14.2102 19.7001 14.0548C19.3161 13.8994 18.8789 14.0846 18.7234 14.4686C17.6474 17.1269 15.0416 19 12.0002 19C8.56 19 5.67946 16.6039 4.93635 13.3896L5.55016 13.85C5.88154 14.0985 6.35164 14.0314 6.60016 13.7C6.84869 13.3686 6.78154 12.8985 6.45016 12.65L5.43902 11.8916C4.60572 11.2667 3.49084 11.1661 2.55918 11.632L1.66475 12.0792C1.29427 12.2644 1.1441 12.7149 1.32934 13.0854C1.51459 13.4559 1.96509 13.6061 2.33557 13.4208L3.23 12.9736ZM12.7502 6.25C12.7502 5.83579 12.4145 5.5 12.0002 5.5C11.586 5.5 11.2502 5.83579 11.2502 6.25V7.10352C10.096 7.42998 9.25024 8.49122 9.25024 9.75C9.25024 11.2688 10.4815 12.5 12.0002 12.5C12.6906 12.5 13.2502 13.0596 13.2502 13.75C13.2502 14.4404 12.6906 15 12.0002 15C11.3099 15 10.7502 14.4404 10.7502 13.75C10.7502 13.3358 10.4145 13 10.0002 13C9.58603 13 9.25024 13.3358 9.25024 13.75C9.25024 15.0088 10.096 16.07 11.2502 16.3965V17.25C11.2502 17.6642 11.586 18 12.0002 18C12.4145 18 12.7502 17.6642 12.7502 17.25V16.3965C13.9045 16.07 14.7502 15.0088 14.7502 13.75C14.7502 12.2312 13.519 11 12.0002 11C11.3099 11 10.7502 10.4404 10.7502 9.75C10.7502 9.05964 11.3099 8.5 12.0002 8.5C12.6906 8.5 13.2502 9.05964 13.2502 9.75C13.2502 10.1642 13.586 10.5 14.0002 10.5C14.4145 10.5 14.7502 10.1642 14.7502 9.75C14.7502 8.49122 13.9045 7.42998 12.7502 7.10352V6.25Z" fill="#28303F"/>
</svg>
