<svg width="24" height="24" viewBox="0 0 24 24" fill="none" xmlns="http://www.w3.org/2000/svg">
<path fill-rule="evenodd" clip-rule="evenodd" d="M21.2374 2.17675C20.554 1.49333 19.446 1.49333 18.7626 2.17675L17.4697 3.46964C17.1768 3.76253 17.1768 4.23741 17.4697 4.5303C17.7626 4.82319 18.2374 4.82319 18.5303 4.5303L19.25 3.81063V7.99997C19.25 8.41418 19.5858 8.74997 20 8.74997C20.4142 8.74997 20.75 8.41418 20.75 7.99997V3.81063L21.4697 4.5303C21.7626 4.82319 22.2374 4.82319 22.5303 4.5303C22.8232 4.23741 22.8232 3.76253 22.5303 3.46964L21.2374 2.17675ZM2 11C2 9.34315 3.34315 8 5 8H15C16.6569 8 18 9.34315 18 11V19C18 20.6569 16.6569 22 15 22H5C3.34315 22 2 20.6569 2 19V11ZM5.40001 12.5499C5.64854 12.2186 6.11864 12.1514 6.45001 12.3999L8.65001 14.0499C9.45001 14.6499 10.55 14.6499 11.35 14.0499L13.55 12.3999C13.8814 12.1514 14.3515 12.2186 14.6 12.5499C14.8485 12.8813 14.7814 13.3514 14.45 13.5999L12.25 15.2499C10.9167 16.2499 9.08335 16.2499 7.75001 15.2499L5.55001 13.5999C5.21864 13.3514 5.15149 12.8813 5.40001 12.5499Z" fill="#28303F"/>
</svg>
