<svg width="24" height="24" viewBox="0 0 24 24" fill="none" xmlns="http://www.w3.org/2000/svg">
<path d="M20 20L4 4" stroke="#28303F" stroke-width="1.5" stroke-linecap="round"/>
<path fill-rule="evenodd" clip-rule="evenodd" d="M11.2501 10.3106V11.5985L5.58405 15.3759C5.23941 15.6056 5.14628 16.0713 5.37604 16.4159C5.60581 16.7606 6.07146 16.8537 6.4161 16.6239L11.2501 13.4013V18.8649C11.2501 20.3486 12.9806 21.1591 14.1204 20.2092L17.9541 17.0145L16.889 15.9495L13.1601 19.0569C12.9973 19.1926 12.7501 19.0768 12.7501 18.8649V12.4013L13.1045 12.165L11.2501 10.3106ZM18.5238 15.463L18.5358 15.4749C18.5318 15.4709 18.5278 15.4669 18.5238 15.463ZM14.3773 11.3165L13.2956 10.2348L16.4697 8.11875C16.6088 8.02605 16.6195 7.82566 16.4911 7.71868L13.1601 4.94288C12.9973 4.80719 12.7501 4.92298 12.7501 5.13494V9.68923L11.2501 8.18923V5.13494C11.2501 3.65122 12.9806 2.8407 14.1204 3.79055L17.4514 6.56635C18.35 7.31522 18.2751 8.71795 17.3018 9.36683L14.3773 11.3165Z" fill="#28303F"/>
</svg>
