<svg width="24" height="24" viewBox="0 0 24 24" fill="none" xmlns="http://www.w3.org/2000/svg">
<path d="M21 12C21 7.3669 17.4991 3.55147 12.9984 3.05475C12.4494 2.99417 12 3.44772 12 4V4.5M3 12C3 16.6331 6.50088 20.4485 11.0016 20.9452C11.5506 21.0058 12 20.5523 12 20V19.5" stroke="#28303F" stroke-width="1.5" stroke-linecap="round" stroke-linejoin="round"/>
<path d="M13.5 12.5C13.5 11.6716 12.8284 11 12 11C11.1716 11 10.5 11.6716 10.5 12.5C10.5 13.3284 11.1716 14 12 14C12.8284 14 13.5 13.3284 13.5 12.5Z" fill="#28303F"/>
<path d="M17 13.8529V11.7353C17 10.2734 15.7563 9.08824 14.2222 9.08824H14.1522C13.9055 8.17488 13.0355 7.5 12 7.5C10.9645 7.5 10.0945 8.17488 9.84779 9.08824H9.77778C8.24365 9.08824 7 10.2734 7 11.7353V13.8529C7 15.3149 8.24365 16.5 9.77778 16.5H14.2222C15.7563 16.5 17 15.3149 17 13.8529Z" stroke="#28303F" stroke-width="1.5" stroke-linejoin="round"/>
</svg>
