<svg width="24" height="24" viewBox="0 0 24 24" fill="none" xmlns="http://www.w3.org/2000/svg">
<path d="M22 22L2 2" stroke="#28303F" stroke-width="1.5" stroke-linecap="round"/>
<path d="M14 14C14 15.1046 13.1046 16 12 16C10.8954 16 10 15.1046 10 14C10 12.8954 10.8954 12 12 12M12 8C15.3137 8 18 10.6863 18 14M7.75736 18.2426C6.67157 17.1569 6 15.6569 6 14C6 11.8306 7.15132 9.93015 8.87627 8.87627M4.92893 21.0711C3.11929 19.2614 2 16.7614 2 14C2 10.7286 3.57093 7.82401 5.99958 5.99958M21.4053 17.4053C21.7901 16.3424 22 15.1957 22 14C22 8.47715 17.5228 4 12 4C10.8043 4 9.6576 4.20986 8.59475 4.59475" stroke="#28303F" stroke-width="1.5" stroke-linecap="round"/>
</svg>
