<svg width="24" height="24" viewBox="0 0 24 24" fill="none" xmlns="http://www.w3.org/2000/svg">
<circle cx="6" cy="18" r="3" stroke="#28303F" stroke-width="1.5"/>
<path d="M3 3L21 21" stroke="#28303F" stroke-width="1.5" stroke-linecap="round" stroke-linejoin="round"/>
<path d="M19 12.0479V5.00197C19 3.58704 17.5709 2.61953 16.2572 3.14502L11.5144 5.04213C10.9453 5.2698 10.4496 5.61873 10.0522 6.05217M9 18.0479V9M19 15L19 10.002C19 8.58705 17.5709 7.61953 16.2572 8.14502L13.3199 9.31992M18.1451 18.1451C17.6005 18.7022 16.8406 19.0479 16 19.0479C14.3431 19.0479 13 17.7048 13 16.0479C13 15.2073 13.3457 14.4474 13.9028 13.9028" stroke="#28303F" stroke-width="1.5" stroke-linecap="round" stroke-linejoin="round"/>
</svg>
