<svg width="24" height="24" viewBox="0 0 24 24" fill="none" xmlns="http://www.w3.org/2000/svg">
<path d="M14 16V15C14 13.8954 14.8954 13 16 13V13C17.1046 13 18 13.8954 18 15V16" stroke="#28303F" stroke-width="1.5" stroke-linecap="round" stroke-linejoin="round"/>
<path d="M18 16H14C12.8954 16 12 16.8954 12 18V20C12 21.1046 12.8954 22 14 22H18C19.1046 22 20 21.1046 20 20V18C20 16.8954 19.1046 16 18 16Z" stroke="#28303F" stroke-width="1.5" stroke-linecap="round" stroke-linejoin="round"/>
<path d="M9 22H7C5.34315 22 4 20.6569 4 19V5C4 3.34315 5.34315 2 7 2H15C16.6569 2 18 3.34315 18 5V10" stroke="#28303F" stroke-width="1.5" stroke-linecap="round" stroke-linejoin="round"/>
</svg>
