<svg width="24" height="24" viewBox="0 0 24 24" fill="none" xmlns="http://www.w3.org/2000/svg">
<path d="M1.75 2L21.75 22" stroke="#28303F" stroke-width="1.5" stroke-linecap="round"/>
<path d="M1.75 2L4.85135 5.10135M15.75 12V9.33333L18.4213 6.95886C19.7111 5.81237 21.75 6.72798 21.75 8.45368V15.5463C21.75 16.251 21.41 16.8206 20.9199 17.1699M15.75 10V9C15.75 6.79086 13.9591 5 11.75 5H8.75M4.85135 5.10135C3.07493 5.50915 1.75 7.09985 1.75 9V15C1.75 17.2091 3.54086 19 5.75 19H11.75C13.6502 19 15.2409 17.6751 15.6487 15.8987L4.85135 5.10135Z" stroke="#28303F" stroke-width="1.5" stroke-linecap="round"/>
</svg>
