<svg width="24" height="24" viewBox="0 0 24 24" fill="none" xmlns="http://www.w3.org/2000/svg">
<circle cx="12" cy="11" r="3" stroke="#28303F" stroke-width="1.5"/>
<path d="M17 15V13.5C17 12.6716 17.6716 12 18.5 12V12C19.3284 12 20 12.6716 20 13.5V15" stroke="#28303F" stroke-width="1.5" stroke-linecap="round" stroke-linejoin="round"/>
<path d="M20 15H17C15.8954 15 15 15.8954 15 17V18C15 19.1046 15.8954 20 17 20H20C21.1046 20 22 19.1046 22 18V17C22 15.8954 21.1046 15 20 15Z" stroke="#28303F" stroke-width="1.5" stroke-linecap="round" stroke-linejoin="round"/>
<path d="M12 18C8.18448 18 4.82549 15.2047 2.86971 13.1469C1.7101 11.9268 1.7101 10.0732 2.86971 8.8531C4.82549 6.79533 8.18448 4 12 4C15.8155 4 19.1745 6.79533 21.1303 8.8531C21.7096 9.46266 21.9995 10.2304 22 10.9982" stroke="#28303F" stroke-width="1.5" stroke-linecap="round"/>
</svg>
