<svg width="24" height="24" viewBox="0 0 24 24" fill="none" xmlns="http://www.w3.org/2000/svg">
<path d="M12 10C13.1046 10 14 9.10457 14 8C14 6.89543 13.1046 6 12 6C10.8954 6 10 6.89543 10 8M4 19V5C4 3.34315 5.34315 2 7 2H17C18.6569 2 20 3.34315 20 5V16M4 19C4 20.6569 5.34315 22 7 22H17C18.6569 22 20 20.6569 20 19V16M4 19C4 17.3431 5.34315 16 7 16H20" stroke="#28303F" stroke-width="1.5" stroke-linecap="round" stroke-linejoin="round"/>
<path d="M13 13C13 13.5523 12.5523 14 12 14C11.4477 14 11 13.5523 11 13C11 12.4477 11.4477 12 12 12C12.5523 12 13 12.4477 13 13Z" fill="#28303F"/>
</svg>
