<svg width="24" height="24" viewBox="0 0 24 24" fill="none" xmlns="http://www.w3.org/2000/svg">
<path d="M4 19V5C4 3.34315 5.34315 2 7 2H17C18.6569 2 20 3.34315 20 5V16M4 19C4 20.6569 5.34315 22 7 22H17C18.6569 22 20 20.6569 20 19V16M4 19C4 17.3431 5.34315 16 7 16H20M12 7.65165L12.221 7.43068C12.8312 6.82049 13.8205 6.82048 14.4307 7.43068C15.0409 8.04087 15.0409 9.03019 14.4307 9.64039L12.8839 11.1872C12.3957 11.6753 11.6043 11.6753 11.1161 11.1872L9.56932 9.64039C8.95913 9.03019 8.95913 8.04087 9.56932 7.43068C10.1795 6.82049 11.1688 6.82049 11.779 7.43068L12 7.65165Z" stroke="#28303F" stroke-width="1.5" stroke-linejoin="round"/>
</svg>
