<svg width="24" height="24" viewBox="0 0 24 24" fill="none" xmlns="http://www.w3.org/2000/svg">
<path d="M2 7H22M14 12H18M14 16H18M7.44721 16.2764L10.2111 14.8944C10.9482 14.5259 10.9482 13.4741 10.2111 13.1056L7.44721 11.7236C6.78231 11.3912 6 11.8747 6 12.618V15.382C6 16.1253 6.78231 16.6088 7.44721 16.2764ZM6 22H18C20.2091 22 22 20.2091 22 18V6C22 3.79086 20.2091 2 18 2H6C3.79086 2 2 3.79086 2 6V18C2 20.2091 3.79086 22 6 22Z" stroke="#28303F" stroke-width="1.5" stroke-linecap="round"/>
</svg>
