<svg width="24" height="24" viewBox="0 0 24 24" fill="none" xmlns="http://www.w3.org/2000/svg">
<path d="M12 20V14M12 20C12 21.1046 11.1046 22 10 22H4C2.89543 22 2 21.1046 2 20V14C2 12.8954 2.89543 12 4 12H10C11.1046 12 12 12.8954 12 14M12 20C12 21.1046 12.8954 22 14 22H20C21.1046 22 22 21.1046 22 20V14C22 12.8954 21.1046 12 20 12H14C12.8954 12 12 12.8954 12 14M12 9V5L11 5.5M11 9H13M9 12H15C16.1046 12 17 11.1046 17 10V4C17 2.89543 16.1046 2 15 2H9C7.89543 2 7 2.89543 7 4V10C7 11.1046 7.89543 12 9 12Z" stroke="#28303F" stroke-width="1.5" stroke-linecap="round" stroke-linejoin="round"/>
</svg>
