<svg width="24" height="24" viewBox="0 0 24 24" fill="none" xmlns="http://www.w3.org/2000/svg">
<path d="M12 14C13.1046 14 14 13.1046 14 12C14 10.8954 13.1046 10 12 10C10.8954 10 10 10.8954 10 12C10 13.1046 10.8954 14 12 14ZM12 14V22M7 6H17C18.1046 6 19 5.10457 19 4C19 2.89543 18.1046 2 17 2H7C5.89543 2 5 2.89543 5 4C5 5.10457 5.89543 6 7 6ZM6.99197 6H17.008L18.7221 11.3282C19.2189 12.5829 19.0429 13.9811 18.2476 15.0968L12.9519 21.526C12.5014 22.158 11.4986 22.158 11.0481 21.526L5.75238 15.0968C4.95707 13.9811 4.78105 12.5829 5.27795 11.3282L6.99197 6Z" stroke="#28303F" stroke-width="1.5"/>
</svg>
