<svg width="24" height="24" viewBox="0 0 24 24" fill="none" xmlns="http://www.w3.org/2000/svg">
<path d="M20.5354 16.1065C19.6068 17.0351 18.5044 17.7717 17.2912 18.2742C16.0779 18.7768 14.7776 19.0354 13.4644 19.0354M13.4644 19.0354C12.1511 19.0354 10.8508 18.7768 9.63752 18.2742C8.42426 17.7717 7.32187 17.0351 6.39329 16.1065C5.4647 15.1779 4.72811 14.0755 4.22556 12.8623C3.72301 11.649 3.46436 10.3486 3.46436 9.03542C3.46436 7.7222 3.72301 6.42184 4.22556 5.20859C4.72811 3.99533 5.4647 2.89294 6.39329 1.96436M13.4644 19.0354L13.4646 22.0354M13.4646 22.0354H10.4646M13.4646 22.0354H16.4646M20.4646 9.03543C20.4646 12.9014 17.3306 16.0354 13.4646 16.0354C9.59858 16.0354 6.46458 12.9014 6.46458 9.03543C6.46458 5.16944 9.59858 2.03543 13.4646 2.03543C17.3306 2.03543 20.4646 5.16944 20.4646 9.03543Z" stroke="#28303F" stroke-width="1.5" stroke-linecap="round"/>
</svg>
