<svg width="24" height="24" viewBox="0 0 24 24" fill="none" xmlns="http://www.w3.org/2000/svg">
<path d="M12 19V22M12 22H9M12 22H15M14 8C14 6.89543 13.1046 6 12 6C10.8954 6 10 6.89543 10 8C10 9.10457 10.8954 10 12 10C13.1046 10 14 9.10457 14 8ZM6 19H18C20.2091 19 22 17.2091 22 15V6C22 3.79086 20.2091 2 18 2H6C3.79086 2 2 3.79086 2 6V15C2 17.2091 3.79086 19 6 19ZM9.5 15H14.5C15.3284 15 16 14.3284 16 13.5C16 12.6716 15.3284 12 14.5 12H9.5C8.67157 12 8 12.6716 8 13.5C8 14.3284 8.67157 15 9.5 15Z" stroke="#28303F" stroke-width="1.5" stroke-linecap="round"/>
</svg>
