<svg width="24" height="24" viewBox="0 0 24 24" fill="none" xmlns="http://www.w3.org/2000/svg">
<path fill-rule="evenodd" clip-rule="evenodd" d="M12.5301 2.98432C12.2372 2.69143 11.7623 2.69143 11.4694 2.98432C11.1765 3.27721 11.1765 3.75209 11.4694 4.04498L18.5405 11.116C19.0286 11.6042 19.0286 12.3957 18.5405 12.8838L15.5781 15.8462V14.8284C15.5781 14.4142 15.2423 14.0784 14.8281 14.0784C14.4139 14.0784 14.0781 14.4142 14.0781 14.8284V16.6568C14.0781 17.6233 14.8616 18.4068 15.8281 18.4068H17.6566C18.0708 18.4068 18.4066 18.071 18.4066 17.6568C18.4066 17.2426 18.0708 16.9068 17.6566 16.9068H16.6388L19.6012 13.9445C20.6751 12.8705 20.6751 11.1293 19.6012 10.0554L12.5301 2.98432ZM6.34283 5.59302C5.92862 5.59302 5.59283 5.9288 5.59283 6.34302C5.59283 6.75723 5.92862 7.09302 6.34283 7.09302H7.36055L4.39823 10.0553C3.32429 11.1293 3.32429 12.8705 4.39823 13.9444L11.4693 21.0155C11.7622 21.3084 12.2371 21.3084 12.53 21.0155C12.8229 20.7226 12.8229 20.2477 12.53 19.9548L5.45889 12.8838C4.97073 12.3956 4.97073 11.6042 5.45889 11.116L8.42126 8.15363L8.42126 9.17144C8.42126 9.58566 8.75704 9.92144 9.17126 9.92144C9.58547 9.92144 9.92126 9.58566 9.92126 9.17144L9.92126 7.34302C9.92126 6.37652 9.13775 5.59302 8.17126 5.59302L6.34283 5.59302Z" fill="#28303F"/>
</svg>
