<svg width="24" height="24" viewBox="0 0 24 24" fill="none" xmlns="http://www.w3.org/2000/svg">
<path fill-rule="evenodd" clip-rule="evenodd" d="M13.1598 4.94288C12.997 4.80719 12.7497 4.92298 12.7497 5.13494V10.5985L16.4694 8.11875C16.6084 8.02605 16.6191 7.82566 16.4908 7.71868L13.1598 4.94288ZM11.2497 10.5985V5.13494C11.2497 3.65122 12.9802 2.8407 14.1201 3.79055L17.451 6.56635C18.3497 7.31522 18.2747 8.71795 17.3014 9.36683L13.3518 11.9999L17.3014 14.633C18.2747 15.2818 18.3497 16.6846 17.451 17.4334L14.1201 20.2092C12.9802 21.1591 11.2497 20.3486 11.2497 18.8649V13.4013L6.41577 16.6239C6.07112 16.8537 5.60547 16.7606 5.3757 16.4159C5.14594 16.0713 5.23907 15.6056 5.58372 15.3759L10.6477 11.9999L5.58372 8.62393C5.23907 8.39417 5.14594 7.92852 5.3757 7.58387C5.60547 7.23922 6.07112 7.14609 6.41577 7.37586L11.2497 10.5985ZM12.7497 13.4013V18.8649C12.7497 19.0768 12.997 19.1926 13.1598 19.0569L16.4908 16.2811C16.6191 16.1741 16.6084 15.9737 16.4694 15.881L12.7497 13.4013ZM18.414 10.5857L19.8282 11.9999L18.414 13.4141L16.9998 11.9999L18.414 10.5857ZM6.99981 11.9999L5.5856 10.5857L4.17139 11.9999L5.5856 13.4141L6.99981 11.9999Z" fill="#28303F"/>
</svg>
