<svg width="24" height="24" viewBox="0 0 24 24" fill="none" xmlns="http://www.w3.org/2000/svg">
<path fill-rule="evenodd" clip-rule="evenodd" d="M15.1161 5.94449C15.1586 5.90202 15.2033 5.86325 15.25 5.82817L15.25 13.9999C15.25 14.4142 15.5858 14.7499 16 14.7499C16.4142 14.7499 16.75 14.4142 16.75 13.9999L16.75 5.82817C16.7967 5.86325 16.8414 5.90202 16.8839 5.94449L18.4697 7.53027C18.7626 7.82316 19.2374 7.82316 19.5303 7.53027C19.8232 7.23738 19.8232 6.7625 19.5303 6.46961L17.9445 4.88382C16.8706 3.80988 15.1294 3.80988 14.0555 4.88383L12.4697 6.46961C12.1768 6.76251 12.1768 7.23738 12.4697 7.53027C12.7626 7.82317 13.2374 7.82317 13.5303 7.53027L15.1161 5.94449ZM8.88388 18.0555C8.84142 18.098 8.79666 18.1368 8.75 18.1718L8.75 10.0001C8.75 9.58584 8.41421 9.25006 8 9.25006C7.58579 9.25006 7.25 9.58584 7.25 10.0001L7.25 18.1718C7.20334 18.1368 7.15858 18.098 7.11612 18.0555L5.53033 16.4697C5.23744 16.1768 4.76256 16.1768 4.46967 16.4697C4.17678 16.7626 4.17678 17.2375 4.46967 17.5304L6.05546 19.1162C7.1294 20.1901 8.8706 20.1901 9.94454 19.1162L11.5303 17.5304C11.8232 17.2375 11.8232 16.7626 11.5303 16.4697C11.2374 16.1768 10.7626 16.1768 10.4697 16.4697L8.88388 18.0555Z" fill="#28303F"/>
</svg>
