<svg width="24" height="24" viewBox="0 0 24 24" fill="none" xmlns="http://www.w3.org/2000/svg">
<path fill-rule="evenodd" clip-rule="evenodd" d="M5.3777 4.94321L10.3755 2.72195C11.4098 2.26228 12.5904 2.26228 13.6246 2.72195L18.6026 4.9344C20.0583 5.58138 21.0139 7.03549 20.9119 8.62522C20.5206 14.723 18.7773 17.4796 14.0647 20.6776C12.821 21.5215 11.1805 21.5195 9.93588 20.6769C5.23776 17.4962 3.42971 14.7781 3.07008 8.60384C2.97809 7.02455 3.93208 5.5857 5.3777 4.94321ZM15.5645 10.4938C15.8373 10.1821 15.8057 9.70826 15.494 9.43549C15.1822 9.16273 14.7084 9.19432 14.4356 9.50605L11.5657 12.7859C11.4776 12.8866 11.3259 12.9001 11.2214 12.8165L9.4686 11.4143C9.14515 11.1555 8.67319 11.208 8.41443 11.5314C8.15567 11.8549 8.20811 12.3268 8.53156 12.5856L10.2844 13.9878C11.0157 14.5729 12.0779 14.4785 12.6946 13.7737L15.5645 10.4938Z" fill="#28303F"/>
</svg>
