<svg width="24" height="24" viewBox="0 0 24 24" fill="none" xmlns="http://www.w3.org/2000/svg">
<path fill-rule="evenodd" clip-rule="evenodd" d="M10.2001 3.40008L11.2001 2.06675C11.6001 1.53341 12.4001 1.53341 12.8001 2.06675L13.8001 3.40008C14.2945 4.05932 13.8242 5.00008 13.0001 5.00008H12.75V10.9594L17.079 9.51641C17.1811 9.48238 17.25 9.38685 17.25 9.27924V7.2993C16.8016 7.03994 16.5 6.5552 16.5 6C16.5 5.17157 17.1716 4.5 18 4.5C18.8284 4.5 19.5 5.17157 19.5 6C19.5 6.55523 19.1983 7.04 18.75 7.29935V9.27924C18.75 10.0325 18.268 10.7012 17.5534 10.9394L12.75 12.5406V13.9808C12.7503 13.9935 12.7503 14.0062 12.75 14.019V18C12.75 18.0479 12.7455 18.0947 12.7369 18.1401C13.4768 18.4335 14 19.1557 14 20C14 21.1046 13.1046 22 12 22C10.8954 22 10 21.1046 10 20C10 19.1557 10.5232 18.4335 11.2631 18.1401C11.2545 18.0947 11.25 18.0479 11.25 18V14.5406L6.44664 12.9394C5.73204 12.7012 5.25004 12.0325 5.25004 11.2792V9.46851C4.81871 9.35751 4.5 8.96597 4.5 8.5V7.5C4.5 6.94772 4.94772 6.5 5.5 6.5H6.5C7.05228 6.5 7.5 6.94772 7.5 7.5V8.5C7.5 8.96595 7.18133 9.35746 6.75004 9.46849V11.2792C6.75004 11.3868 6.8189 11.4824 6.92098 11.5164L11.25 12.9594V12.019C11.2497 12.0062 11.2497 11.9935 11.25 11.9808V5.00008H11.0001C10.1761 5.00008 9.70568 4.05932 10.2001 3.40008Z" fill="#28303F"/>
</svg>
