<svg width="24" height="24" viewBox="0 0 24 24" fill="none" xmlns="http://www.w3.org/2000/svg">
<path fill-rule="evenodd" clip-rule="evenodd" d="M13.1005 5.24258C12.3195 6.02363 12.3195 7.28996 13.1005 8.07101L15.9289 10.8994C16.71 11.6805 17.9763 11.6805 18.7574 10.8994L21.5858 8.07101C22.3668 7.28996 22.3668 6.02363 21.5858 5.24258L18.7574 2.41416C17.9763 1.63311 16.71 1.63311 15.9289 2.41416L13.1005 5.24258ZM4 2.00005C2.89543 2.00005 2 2.89548 2 4.00005V8.00005C2 9.10462 2.89543 10 4 10H8C9.10457 10 10 9.10462 10 8.00005V4.00005C10 2.89548 9.10457 2.00005 8 2.00005H4ZM4 14C2.89543 14 2 14.8955 2 16V20C2 21.1046 2.89543 22 4 22H8C9.10457 22 10 21.1046 10 20V16C10 14.8955 9.10457 14 8 14H4ZM14 16C14 14.8955 14.8954 14 16 14H20C21.1046 14 22 14.8955 22 16V20C22 21.1046 21.1046 22 20 22H16C14.8954 22 14 21.1046 14 20V16Z" fill="#28303F"/>
</svg>
