<svg width="24" height="24" viewBox="0 0 24 24" fill="none" xmlns="http://www.w3.org/2000/svg">
<path fill-rule="evenodd" clip-rule="evenodd" d="M10.3931 18.8304L3.03601 8.89839C2.44212 8.09664 2.52319 6.96823 3.29596 6.3371C8.74399 1.88763 15.2564 1.88763 20.7044 6.3371C21.4771 6.96823 21.5582 8.09664 20.9643 8.89839L19.2502 11.2125V10C19.2502 8.75736 18.2428 7.75 17.0002 7.75C15.7575 7.75 14.7502 8.75736 14.7502 10V17.2875L13.6073 18.8304C12.8077 19.9098 11.1926 19.9098 10.3931 18.8304ZM17.7502 10C17.7502 9.58579 17.4145 9.25 17.0002 9.25C16.586 9.25 16.2502 9.58579 16.2502 10V14C16.2502 14.4142 16.586 14.75 17.0002 14.75C17.4145 14.75 17.7502 14.4142 17.7502 14V10ZM17.7502 17C17.7502 16.5858 17.4145 16.25 17.0002 16.25C16.586 16.25 16.2502 16.5858 16.2502 17V18C16.2502 18.4142 16.586 18.75 17.0002 18.75C17.4145 18.75 17.7502 18.4142 17.7502 18V17Z" fill="#28303F"/>
</svg>
