<svg width="24" height="24" viewBox="0 0 24 24" fill="none" xmlns="http://www.w3.org/2000/svg">
<path fill-rule="evenodd" clip-rule="evenodd" d="M10.8031 4.13637C12.5688 2.37072 15.4315 2.37072 17.1971 4.13637C18.9628 5.90203 18.9628 8.76471 17.1971 10.5304L11.8638 15.8637C10.8345 16.893 9.16573 16.893 8.13646 15.8637C7.10718 14.8344 7.10718 13.1657 8.13646 12.1364L13.4698 6.80304C13.7627 6.51015 14.2376 6.51015 14.5305 6.80304C14.8233 7.09593 14.8233 7.57081 14.5305 7.8637L9.19712 13.197C8.75363 13.6405 8.75363 14.3596 9.19712 14.803C9.6406 15.2465 10.3596 15.2465 10.8031 14.803L16.1365 9.46971C17.3163 8.28984 17.3163 6.3769 16.1365 5.19703C14.9566 4.01717 13.0436 4.01717 11.8638 5.19703L6.53045 10.5304C4.6142 12.4466 4.6142 15.5535 6.53045 17.4697C8.44669 19.386 11.5535 19.386 13.4698 17.4697L18.8031 12.1364C19.096 11.8435 19.5709 11.8435 19.8638 12.1364C20.1567 12.4293 20.1567 12.9041 19.8638 13.197L14.5305 18.5304C12.0284 21.0324 7.97182 21.0324 5.46979 18.5304C2.96776 16.0283 2.96775 11.9717 5.46979 9.46971L10.8031 4.13637Z" fill="#28303F"/>
</svg>
