<svg width="24" height="24" viewBox="0 0 24 24" fill="none" xmlns="http://www.w3.org/2000/svg">
<path d="M6 10H7C8.10457 10 9 9.10457 9 8V7.5C9 6.67157 9.67157 6 10.5 6C11.3284 6 12 6.67157 12 7.5V12.5C12 13.3284 12.6716 14 13.5 14C14.3284 14 15 13.3284 15 12.5V12C15 10.8954 15.8954 10 17 10H18M12 18V22M6 18H18C20.2091 18 22 16.2091 22 14V6C22 3.79086 20.2091 2 18 2H6C3.79086 2 2 3.79086 2 6V14C2 16.2091 3.79086 18 6 18Z" stroke="#28303F" stroke-width="1.5" stroke-linecap="round"/>
<path d="M14 22L10 22" stroke="#28303F" stroke-width="1.5" stroke-linecap="round"/>
</svg>
