<svg width="24" height="24" viewBox="0 0 24 24" fill="none" xmlns="http://www.w3.org/2000/svg">
<path d="M18 7C19.6569 7 21 8.34315 21 10V14C21 15.6569 19.6569 17 18 17L6 17C4.34315 17 3 15.6569 3 14L3 10C3 8.34314 4.34315 7 6 7L18 7Z" stroke="#28303F" stroke-width="1.5" stroke-linejoin="round"/>
<path d="M17 17V19C17 20.1046 16.1046 21 15 21H9C7.89543 21 7 20.1046 7 19L7 17L17 17Z" stroke="#28303F" stroke-width="1.5" stroke-linejoin="round"/>
<path d="M7 7V5C7 3.89543 7.89543 3 9 3L15 3C16.1046 3 17 3.89543 17 5L17 7L7 7Z" stroke="#28303F" stroke-width="1.5" stroke-linejoin="round"/>
</svg>
