<svg width="24" height="24" viewBox="0 0 24 24" fill="none" xmlns="http://www.w3.org/2000/svg">
<path fill-rule="evenodd" clip-rule="evenodd" d="M5.45902 2.45929C5.75191 2.16639 5.75191 1.69152 5.45902 1.39863C5.16613 1.10573 4.69125 1.10573 4.39836 1.39863C3.40013 2.39685 2.60829 3.58193 2.06805 4.88618C1.52781 6.19043 1.24976 7.58831 1.24976 9.00002C1.24976 10.4117 1.52781 11.8096 2.06805 13.1139C2.60829 14.4181 3.40013 15.6032 4.39836 16.6014C5.39659 17.5997 6.58166 18.3915 7.88591 18.9317C8.95866 19.3761 10.0948 19.6431 11.2498 19.7238L11.2499 21.25H8.9999C8.58569 21.25 8.2499 21.5858 8.2499 22C8.2499 22.4142 8.58569 22.75 8.9999 22.75H14.9999C15.4141 22.75 15.7499 22.4142 15.7499 22C15.7499 21.5858 15.4141 21.25 14.9999 21.25H12.7499L12.7498 19.7238C13.9048 19.643 15.0409 19.3761 16.1136 18.9317C17.4179 18.3915 18.6029 17.5997 19.6012 16.6014C19.894 16.3085 19.894 15.8337 19.6012 15.5408C19.3083 15.2479 18.8334 15.2479 18.5405 15.5408C17.6816 16.3997 16.6618 17.0811 15.5396 17.5459C14.4173 18.0108 13.2145 18.25 11.9998 18.25C10.785 18.25 9.5822 18.0108 8.45993 17.5459C7.33767 17.0811 6.31796 16.3997 5.45902 15.5408C4.60008 14.6818 3.91873 13.6621 3.45387 12.5398C2.98901 11.4176 2.74976 10.2147 2.74976 9.00002C2.74976 7.7853 2.98901 6.58246 3.45387 5.4602C3.91873 4.33794 4.60008 3.31823 5.45902 2.45929ZM12 16C15.866 16 19 12.866 19 9C19 5.13401 15.866 2 12 2C8.13401 2 5 5.13401 5 9C5 12.866 8.13401 16 12 16Z" fill="#28303F"/>
</svg>
