<svg width="24" height="25" viewBox="0 0 24 25" fill="none" xmlns="http://www.w3.org/2000/svg">
<path fill-rule="evenodd" clip-rule="evenodd" d="M16 18.4583V18.7499C16 21.0511 14.2091 22.9166 12 22.9166C9.79086 22.9166 8 21.0511 8 18.7499V18.4583H11.7893C11.8561 18.4786 11.9268 18.4895 12 18.4895C12.0732 18.4895 12.1439 18.4786 12.2107 18.4583H16ZM16 16.9583V16.4465C16 15.7655 16.3334 15.1419 16.8085 14.674C18.158 13.3448 19 11.4623 19 9.37492C19 5.34784 15.866 2.08325 12 2.08325C8.13401 2.08325 5 5.34784 5 9.37492C5 11.4623 5.84201 13.3448 7.19153 14.674C7.66659 15.1419 8 15.7655 8 16.4465V16.9583H11.25V11.7819L9.46967 9.92735C9.17678 9.62225 9.17678 9.12759 9.46967 8.82249C9.76256 8.51739 10.2374 8.51739 10.5303 8.82249L12 10.3534L13.4697 8.82249C13.7626 8.51739 14.2374 8.51739 14.5303 8.82249C14.8232 9.12759 14.8232 9.62225 14.5303 9.92735L12.75 11.7819V16.9583H16Z" fill="#28303F"/>
</svg>
