<svg width="24" height="24" viewBox="0 0 24 24" fill="none" xmlns="http://www.w3.org/2000/svg">
<path fill-rule="evenodd" clip-rule="evenodd" d="M18.5 11.5V6H20V11.5C20 11.9142 19.6642 12.25 19.25 12.25C18.8358 12.25 18.5 11.9142 18.5 11.5Z" fill="#28303F"/>
<path d="M16 10V7H8V10C8 12.2091 9.79086 14 12 14C14.2091 14 16 12.2091 16 10Z" fill="#28303F"/>
<path d="M4.02813 5.5431L10.7817 2.54152C11.5574 2.19677 12.4428 2.19677 13.2185 2.54152L19.9721 5.5431C20.368 5.71906 20.368 6.28095 19.9721 6.45691L13.2185 9.45849C12.4428 9.80324 11.5574 9.80324 10.7817 9.45849L4.02813 6.45691C3.63222 6.28095 3.63222 5.71906 4.02813 5.5431Z" fill="#28303F"/>
<path d="M14.2996 15.3996L12.711 17.0059C12.3196 17.4017 11.6804 17.4017 11.289 17.0059L9.70045 15.3996C9.45505 15.1515 9.09681 15.0457 8.762 15.1442C5.95686 15.9691 4 17.8329 4 20.0001C4 21.1046 4.89543 22.0001 6 22.0001H18C19.1046 22.0001 20 21.1046 20 20.0001C20 17.8329 18.0431 15.9691 15.238 15.1442C14.9032 15.0457 14.5449 15.1515 14.2996 15.3996Z" fill="#28303F"/>
</svg>
