<svg width="24" height="24" viewBox="0 0 24 24" fill="none" xmlns="http://www.w3.org/2000/svg">
<path fill-rule="evenodd" clip-rule="evenodd" d="M17.1331 2.21275C16.3981 2.65072 16.1463 3.62071 16.5706 4.37929L19.1319 8.95772C19.5563 9.7163 20.4961 9.97621 21.2311 9.53824C21.9662 9.10028 22.218 8.13029 21.7936 7.37171L19.2324 2.79327C18.808 2.03469 17.8682 1.77478 17.1331 2.21275ZM15.0583 4.67017L7.44232 9.20821C6.4623 9.79216 6.12652 11.0855 6.69234 12.0969L6.83843 12.3581L6.82058 12.3684L3.0465 14.6172L2.65443 13.9164C2.45221 13.5549 1.99522 13.4258 1.63373 13.628C1.27223 13.8302 1.14312 14.2872 1.34535 14.6487L2.8821 17.3957C3.08433 17.7572 3.54131 17.8863 3.9028 17.6841C4.2643 17.4819 4.39341 17.0249 4.19118 16.6634L3.7791 15.9268L7.57089 13.6674L7.71684 13.9283C8.28265 14.9397 9.5358 15.2863 10.5158 14.7023L11.8861 13.8858L7.89988 21.6578C7.71085 22.0264 7.85639 22.4784 8.22495 22.6675C8.59351 22.8565 9.04554 22.711 9.23457 22.3424L13.6897 13.6561L18.1449 22.3424C18.3339 22.711 18.786 22.8565 19.1545 22.6675C19.5231 22.4784 19.6686 22.0264 19.4796 21.6578L14.649 12.2396L18.1437 10.1572C18.0247 10.014 17.9171 9.85807 17.8231 9.69001L15.2618 5.11158C15.1816 4.96814 15.1138 4.82054 15.0583 4.67017Z" fill="#28303F"/>
</svg>
