<svg width="24" height="24" viewBox="0 0 24 24" fill="none" xmlns="http://www.w3.org/2000/svg">
<path d="M13.5 8.42928C14.041 7.89892 14.702 7.49054 15.4386 7.24864M15.4386 7.24864C15.9299 7.08728 16.4547 7 17 7C19.7614 7 22 9.23858 22 12C22 13.8507 20.9945 15.4666 19.5 16.3311M15.4386 7.24864C14.3696 4.75042 11.8892 3 9 3C5.13401 3 2 6.13401 2 10C2 12.591 3.4077 14.8532 5.5 16.0635M13 11L8 17H11V21L16 15H13V11Z" stroke="#28303F" stroke-width="1.5" stroke-linecap="round" stroke-linejoin="round"/>
</svg>
