<svg width="24" height="24" viewBox="0 0 24 24" fill="none" xmlns="http://www.w3.org/2000/svg">
<path d="M11.2 14.2659C11.6328 13.8492 12.1616 13.5283 12.7509 13.3382M12.7509 13.3382C13.1439 13.2114 13.5638 13.1429 14 13.1429C14.9429 13.1429 15.8095 13.4633 16.4933 13.9993M12.7509 13.3382C11.8957 11.3753 9.91139 10 7.6 10C7.04515 10 6.50914 10.0793 6.00307 10.2269M12.8 7.26587C12.3672 6.84915 11.8384 6.52828 11.2491 6.33821M11.2491 6.33821C10.8561 6.21144 10.4362 6.14286 10 6.14286C7.79086 6.14286 6 7.90174 6 10.0714C6 10.1235 6.00103 10.1753 6.00307 10.2269M11.2491 6.33821C12.1043 4.37533 14.0886 3 16.4 3C19.4928 3 22 5.46243 22 8.5C22 11.507 19.5431 13.9503 16.4933 13.9993M16.4933 13.9993C17.4116 14.7191 18 15.8278 18 17.0714C18 19.2411 16.2091 21 14 21H7.6C4.50721 21 2 18.5376 2 15.5C2 13.0074 3.6883 10.902 6.00307 10.2269" stroke="#28303F" stroke-width="1.5" stroke-linecap="round" stroke-linejoin="round"/>
</svg>
