<svg width="24" height="24" viewBox="0 0 24 24" fill="none" xmlns="http://www.w3.org/2000/svg">
<path d="M17 20C19.7614 20 22 17.7614 22 15C22 13.3404 21.1914 11.8696 19.9468 10.9602M12.0058 6.67641C12.1186 4.32973 13.8491 2.40726 16.1064 2C16.0368 2.2955 16 2.60364 16 2.92038C16 5.12952 17.7909 6.92038 20 6.92038C20.7176 6.92038 21.391 6.73142 21.9733 6.40055C21.991 6.57142 22 6.74484 22 6.92038C22 8.57998 21.1914 10.0507 19.9468 10.9602M12.0058 6.67641C11.0951 6.24273 10.0759 6 9 6C5.13401 6 2 9.134 2 13C2 15.7924 3.63505 18.2029 6 19.3264M12.0058 6.67641C13.5408 7.40734 14.7677 8.68071 15.4386 10.2486C15.9299 10.0873 16.4547 10 17 10C18.1018 10 19.1204 10.3564 19.9468 10.9602M13 12L8 18H11V22L16 16H13V12Z" stroke="#28303F" stroke-width="1.5" stroke-linecap="round" stroke-linejoin="round"/>
</svg>
