<svg width="24" height="24" viewBox="0 0 24 24" fill="none" xmlns="http://www.w3.org/2000/svg">
<path d="M20.3085 8.75226C20.6014 8.45936 20.6014 7.98449 20.3085 7.6916C20.0156 7.3987 19.5407 7.3987 19.2478 7.6916L20.3085 8.75226ZM17.8336 9.10581C17.5407 9.3987 17.5407 9.87358 17.8336 10.1665C18.1265 10.4594 18.6014 10.4594 18.8943 10.1665L17.8336 9.10581ZM4.75216 7.69163C4.45927 7.39873 3.9844 7.39873 3.6915 7.69163C3.39861 7.98452 3.39861 8.45939 3.6915 8.75229L4.75216 7.69163ZM5.10572 10.1665C5.39861 10.4594 5.87348 10.4594 6.16638 10.1665C6.45927 9.87361 6.45927 9.39873 6.16638 9.10584L5.10572 10.1665ZM11.2929 2.7072L11.8232 3.23753V3.23753L11.2929 2.7072ZM9.46967 3.46976C9.17678 3.76266 9.17678 4.23753 9.46967 4.53042C9.76256 4.82332 10.2374 4.82332 10.5303 4.53042L9.46967 3.46976ZM12.7071 2.7072L12.1768 3.23753V3.23753L12.7071 2.7072ZM13.4697 4.53042C13.7626 4.82332 14.2374 4.82332 14.5303 4.53042C14.8232 4.23753 14.8232 3.76266 14.5303 3.46976L13.4697 4.53042ZM11.25 7.00009C11.25 7.41431 11.5858 7.75009 12 7.75009C12.4142 7.75009 12.75 7.41431 12.75 7.00009H11.25ZM12.75 3.00009C12.75 2.58588 12.4142 2.25009 12 2.25009C11.5858 2.25009 11.25 2.58588 11.25 3.00009H12.75ZM3 15.2501C2.58579 15.2501 2.25 15.5859 2.25 16.0001C2.25 16.4143 2.58579 16.7501 3 16.7501V15.2501ZM21 16.7501C21.4142 16.7501 21.75 16.4143 21.75 16.0001C21.75 15.5859 21.4142 15.2501 21 15.2501V16.7501ZM6 18.2501C5.58579 18.2501 5.25 18.5859 5.25 19.0001C5.25 19.4143 5.58579 19.7501 6 19.7501V18.2501ZM18 19.7501C18.4142 19.7501 18.75 19.4143 18.75 19.0001C18.75 18.5859 18.4142 18.2501 18 18.2501V19.7501ZM9 21.2501C8.58579 21.2501 8.25 21.5859 8.25 22.0001C8.25 22.4143 8.58579 22.7501 9 22.7501V21.2501ZM15 22.7501C15.4142 22.7501 15.75 22.4143 15.75 22.0001C15.75 21.5859 15.4142 21.2501 15 21.2501V22.7501ZM6.75 16.0001C6.75 13.1006 9.1005 10.7501 12 10.7501V9.25009C8.27208 9.25009 5.25 12.2722 5.25 16.0001H6.75ZM12 10.7501C14.8995 10.7501 17.25 13.1006 17.25 16.0001H18.75C18.75 12.2722 15.7279 9.25009 12 9.25009V10.7501ZM19.2478 7.6916L17.8336 9.10581L18.8943 10.1665L20.3085 8.75226L19.2478 7.6916ZM3.6915 8.75229L5.10572 10.1665L6.16638 9.10584L4.75216 7.69163L3.6915 8.75229ZM10.7626 2.17687L9.46967 3.46976L10.5303 4.53042L11.8232 3.23753L10.7626 2.17687ZM12.1768 3.23753L13.4697 4.53042L14.5303 3.46976L13.2374 2.17687L12.1768 3.23753ZM12.75 7.00009V3.00009H11.25V7.00009H12.75ZM11.8232 3.23753C11.9209 3.1399 12.0791 3.1399 12.1768 3.23753L13.2374 2.17687C12.554 1.49345 11.446 1.49345 10.7626 2.17687L11.8232 3.23753ZM3 16.7501H21V15.2501H3V16.7501ZM6 19.7501H18V18.2501H6V19.7501ZM9 22.7501H15V21.2501H9V22.7501Z" fill="#28303F"/>
</svg>
