<svg width="24" height="24" viewBox="0 0 24 24" fill="none" xmlns="http://www.w3.org/2000/svg">
<path d="M14 22H6C3.79086 22 2 20.2091 2 18V6C2 3.79086 3.79086 2 6 2H18C20.2091 2 22 3.79086 22 6V11" stroke="#28303F" stroke-width="1.5" stroke-linecap="round"/>
<path d="M8 2H16V9.58579C16 10.4767 14.9229 10.9229 14.2929 10.2929L12.7071 8.70711C12.3166 8.31658 11.6834 8.31658 11.2929 8.70711L9.70711 10.2929C9.07714 10.9229 8 10.4767 8 9.58579V2Z" stroke="#28303F" stroke-width="1.5" stroke-linejoin="round"/>
<circle cx="19" cy="17" r="1" fill="#28303F"/>
<path d="M22 17C22 18.5456 20.5314 20.376 19.6493 21.3361C19.2946 21.7222 18.7054 21.7222 18.3507 21.3361C17.4686 20.376 16 18.5456 16 17C16 14.7909 17.3431 14 19 14C20.6569 14 22 14.7909 22 17Z" stroke="#28303F" stroke-width="1.5" stroke-linejoin="round"/>
</svg>
