<svg width="24" height="24" viewBox="0 0 24 24" fill="none" xmlns="http://www.w3.org/2000/svg">
<path d="M18.9599 20L21.6983 15.5138C22.3473 14.4506 21.908 13.0468 20.7756 12.5649L12.7648 9.15621C12.2753 8.94793 11.7247 8.94793 11.2352 9.15621L3.22438 12.5649C2.09197 13.0468 1.65272 14.4506 2.3017 15.5138L5.04013 20" stroke="#28303F" stroke-width="1.5" stroke-linecap="square"/>
<path d="M18 11V4C18 2.89543 17.1046 2 16 2H8C6.89543 2 6 2.89543 6 4V11" stroke="#28303F" stroke-width="1.5"/>
<path d="M13 5H11" stroke="#28303F" stroke-width="1.5" stroke-linecap="round" stroke-linejoin="round"/>
<path d="M3 22L4.53245 20.9784C5.41741 20.3884 6.57362 20.4015 7.44494 21.0115V21.0115C8.29985 21.6099 9.43098 21.6348 10.3114 21.0745L10.4966 20.9567C11.4105 20.3751 12.59 20.3933 13.4912 20.9942V20.9942C14.3996 21.5997 15.5916 21.6055 16.5 21V21C17.4083 20.3944 18.5916 20.3944 19.5 21L21 22" stroke="#28303F" stroke-width="1.5" stroke-linecap="round" stroke-linejoin="round"/>
</svg>
