<svg width="24" height="24" viewBox="0 0 24 24" fill="none" xmlns="http://www.w3.org/2000/svg">
<path d="M12.2295 2.49958L12 2.7408L11.7705 2.49958C11.1367 1.83347 10.1091 1.83347 9.47534 2.49958C8.84155 3.1657 8.84155 4.24568 9.47534 4.91179L11.0819 6.60033C11.589 7.13322 12.411 7.13322 12.9181 6.60033L14.5247 4.91179C15.1584 4.24568 15.1584 3.1657 14.5247 2.49958C13.8909 1.83347 12.8633 1.83347 12.2295 2.49958Z" stroke="#28303F" stroke-width="1.5" stroke-linejoin="round"/>
<path d="M4 10V16.7639C4 17.5215 4.428 18.214 5.10557 18.5528L11.1056 21.5528C11.6686 21.8343 12.3314 21.8343 12.8944 21.5528L18.8944 18.5528C19.572 18.214 20 17.5215 20 16.7639V10" stroke="#28303F" stroke-width="1.5"/>
<path d="M18 5L20 6L12 10L4 6L6 5" stroke="#28303F" stroke-width="1.5" stroke-linecap="round" stroke-linejoin="round"/>
<path d="M20 6L12 10L14 13L22 9L20 6Z" stroke="#28303F" stroke-width="1.5" stroke-linecap="round" stroke-linejoin="round"/>
<path d="M4 6L12 10L10 13L2 9L4 6Z" stroke="#28303F" stroke-width="1.5" stroke-linecap="round" stroke-linejoin="round"/>
</svg>
