<svg width="24" height="24" viewBox="0 0 24 24" fill="none" xmlns="http://www.w3.org/2000/svg">
<path d="M12.2652 11.9168L12 12.182L11.7348 11.9168C11.0026 11.1846 9.81542 11.1846 9.08318 11.9168C8.35095 12.649 8.35095 13.8362 9.08318 14.5684L10.9393 16.4246C11.5251 17.0104 12.4749 17.0104 13.0607 16.4246L14.9168 14.5684C15.649 13.8362 15.649 12.649 14.9168 11.9168C14.1846 11.1846 12.9974 11.1846 12.2652 11.9168Z" stroke="#28303F" stroke-width="1.5" stroke-linejoin="round"/>
<path d="M22 18V8.40312C22 7.49484 21.6909 6.6136 21.1235 5.90434L19.201 3.50122C18.4419 2.55236 17.2926 2 16.0775 2H7.9225C6.70736 2 5.55811 2.55236 4.79902 3.50122L2.87652 5.90434C2.30912 6.6136 2 7.49484 2 8.40312V18C2 20.2091 3.79086 22 6 22H18C20.2091 22 22 20.2091 22 18Z" stroke="#28303F" stroke-width="1.5" stroke-linejoin="round"/>
<path d="M3 7H21" stroke="#28303F" stroke-width="1.5" stroke-linecap="round" stroke-linejoin="round"/>
</svg>
