<svg width="24" height="24" viewBox="0 0 24 24" fill="none" xmlns="http://www.w3.org/2000/svg">
<path d="M17.5 9.5L12 12L6.5 9.5" stroke="#28303F" stroke-width="1.5" stroke-linecap="round" stroke-linejoin="round"/>
<path d="M16.83 8.20316L12.83 6.3786C12.3028 6.13812 11.6972 6.13812 11.17 6.3786L7.16999 8.20316C6.4573 8.52825 6 9.23947 6 10.0228V14.9772C6 15.7605 6.4573 16.4718 7.16999 16.7968L11.17 18.6214C11.6972 18.8619 12.3028 18.8619 12.83 18.6214L16.83 16.7968C17.5427 16.4718 18 15.7605 18 14.9772V10.0228C18 9.23947 17.5427 8.52825 16.83 8.20316Z" stroke="#28303F" stroke-width="1.5" stroke-linecap="round" stroke-linejoin="round"/>
<path d="M12 12V18" stroke="#28303F" stroke-width="1.5" stroke-linecap="round" stroke-linejoin="round"/>
<path d="M12 2V3" stroke="#28303F" stroke-width="1.5" stroke-linecap="round" stroke-linejoin="round"/>
<path d="M12 21V22" stroke="#28303F" stroke-width="1.5" stroke-linecap="round" stroke-linejoin="round"/>
<path d="M20.0713 3.92896L19.3642 4.63606" stroke="#28303F" stroke-width="1.5" stroke-linecap="round" stroke-linejoin="round"/>
<path d="M4.63574 19.364L3.92864 20.0711" stroke="#28303F" stroke-width="1.5" stroke-linecap="round" stroke-linejoin="round"/>
<path d="M22 12L21 12" stroke="#28303F" stroke-width="1.5" stroke-linecap="round" stroke-linejoin="round"/>
<path d="M3 12L2 12" stroke="#28303F" stroke-width="1.5" stroke-linecap="round" stroke-linejoin="round"/>
<path d="M20.0713 20.071L19.3642 19.3639" stroke="#28303F" stroke-width="1.5" stroke-linecap="round" stroke-linejoin="round"/>
<path d="M4.63574 4.63599L3.92864 3.92888" stroke="#28303F" stroke-width="1.5" stroke-linecap="round" stroke-linejoin="round"/>
</svg>
