<svg width="24" height="24" viewBox="0 0 24 24" fill="none" xmlns="http://www.w3.org/2000/svg">
<path d="M4 12V19C4 20.6569 5.34315 22 7 22H17C18.6569 22 20 20.6569 20 19V12" stroke="#28303F" stroke-width="1.5"/>
<path d="M12 8H19.5C19.8148 8 20.1111 8.14819 20.3 8.4L21.8 10.4C22.2944 11.0592 21.824 12 21 12H15.5C15.1852 12 14.8889 11.8518 14.7 11.6L12 8Z" stroke="#28303F" stroke-width="1.5"/>
<path d="M12 8H4.5C4.18524 8 3.88885 8.14819 3.7 8.4L2.2 10.4C1.70557 11.0592 2.17595 12 3 12H8.5C8.81476 12 9.11115 11.8518 9.3 11.6L12 8Z" stroke="#28303F" stroke-width="1.5"/>
<path d="M10 3.58579L11.2929 2.29289C11.6834 1.90237 12.3166 1.90237 12.7071 2.29289L14 3.58579M12 5.5V2.58579" stroke="#28303F" stroke-width="1.5" stroke-linecap="round"/>
</svg>
