<svg width="24" height="24" viewBox="0 0 24 24" fill="none" xmlns="http://www.w3.org/2000/svg">
<circle cx="19" cy="5" r="1" fill="#28303F"/>
<path d="M22 5C22 6.54564 20.5314 8.37604 19.6493 9.33611C19.2946 9.72218 18.7054 9.72218 18.3507 9.33611C17.4686 8.37604 16 6.54564 16 5C16 2.79086 17.3431 2 19 2C20.6569 2 22 2.79086 22 5Z" stroke="#28303F" stroke-width="1.5" stroke-linejoin="round"/>
<path d="M7 14C7 12.8954 7.89543 12 9 12H15C16.1046 12 17 12.8954 17 14V20C17 21.1046 16.1046 22 15 22H9C7.89543 22 7 21.1046 7 20V14Z" stroke="#28303F" stroke-width="1.5" stroke-linejoin="round"/>
<path d="M11 14H13" stroke="#28303F" stroke-width="1.5" stroke-linecap="round" stroke-linejoin="round"/>
<path d="M4.84615 17H4C2.89543 17 2 16.1046 2 15V9C2 7.89543 2.89543 7 4 7H14" stroke="#28303F" stroke-width="1.5" stroke-linecap="round" stroke-linejoin="round"/>
</svg>
