<svg width="24" height="24" viewBox="0 0 24 24" fill="none" xmlns="http://www.w3.org/2000/svg">
<path d="M2 10.0826C2 8.77737 2.63684 7.55421 3.70615 6.80569L9.70615 2.6057C11.0834 1.6416 12.9166 1.6416 14.2938 2.60569L20.2938 6.80569C21.3632 7.55421 22 8.77737 22 10.0826V20C22 21.1046 21.1046 22 20 22H4C2.89543 22 2 21.1046 2 20V10.0826Z" stroke="#28303F" stroke-width="1.5"/>
<path d="M18 22V12C18 10.8954 17.1046 10 16 10H8C6.89543 10 6 10.8954 6 12V22" stroke="#28303F" stroke-width="1.5"/>
<path d="M18 14L6 14" stroke="#28303F" stroke-width="1.5" stroke-linecap="round" stroke-linejoin="round"/>
<path d="M18 18L6 18" stroke="#28303F" stroke-width="1.5" stroke-linecap="round" stroke-linejoin="round"/>
</svg>
