<svg width="24" height="24" viewBox="0 0 24 24" fill="none" xmlns="http://www.w3.org/2000/svg">
<path fill-rule="evenodd" clip-rule="evenodd" d="M5.45926 5.45929C5.75216 5.16639 5.75216 4.69152 5.45926 4.39863C5.16637 4.10573 4.6915 4.10573 4.3986 4.39863C2.45406 6.34317 1.25 9.0317 1.25 12C1.25 14.9683 2.45406 17.6569 4.3986 19.6014C4.6915 19.8943 5.16637 19.8943 5.45926 19.6014C5.75216 19.3085 5.75216 18.8337 5.45926 18.5408C3.78452 16.866 2.75 14.5545 2.75 12C2.75 9.4455 3.78452 7.13403 5.45926 5.45929ZM19.6014 4.39863C19.3085 4.10573 18.8336 4.10573 18.5407 4.39863C18.2478 4.69152 18.2478 5.16639 18.5407 5.45929C20.2155 7.13403 21.25 9.4455 21.25 12C21.25 14.5545 20.2155 16.866 18.5407 18.5408C18.2478 18.8337 18.2478 19.3085 18.5407 19.6014C18.8336 19.8943 19.3085 19.8943 19.6014 19.6014C21.5459 17.6569 22.75 14.9683 22.75 12C22.75 9.0317 21.5459 6.34317 19.6014 4.39863ZM8.28769 8.28771C8.58058 7.99482 8.58058 7.51995 8.28769 7.22705C7.9948 6.93416 7.51992 6.93416 7.22703 7.22705C6.00634 8.44774 5.25 10.1363 5.25 12C5.25 13.8638 6.00634 15.5523 7.22703 16.773C7.51992 17.0659 7.9948 17.0659 8.28769 16.773C8.58058 16.4801 8.58058 16.0052 8.28769 15.7123C7.33681 14.7614 6.75 13.45 6.75 12C6.75 10.5501 7.33681 9.2386 8.28769 8.28771ZM16.773 7.22705C16.4801 6.93416 16.0052 6.93416 15.7123 7.22705C15.4194 7.51995 15.4194 7.99482 15.7123 8.28771C16.6632 9.2386 17.25 10.5501 17.25 12C17.25 13.45 16.6632 14.7614 15.7123 15.7123C15.4194 16.0052 15.4194 16.4801 15.7123 16.773C16.0052 17.0659 16.4801 17.0659 16.773 16.773C17.9937 15.5523 18.75 13.8638 18.75 12C18.75 10.1363 17.9937 8.44774 16.773 7.22705ZM12 14.5C13.3807 14.5 14.5 13.3807 14.5 12C14.5 10.6193 13.3807 9.5 12 9.5C10.6193 9.5 9.5 10.6193 9.5 12C9.5 13.3807 10.6193 14.5 12 14.5Z" fill="#28303F"/>
</svg>
