<svg width="24" height="24" viewBox="0 0 24 24" fill="none" xmlns="http://www.w3.org/2000/svg">
<path d="M14 14.5858L12.7071 13.2929C12.3166 12.9024 11.6834 12.9024 11.2929 13.2929L10 14.5858M12 18.5858V13.5858" stroke="#28303F" stroke-width="1.5" stroke-linecap="round"/>
<path d="M8.06903 22H15.9314C17.7727 22 19.3762 20.7429 19.8157 18.9548L21.7822 10.9548C22.4018 8.43408 20.4936 6 17.8979 6H6.1025C3.50672 6 1.5985 8.4341 2.21814 10.9548L4.18467 18.9548C4.62422 20.743 6.22768 22 8.06903 22Z" stroke="#28303F" stroke-width="1.5" stroke-linecap="round" stroke-linejoin="round"/>
<path d="M3 10H21" stroke="#28303F" stroke-width="1.5" stroke-linecap="round"/>
<path d="M9 2L6 6" stroke="#28303F" stroke-width="1.5" stroke-linecap="round" stroke-linejoin="round"/>
<path d="M15 2L18 6" stroke="#28303F" stroke-width="1.5" stroke-linecap="round" stroke-linejoin="round"/>
</svg>
