<svg width="24" height="24" viewBox="0 0 24 24" fill="none" xmlns="http://www.w3.org/2000/svg">
<path d="M6.5 16C6.5 16.8284 5.82843 17.5 5 17.5C4.17157 17.5 3.5 16.8284 3.5 16C3.5 15.1716 4.17157 14.5 5 14.5C5.82843 14.5 6.5 15.1716 6.5 16Z" fill="#28303F"/>
<path d="M6 5C6 5.55228 5.55228 6 5 6C4.44772 6 4 5.55228 4 5C4 4.44772 4.44772 4 5 4C5.55228 4 6 4.44772 6 5Z" fill="#28303F"/>
<path d="M20 5C20 5.55228 19.5523 6 19 6C18.4477 6 18 5.55228 18 5C18 4.44772 18.4477 4 19 4C19.5523 4 20 4.44772 20 5Z" fill="#28303F"/>
<path d="M9 16C9 18.2091 7 22 5 22C3 22 1 18.2091 1 16C1 13.7909 2.79086 12 5 12C7.20914 12 9 13.7909 9 16Z" stroke="#28303F" stroke-width="1.5"/>
<path d="M22 5C22 6.12304 21.0541 7.56139 20.2246 8.60684C19.574 9.4267 18.3837 9.47089 17.7029 8.67596C16.8918 7.7288 16 6.41359 16 5.20914C16 3 17.3431 2 19 2C20.6569 2 22 3 22 5Z" stroke="#28303F" stroke-width="1.5" stroke-linejoin="round"/>
<path d="M8 5C8 6.12304 7.05408 7.56139 6.22455 8.60684C5.57402 9.4267 4.38368 9.47089 3.70291 8.67596C2.89178 7.7288 2 6.41359 2 5.20914C2 3 3.34315 2 5 2C6.65685 2 8 3 8 5Z" stroke="#28303F" stroke-width="1.5" stroke-linejoin="round"/>
<path d="M11 18L17.5 11.5" stroke="#28303F" stroke-width="1.5" stroke-linecap="round" stroke-linejoin="round" stroke-dasharray="0.5 3"/>
<path d="M9 9.5H15" stroke="#28303F" stroke-width="1.5" stroke-linecap="round" stroke-linejoin="round" stroke-dasharray="0.5 3"/>
</svg>
