<svg width="24" height="24" viewBox="0 0 24 24" fill="none" xmlns="http://www.w3.org/2000/svg">
<path d="M13.5 9.5C13.5 10.3284 12.8284 11 12 11C11.1716 11 10.5 10.3284 10.5 9.5C10.5 8.67157 11.1716 8 12 8C12.8284 8 13.5 8.67157 13.5 9.5Z" stroke="#28303F" stroke-width="1.5"/>
<path d="M21 10.8889C21 15.7981 15.375 22 12 22C8.625 22 3 15.7981 3 10.8889C3 5.97969 7.02944 2 12 2C16.9706 2 21 5.97969 21 10.8889Z" stroke="#28303F" stroke-width="1.5"/>
<path d="M14.8626 15.1C14.4803 13.8828 13.3433 13 12 13C10.6567 13 9.51965 13.8828 9.13736 15.1M14.8626 15.1C16.1549 14.196 17 12.6967 17 11C17 8.23858 14.7614 6 12 6C9.23858 6 7 8.23858 7 11C7 12.6967 7.84511 14.196 9.13736 15.1M14.8626 15.1C14.0517 15.6672 13.0647 16 12 16C10.9353 16 9.94828 15.6672 9.13736 15.1" stroke="#28303F" stroke-width="1.5" stroke-linejoin="round"/>
</svg>
