<svg width="24" height="24" viewBox="0 0 24 24" fill="none" xmlns="http://www.w3.org/2000/svg">
<path d="M14 9C14 10.1046 13.1046 11 12 11C10.8954 11 10 10.1046 10 9C10 7.89543 10.8954 7 12 7C13.1046 7 14 7.89543 14 9Z" stroke="#28303F" stroke-width="1.5"/>
<path d="M18 9C18 12.3137 14 17 12 17C10 17 6 12.3137 6 9C6 5.68629 8.68629 3 12 3C15.3137 3 18 5.68629 18 9Z" stroke="#28303F" stroke-width="1.5"/>
<path d="M14.9999 15H16.1264C17.3135 15 18.4393 15.5273 19.1992 16.4393L20.2662 17.7196C21.3518 19.0223 20.4254 21 18.7298 21H5.26994C3.57426 21 2.64795 19.0223 3.73349 17.7196L4.80047 16.4393C5.56044 15.5273 6.68623 15 7.87335 15H8.99985" stroke="#28303F" stroke-width="1.5" stroke-linejoin="round"/>
</svg>
