<svg width="24" height="24" viewBox="0 0 24 24" fill="none" xmlns="http://www.w3.org/2000/svg">
<path d="M11.6047 7.32119C10.5604 6.54293 9.47272 5.85993 8 6.02478C6.13272 6.23379 3.85997 7.78189 2.72215 8.64222C2.25538 8.99516 2 9.55187 2 10.1371V19.8065C2 20.6599 3.0279 21.1548 3.73627 20.6788C4.94575 19.866 6.58869 18.9431 8 18.7851C11.3183 18.4137 12.6817 22.3466 16 21.9752C17.8673 21.7662 20.14 20.2181 21.2778 19.3578C21.7446 19.0048 22 18.4481 22 17.8629V8.19353C22 7.81378 21.7965 7.50502 21.5082 7.32119" stroke="#28303F" stroke-width="1.5"/>
<path d="M21.5811 6.8C21.5811 9.45097 19.0811 14 16.5811 14C14.0811 14 11.5811 9.45097 11.5811 6.8C11.5811 4.14903 13.8196 2 16.5811 2C19.3425 2 21.5811 4.14903 21.5811 6.8Z" stroke="#28303F" stroke-width="1.5"/>
<path d="M18.0811 6.5C18.0811 7.32843 17.4095 8 16.5811 8C15.7526 8 15.0811 7.32843 15.0811 6.5C15.0811 5.67157 15.7526 5 16.5811 5C17.4095 5 18.0811 5.67157 18.0811 6.5Z" stroke="#28303F" stroke-width="1.5"/>
</svg>
