<svg width="24" height="24" viewBox="0 0 24 24" fill="none" xmlns="http://www.w3.org/2000/svg">
<path d="M8 18.8345C6.58869 18.9924 4.94575 19.9154 3.73627 20.7281C3.0279 21.2041 2 20.7092 2 19.8558V10.1864C2 9.60119 2.25538 9.04448 2.72215 8.69154C3.73204 7.92794 5.63599 6.62254 7.35696 6.1925M8 18.8345C11.3183 18.463 12.6817 22.396 16 22.0245M8 18.8345V9.37851M16 22.0245C17.8673 21.8155 20.14 20.2674 21.2778 19.4071C21.7446 19.0542 22 18.4974 22 17.9123V8.24285C22 7.38939 20.9721 6.89449 20.2637 7.37051C19.2688 8.03909 17.9806 8.7822 16.7693 9.11276M16 22.0245V11.2114" stroke="#28303F" stroke-width="1.5"/>
<path d="M17.4619 6.86348C17.4619 9.51444 14.9619 14.0635 12.4619 14.0635C9.96191 14.0635 7.46191 9.51444 7.46191 6.86348C7.46191 4.21251 9.70049 2.06348 12.4619 2.06348C15.2233 2.06348 17.4619 4.21251 17.4619 6.86348Z" stroke="#28303F" stroke-width="1.5"/>
<path d="M13.9619 6.56348C13.9619 7.3919 13.2903 8.06348 12.4619 8.06348C11.6335 8.06348 10.9619 7.3919 10.9619 6.56348C10.9619 5.73505 11.6335 5.06348 12.4619 5.06348C13.2903 5.06348 13.9619 5.73505 13.9619 6.56348Z" stroke="#28303F" stroke-width="1.5"/>
</svg>
