<svg width="24" height="24" viewBox="0 0 24 24" fill="none" xmlns="http://www.w3.org/2000/svg">
<path d="M8 18.7851C6.58869 18.9431 4.94575 19.866 3.73627 20.6788C3.0279 21.1548 2 20.6599 2 19.8065V10.1371C2 9.55187 2.25538 8.99516 2.72215 8.64222C3.50424 8.05086 4.82254 7.13457 6.1768 6.55155C6.55421 6.38907 6.93442 6.25247 7.3066 6.15601M8 18.7851C11.3183 18.4137 12.6817 22.3467 16 21.9752M8 18.7851V11.2636M16 21.9752C17.8673 21.7662 20.14 20.2181 21.2778 19.3578C21.7446 19.0048 22 18.4481 22 17.8629V8.19353C22 7.34008 20.9721 6.84517 20.2637 7.3212C19.8682 7.58699 19.4263 7.86456 18.9614 8.12331M16 21.9752V12.73" stroke="#28303F" stroke-width="1.5"/>
<path d="M11.6622 8.92094L10.147 8.41587C9.71086 8.27048 9.6856 7.66306 10.1082 7.48196L14.7505 5.4924C15.1653 5.3146 15.5848 5.73407 15.407 6.14893L13.4175 10.7912C13.2363 11.2138 12.6289 11.1886 12.4835 10.7524L11.9785 9.23717C11.9287 9.08787 11.8115 8.97071 11.6622 8.92094Z" stroke="#28303F" stroke-width="1.5"/>
<path d="M18.8994 8C18.8994 11.3137 16.2131 14 12.8994 14C9.58571 14 6.89941 11.3137 6.89941 8C6.89941 4.68629 9.58571 2 12.8994 2C16.2131 2 18.8994 4.68629 18.8994 8Z" stroke="#28303F" stroke-width="1.5"/>
</svg>
