<svg width="24" height="24" viewBox="0 0 24 24" fill="none" xmlns="http://www.w3.org/2000/svg">
<path d="M8 2.02478C6.13272 2.23379 3.85997 3.78189 2.72215 4.64222C2.25538 4.99516 2 5.55187 2 6.13706V15.8065C2 16.6599 3.0279 17.1548 3.73627 16.6788C4.94575 15.866 6.58869 14.9431 8 14.7851M8 2.02478C11.3183 1.65335 12.6817 5.5863 16 5.21487M8 2.02478V14.7851M16 5.21487C17.4113 5.0569 19.0542 4.13397 20.2637 3.32119C20.9721 2.84517 22 3.34007 22 4.19353V13.8629C22 14.4481 21.7446 15.0048 21.2778 15.3578C20.6528 15.8304 19.6853 16.5105 18.6306 17.0622M16 5.21487V12.8867M8 14.7851C8.77715 14.6981 9.44708 14.8473 10.06 15.1219" stroke="#28303F" stroke-width="1.5"/>
<path d="M13.5274 17.6841L10.6331 16.7193C9.79349 16.4394 9.66974 15.3856 10.2618 14.8776C10.3642 14.7898 10.4879 14.7183 10.6331 14.6699L18.471 12.0573C19.3154 11.7758 20.1187 12.5792 19.8372 13.4235L18.4601 17.5551L17.2246 21.2615C16.8964 22.2462 15.5035 22.2462 15.1752 21.2615L14.2105 18.3672C14.103 18.0447 13.8499 17.7916 13.5274 17.6841Z" stroke="#28303F" stroke-width="1.5" stroke-linecap="round" stroke-linejoin="round"/>
</svg>
