<svg width="24" height="24" viewBox="0 0 24 24" fill="none" xmlns="http://www.w3.org/2000/svg">
<path d="M19.8934 6.26987C19.8934 8.63136 17.6664 12.6837 15.4394 12.6837C13.2124 12.6837 10.9854 8.63136 10.9854 6.26987C10.9854 3.90838 12.9795 1.99402 15.4394 1.99402C17.8993 1.99402 19.8934 3.90838 19.8934 6.26987Z" stroke="#28303F" stroke-width="1.5"/>
<path d="M16.7756 6.00263C16.7756 6.7406 16.1773 7.33884 15.4394 7.33884C14.7014 7.33884 14.1032 6.7406 14.1032 6.00263C14.1032 5.26467 14.7014 4.66643 15.4394 4.66643C16.1773 4.66643 16.7756 5.26467 16.7756 6.00263Z" stroke="#28303F" stroke-width="1.5"/>
<path d="M8 6.03552C6.13272 6.24453 3.85997 7.79263 2.72215 8.65296C2.25538 9.0059 2 9.56261 2 10.1478V19.8172C2 20.6707 3.0279 21.1656 3.73627 20.6895C4.94575 19.8768 6.58869 18.9538 8 18.7959M8 6.03552V18.7959M8 6.03552C9.21922 5.89905 10.1745 6.34367 11.0599 6.94236M8 18.7959C11.3183 18.4244 12.6817 22.3574 16 21.986M16 21.986C17.8673 21.777 20.14 20.2289 21.2778 19.3685C21.7446 19.0156 22 18.4589 22 17.8737C22 17.8737 22 17.8737 22 17.8737C22 17.8737 22 9.05772 22 8.20427C22 7.35082 20.9721 6.85591 20.2637 7.33194C20.0372 7.48416 19.7955 7.64025 19.5429 7.79445M16 21.986V12.5604" stroke="#28303F" stroke-width="1.5"/>
</svg>
