<svg width="24" height="24" viewBox="0 0 24 24" fill="none" xmlns="http://www.w3.org/2000/svg">
<path d="M8 6.02478C5.90282 6.25952 3.29416 8.1834 2.35636 8.92494C2.12685 9.10642 2 9.38337 2 9.67596V19.8065C2 20.6599 3.0279 21.1548 3.73627 20.6788C4.94575 19.866 6.58869 18.9431 8 18.7851C11.3183 18.4137 12.6817 22.3466 16 21.9752C18.0972 21.7405 20.7058 19.8166 21.6436 19.0751C21.8732 18.8936 22 18.6166 22 18.324V8.19353C22 7.34007 20.9721 6.84517 20.2637 7.32119C19.0542 8.13397 17.4113 9.0569 16 9.21487C12.6817 9.5863 11.3183 5.65335 8 6.02478Z" stroke="#28303F" stroke-width="1.5"/>
<circle cx="16" cy="4" r="2" stroke="#28303F" stroke-width="1.5"/>
<path d="M16 14V6" stroke="#28303F" stroke-width="1.5" stroke-linecap="round"/>
</svg>
