<svg width="24" height="24" viewBox="0 0 24 24" fill="none" xmlns="http://www.w3.org/2000/svg">
<path d="M19 16.8621C19.9089 16.3529 20.7266 15.7746 21.2778 15.3578C21.7446 15.0048 22 14.4481 22 13.8629V4.19353C22 3.34007 20.9721 2.84517 20.2637 3.32119C19.0542 4.13397 17.4113 5.0569 16 5.21487C12.6817 5.5863 11.3183 1.65335 8 2.02478C6.13272 2.23379 3.85997 3.78189 2.72215 4.64222C2.25538 4.99516 2 5.55187 2 6.13706V15.8065C2 16.6599 3.0279 17.1548 3.73627 16.6788C4.94575 15.866 6.58869 14.9431 8 14.7851C8.80621 14.6949 9.49702 14.8587 10.1285 15.1532" stroke="#28303F" stroke-width="1.5"/>
<path d="M13.6328 17.6841L10.7385 16.7193C9.89896 16.4394 9.77521 15.3856 10.3673 14.8776C10.4697 14.7898 10.5934 14.7183 10.7385 14.6699L18.5765 12.0573C19.4208 11.7758 20.2242 12.5792 19.9427 13.4235L18.5655 17.5551L17.3301 21.2614C17.0018 22.2462 15.6089 22.2462 15.2807 21.2614L14.3159 18.3672C14.2084 18.0447 13.9553 17.7916 13.6328 17.6841Z" stroke="#28303F" stroke-width="1.5"/>
</svg>
