<svg width="24" height="24" viewBox="0 0 24 24" fill="none" xmlns="http://www.w3.org/2000/svg">
<path d="M7.09814 6.87805C5.23087 7.08706 2.95812 8.63516 1.82029 9.49549C1.35352 9.84843 1.09814 10.4051 1.09814 10.9903V20.6597C1.09814 21.5132 2.12604 22.0081 2.83441 21.5321C4.0439 20.7193 5.68683 19.7964 7.09814 19.6384C10.4165 19.267 11.7798 23.1999 15.0981 22.8285C16.9654 22.6195 19.2382 21.0714 20.376 20.2111C20.8428 19.8581 21.0981 19.3014 21.0981 18.7162V9.0468C21.0981 8.19335 20.0702 7.69844 19.3619 8.17447C18.1524 8.98724 16.5095 9.91017 15.0981 10.0681C11.7798 10.4396 10.4165 6.50662 7.09814 6.87805Z" stroke="#28303F" stroke-width="1.5"/>
<path d="M15 13.9601V5.96012M15 2.04346H21L20 4.12679L21 6.21012H15V2.04346Z" stroke="#28303F" stroke-width="1.5" stroke-linecap="round" stroke-linejoin="round"/>
</svg>
