<svg width="24" height="24" viewBox="0 0 24 24" fill="none" xmlns="http://www.w3.org/2000/svg">
<path d="M12 6C13.1046 6 14 5.10457 14 4C14 2.89543 13.1046 2 12 2C10.8954 2 10 2.89543 10 4C10 5.10457 10.8954 6 12 6ZM12 6C14.2091 6 16 7.79086 16 10V12C16 12.5523 15.5523 13 15 13C14.4477 13 14 13.4477 14 14V17C14 18.1046 13.1046 19 12 19C10.8954 19 10 18.1046 10 17V14C10 13.4477 9.55228 13 9 13C8.44772 13 8 12.5523 8 12V10C8 7.79086 9.79086 6 12 6Z" stroke="#28303F" stroke-width="1.5" stroke-linejoin="round"/>
<path d="M14 16.0743C18.008 16.3775 21 17.5723 21 19C21 20.6569 16.9706 22 12 22C7.02944 22 3 20.6569 3 19C3 17.5723 5.99202 16.3775 10 16.0743" stroke="#28303F" stroke-width="1.5" stroke-linecap="round"/>
</svg>
