<svg width="24" height="24" viewBox="0 0 24 24" fill="none" xmlns="http://www.w3.org/2000/svg">
<path d="M14.9999 15H16.1264C17.3135 15 18.4393 15.5273 19.1992 16.4393L20.2662 17.7196C21.3518 19.0223 20.4254 21 18.7298 21H5.26994C3.57426 21 2.64795 19.0223 3.73349 17.7196L4.80047 16.4393C5.56044 15.5273 6.68623 15 7.87335 15H8.99985" stroke="#28303F" stroke-width="1.5" stroke-linecap="round" stroke-linejoin="round"/>
<path d="M12 7C13.1046 7 14 6.10457 14 5C14 3.89543 13.1046 3 12 3C10.8954 3 10 3.89543 10 5C10 6.10457 10.8954 7 12 7ZM12 7V17" stroke="#28303F" stroke-width="1.5" stroke-linecap="round"/>
</svg>
