<svg width="24" height="24" viewBox="0 0 24 24" fill="none" xmlns="http://www.w3.org/2000/svg">
<path d="M12 16V17" stroke="#28303F" stroke-width="1.5" stroke-linecap="round"/>
<path d="M12 11.5V12.5" stroke="#28303F" stroke-width="1.5" stroke-linecap="round"/>
<path d="M12 7V8" stroke="#28303F" stroke-width="1.5" stroke-linecap="round"/>
<path d="M11.1676 4H8.38609C7.5524 4 6.80616 4.51714 6.51343 5.29775L2.01343 17.2978C1.52312 18.6053 2.48968 20 3.88609 20H20.1141C21.5105 20 22.4771 18.6053 21.9867 17.2978L20.7084 13.889" stroke="#28303F" stroke-width="1.5" stroke-linecap="round"/>
<path d="M19.4247 6.31266C19.4247 7.07197 18.8092 7.68751 18.0498 7.68751C17.2905 7.68751 16.675 7.07197 16.675 6.31266C16.675 5.55335 17.2905 4.93781 18.0498 4.93781C18.8092 4.93781 19.4247 5.55335 19.4247 6.31266Z" stroke="#28303F" stroke-width="1.5"/>
<path d="M22.1744 6.31265C22.1744 8.59058 19.4247 11.812 18.0498 11.812C16.675 11.812 13.9253 8.59058 13.9253 6.31265C13.9253 4.03473 15.7719 2.18811 18.0498 2.18811C20.3278 2.18811 22.1744 4.03473 22.1744 6.31265Z" stroke="#28303F" stroke-width="1.5"/>
</svg>
