<svg width="24" height="24" viewBox="0 0 24 24" fill="none" xmlns="http://www.w3.org/2000/svg">
<path d="M8.0077 8H6C3.79086 8 2 9.79086 2 12V18C2 20.2091 3.79086 22 6 22H18C20.2091 22 22 20.2091 22 18V12C22 9.79086 20.2091 8 18 8H16.0873" stroke="#28303F" stroke-width="1.5" stroke-linejoin="round"/>
<path d="M12.5 15L11.5 15" stroke="#28303F" stroke-width="1.5" stroke-linecap="round"/>
<path d="M18 15L17 15" stroke="#28303F" stroke-width="1.5" stroke-linecap="round"/>
<path d="M7 15L6 15" stroke="#28303F" stroke-width="1.5" stroke-linecap="round"/>
<path d="M16.4539 6.27585C16.4539 8.63734 14.2269 12.6896 11.9999 12.6896C9.77291 12.6896 7.5459 8.63734 7.5459 6.27585C7.5459 3.91436 9.54003 2 11.9999 2C14.4598 2 16.4539 3.91436 16.4539 6.27585Z" stroke="#28303F" stroke-width="1.5"/>
<path d="M13.3361 6.00861C13.3361 6.74658 12.7379 7.34482 11.9999 7.34482C11.2619 7.34482 10.6637 6.74658 10.6637 6.00861C10.6637 5.27065 11.2619 4.67241 11.9999 4.67241C12.7379 4.67241 13.3361 5.27065 13.3361 6.00861Z" stroke="#28303F" stroke-width="1.5"/>
</svg>
