<svg width="24" height="24" viewBox="0 0 24 24" fill="none" xmlns="http://www.w3.org/2000/svg">
<path d="M13.4998 5.93786V3C13.4998 2.44772 13.0521 2 12.4998 2H11.4998C10.9475 2 10.4998 2.44772 10.4998 3V7.66991M13.4998 5.93786L15.6315 4.70712C15.8612 4.57451 16.1342 4.53858 16.3903 4.60722L19.1224 5.33927C19.6559 5.48221 19.9724 6.03055 19.8295 6.56402L19.0975 9.29607C19.0288 9.55225 18.8612 9.77067 18.6315 9.90327L13.4998 12.8661M13.4998 5.93786L10.4998 7.66991M10.4998 7.66991L3.86589 11.5C3.3876 11.7762 3.22372 12.3877 3.49986 12.866L5.49986 16.3301C5.77601 16.8084 6.3876 16.9723 6.86589 16.6962L10.4998 14.5981M10.4998 14.5981V21C10.4998 21.5523 10.9475 22 11.4998 22H12.4998C13.0521 22 13.4998 21.5523 13.4998 21V12.8661M10.4998 14.5981L13.4998 12.8661" stroke="#28303F" stroke-width="1.5"/>
</svg>
