<svg width="24" height="24" viewBox="0 0 24 24" fill="none" xmlns="http://www.w3.org/2000/svg">
<path d="M8.97272 3.25394C10.6446 1.58202 13.3554 1.58202 15.0273 3.25394L20.7461 8.97272C22.418 10.6446 22.418 13.3554 20.7461 15.0273L15.0273 20.7461C13.3554 22.418 10.6446 22.418 8.97272 20.7461L3.25394 15.0273C1.58202 13.3554 1.58202 10.6446 3.25394 8.97272L8.97272 3.25394Z" stroke="#28303F" stroke-width="1.5"/>
<path d="M15.4142 9L16.7071 10.2929C17.0976 10.6834 17.0976 11.3166 16.7071 11.7071L15.4142 13M16.4142 11L14 11C12.8954 11 12 11.8954 12 13M12 13V16M12 13C12 11.8954 11.1046 11 10 11L7.58579 11M8.58579 9L7.29289 10.2929C6.90237 10.6834 6.90237 11.3166 7.29289 11.7071L8.58579 13" stroke="#28303F" stroke-width="1.5" stroke-linecap="round"/>
</svg>
