<svg width="24" height="24" viewBox="0 0 24 24" fill="none" xmlns="http://www.w3.org/2000/svg">
<path d="M7 15H8C8.55228 15 9 14.5523 9 14V13.5C9 12.6716 9.67157 12 10.5 12C11.3284 12 12 12.6716 12 13.5V16.5C12 17.3284 12.6716 18 13.5 18C14.3284 18 15 17.3284 15 16.5V16C15 15.4477 15.4477 15 16 15H17M21 10.1503V17.9668C21 20.1943 19.2091 22 17 22H7C4.79086 22 3 20.1943 3 17.9668V10.1503C3 8.93937 3.53964 7.7925 4.46986 7.02652L9.46986 2.90935C10.9423 1.69689 13.0577 1.69688 14.5301 2.90935L19.5301 7.02652C20.4604 7.7925 21 8.93937 21 10.1503Z" stroke="#28303F" stroke-width="1.5" stroke-linecap="round"/>
</svg>
