<svg width="24" height="24" viewBox="0 0 24 24" fill="none" xmlns="http://www.w3.org/2000/svg">
<path fill-rule="evenodd" clip-rule="evenodd" d="M17 2.06216H18C20.2091 2.06216 22 3.85303 22 6.06216V12.0622C22 13.1667 21.1046 14.0622 20 14.0622H15C13.8954 14.0622 13 14.9576 13 16.0622V20.0622C13 21.1667 12.1046 22.0622 11 22.0622H6C3.79086 22.0622 2 20.2713 2 18.0622V6.06216C2 3.85303 3.79086 2.06216 6 2.06216H7H8H16H17ZM8 7.64795V3.56216H16V7.64795C16 8.53886 14.9229 8.98502 14.2929 8.35506L12.7071 6.76927C12.3166 6.37875 11.6834 6.37875 11.2929 6.76927L9.70711 8.35506C9.07714 8.98502 8 8.53886 8 7.64795ZM18.75 16.0622C18.75 15.648 18.4142 15.3122 18 15.3122C17.5858 15.3122 17.25 15.648 17.25 16.0622V18.3122H15C14.5858 18.3122 14.25 18.648 14.25 19.0622C14.25 19.4764 14.5858 19.8122 15 19.8122H17.25V22.0622C17.25 22.4764 17.5858 22.8122 18 22.8122C18.4142 22.8122 18.75 22.4764 18.75 22.0622V19.8122H21C21.4142 19.8122 21.75 19.4764 21.75 19.0622C21.75 18.648 21.4142 18.3122 21 18.3122H18.75V16.0622Z" fill="#28303F"/>
</svg>
