<svg width="24" height="24" viewBox="0 0 24 24" fill="none" xmlns="http://www.w3.org/2000/svg">
<path fill-rule="evenodd" clip-rule="evenodd" d="M6 3.06216H9.5C11.7091 3.06216 13.5 4.85303 13.5 7.06216V19.0622H10.5C10.5 17.1292 8.933 15.5622 7 15.5622C5.34384 15.5622 3.95711 16.7118 3.59319 18.2573C2.62551 17.5273 2 16.3678 2 15.0622V7.06216C2 4.85303 3.79086 3.06216 6 3.06216ZM8 6.81216C8.41421 6.81216 8.75 7.14795 8.75 7.56216V10.3122H10.5C10.9142 10.3122 11.25 10.648 11.25 11.0622C11.25 11.4764 10.9142 11.8122 10.5 11.8122H8C7.58579 11.8122 7.25 11.4764 7.25 11.0622V7.56216C7.25 7.14795 7.58579 6.81216 8 6.81216ZM21.4456 18.4443C21.1538 16.806 19.7222 15.5622 18 15.5622C16.7268 15.5622 15.6124 16.242 15 17.2584V7.06216H17.2091C17.7172 7.06216 18.2063 7.25557 18.577 7.60309L21.3679 10.2196C21.7712 10.5976 22 11.1258 22 11.6786V17.0622C22 17.5983 21.7891 18.0851 21.4456 18.4443ZM9 19.0622C9 20.1667 8.10457 21.0622 7 21.0622C5.89543 21.0622 5 20.1667 5 19.0622C5 19.0202 5.00129 18.9785 5.00384 18.9371C5.06838 17.8908 5.93742 17.0622 7 17.0622C8.10457 17.0622 9 17.9576 9 19.0622ZM20 19.0622C20 20.1667 19.1046 21.0622 18 21.0622C16.8954 21.0622 16 20.1667 16 19.0622C16 17.9576 16.8954 17.0622 18 17.0622C19.1046 17.0622 20 17.9576 20 19.0622Z" fill="#28303F"/>
</svg>
