<svg width="24" height="24" viewBox="0 0 24 24" fill="none" xmlns="http://www.w3.org/2000/svg">
<path fill-rule="evenodd" clip-rule="evenodd" d="M6 3.06216H9.5C11.7091 3.06216 13.5 4.85303 13.5 7.06216V19.0622H10.5C10.5 17.1292 8.933 15.5622 7 15.5622C5.34384 15.5622 3.95711 16.7118 3.59319 18.2573C2.62551 17.5273 2 16.3678 2 15.0622V7.06216C2 4.85303 3.79086 3.06216 6 3.06216ZM9.94469 8.11765C10.2376 8.41054 10.2376 8.88542 9.94469 9.17831L9.06081 10.0622L9.94469 10.9461C10.2376 11.239 10.2376 11.7138 9.94469 12.0067C9.6518 12.2996 9.17693 12.2996 8.88403 12.0067L8.00015 11.1229L7.11627 12.0067C6.82337 12.2996 6.3485 12.2996 6.05561 12.0067C5.76271 11.7138 5.76271 11.239 6.05561 10.9461L6.93949 10.0622L6.05561 9.17831C5.76271 8.88542 5.76271 8.41055 6.05561 8.11765C6.3485 7.82476 6.82337 7.82476 7.11627 8.11765L8.00015 9.00153L8.88403 8.11765C9.17693 7.82476 9.6518 7.82476 9.94469 8.11765ZM21.4456 18.4443C21.1538 16.806 19.7222 15.5622 18 15.5622C16.7268 15.5622 15.6124 16.242 15 17.2584V7.06216H17.2091C17.7172 7.06216 18.2063 7.25557 18.577 7.60309L21.3679 10.2196C21.7712 10.5976 22 11.1258 22 11.6786V17.0622C22 17.5983 21.7891 18.0851 21.4456 18.4443ZM9 19.0622C9 20.1667 8.10457 21.0622 7 21.0622C5.89543 21.0622 5 20.1667 5 19.0622C5 19.0202 5.00129 18.9785 5.00384 18.9371C5.06838 17.8908 5.93742 17.0622 7 17.0622C8.10457 17.0622 9 17.9576 9 19.0622ZM20 19.0622C20 20.1667 19.1046 21.0622 18 21.0622C16.8954 21.0622 16 20.1667 16 19.0622C16 17.9576 16.8954 17.0622 18 17.0622C19.1046 17.0622 20 17.9576 20 19.0622Z" fill="#28303F"/>
</svg>
