<svg width="24" height="25" viewBox="0 0 24 25" fill="none" xmlns="http://www.w3.org/2000/svg">
<path fill-rule="evenodd" clip-rule="evenodd" d="M3.76424 5.62169L2.21548 7.61583C1.70526 8.27279 2.17345 9.22922 3.00527 9.22922H8.5006C8.81525 9.22922 9.11156 9.08112 9.30042 8.82945L11.9979 5.23508L14.7937 8.84187C14.9831 9.08622 15.2749 9.22922 15.5841 9.22922H20.9951C21.8272 9.22922 22.2953 8.27236 21.7846 7.61547L20.2344 5.62133C20.045 5.37763 19.7536 5.23508 19.4449 5.23508H11.9979H4.55402C4.24518 5.23508 3.95367 5.37778 3.76424 5.62169ZM8.12462 10.9967H4.00024V16.9057C4.00024 18.6804 5.34339 20.1192 7.00024 20.1192H17.0002C18.6571 20.1192 20.0002 18.6804 20.0002 16.9057V10.9967H15.8897C14.7168 10.9967 13.6218 10.3674 12.9733 9.32051L12.0071 7.76084L11.041 9.32052C10.3925 10.3674 9.29753 10.9967 8.12462 10.9967Z" fill="#28303F"/>
</svg>
