<svg width="24" height="24" viewBox="0 0 24 24" fill="none" xmlns="http://www.w3.org/2000/svg">
<path fill-rule="evenodd" clip-rule="evenodd" d="M13.9448 4.17831C14.2377 3.88542 14.2377 3.41054 13.9448 3.11765C13.6519 2.82476 13.177 2.82476 12.8842 3.11765L12.0003 4.00153L11.1164 3.11765C10.8235 2.82476 10.3486 2.82476 10.0557 3.11765C9.76284 3.41055 9.76284 3.88542 10.0557 4.17831L10.9396 5.06219L10.0557 5.94608C9.76284 6.23897 9.76284 6.71384 10.0557 7.00674C10.3486 7.29963 10.8235 7.29963 11.1164 7.00674L12.0003 6.12285L12.8842 7.00674C13.177 7.29963 13.6519 7.29963 13.9448 7.00674C14.2377 6.71385 14.2377 6.23897 13.9448 5.94608L13.0609 5.06219L13.9448 4.17831ZM4.01575 6.0856L11.9759 10.0779L10.0313 13.0648L2.02881 9.04242L4.01575 6.0856ZM11.9759 10.0779L19.991 6.11172L22.0172 9.10003L13.9979 13.0648L11.9759 10.0779ZM4.00012 11.7393V16.8261C4.00012 17.5837 4.42813 18.2762 5.10569 18.615L11.1057 21.615C11.6687 21.8965 12.3315 21.8965 12.8945 21.615L18.8946 18.615C19.5721 18.2762 20.0001 17.5837 20.0001 16.8261V11.7393L14.6709 14.4039C13.9943 14.7422 13.1717 14.5237 12.7521 13.8943L12.0001 12.7664L11.2482 13.8943C10.8286 14.5237 10.0059 14.7422 9.32931 14.4039L4.00012 11.7393Z" fill="#28303F"/>
</svg>
