<svg width="24" height="24" viewBox="0 0 24 24" fill="none" xmlns="http://www.w3.org/2000/svg">
<path fill-rule="evenodd" clip-rule="evenodd" d="M12.7535 6.47237V4.68519L13.3817 5.25618C13.6943 5.54035 14.1738 5.50959 14.4492 5.1877C14.7196 4.87155 14.6919 4.39228 14.3868 4.11091L12.3323 2.21596C12.1417 2.04016 11.8517 2.04043 11.6614 2.2166L9.61013 4.1157C9.30893 4.39456 9.28191 4.86847 9.54939 5.18116C9.82609 5.50463 10.3098 5.5305 10.6181 5.23832L11.2726 4.61797V6.47237C11.2726 6.8901 11.6041 7.22874 12.0131 7.22874C12.422 7.22874 12.7535 6.8901 12.7535 6.47237ZM4.01575 6.08563L11.9759 10.0779L10.0313 13.0648L2.02881 9.04245L4.01575 6.08563ZM11.9759 10.0779L19.991 6.11176L22.0172 9.10006L13.9979 13.0648L11.9759 10.0779ZM4.00012 11.7393V16.9348C4.00012 17.6878 4.42306 18.377 5.09443 18.718L11.0944 21.7655C11.6636 22.0546 12.3366 22.0546 12.9058 21.7655L18.9058 18.718C19.5772 18.377 20.0001 17.6878 20.0001 16.9348V11.7393L14.6709 14.4461C13.9943 14.7897 13.1717 14.5678 12.7521 13.9284L12.0001 12.7827L11.2482 13.9284C10.8286 14.5678 10.0059 14.7897 9.32931 14.4461L4.00012 11.7393Z" fill="#28303F"/>
</svg>
