<svg width="24" height="24" viewBox="0 0 24 24" fill="none" xmlns="http://www.w3.org/2000/svg">
<path fill-rule="evenodd" clip-rule="evenodd" d="M12.2296 2.56175L12.0001 2.80297L11.7706 2.56175C11.1368 1.89564 10.1092 1.89564 9.47546 2.56175C8.84168 3.22786 8.84168 4.30784 9.47546 4.97395L11.0821 6.6625C11.5891 7.19539 12.4112 7.19539 12.9182 6.6625L14.5248 4.97395C15.1586 4.30784 15.1586 3.22786 14.5248 2.56175C13.891 1.89564 12.8634 1.89564 12.2296 2.56175ZM4.00012 11.7393V16.8261C4.00012 17.5837 4.42813 18.2762 5.10569 18.615L11.1057 21.615C11.6687 21.8965 12.3315 21.8965 12.8945 21.615L18.8946 18.615C19.5721 18.2762 20.0001 17.5837 20.0001 16.8261V11.7393L14.6709 14.4039C13.9943 14.7422 13.1717 14.5237 12.7521 13.8943L12.0001 12.7664L11.2482 13.8943C10.8286 14.5237 10.0059 14.7422 9.32931 14.4039L4.00012 11.7393ZM11.9759 10.0779L4.01575 6.0856L2.02881 9.04242L10.0313 13.0648L11.9759 10.0779ZM11.9759 10.0779L13.9979 13.0648L22.0172 9.10003L19.991 6.11172L11.9759 10.0779Z" fill="#28303F"/>
</svg>
