<svg width="24" height="25" viewBox="0 0 24 25" fill="none" xmlns="http://www.w3.org/2000/svg">
<path fill-rule="evenodd" clip-rule="evenodd" d="M7.99866 2.75C7.71095 2.75 7.44859 2.9146 7.32339 3.17365C7.19819 3.4327 7.23223 3.74054 7.41099 3.96598L8.99685 5.96598C9.25421 6.29055 9.72595 6.34503 10.0505 6.08767C10.3751 5.83032 10.4296 5.35858 10.1722 5.03402L9.55053 4.25L14.4987 4.25C14.913 4.25 15.2487 4.58579 15.2487 5C15.2487 5.41421 14.913 5.75 14.4987 5.75H12.9987C12.5845 5.75 12.2487 6.08579 12.2487 6.5C12.2487 6.91421 12.5845 7.25 12.9987 7.25H14.4987C15.7414 7.25 16.7487 6.24264 16.7487 5C16.7487 3.75736 15.7414 2.75 14.4987 2.75H7.99866ZM2.21402 11.3626L3.76277 9.36843C3.95221 9.12451 4.24372 8.98181 4.55255 8.98181H11.9964L9.29896 12.5762C9.11009 12.8279 8.81379 12.976 8.49914 12.976H3.0038C2.17198 12.976 1.70379 12.0195 2.21402 11.3626ZM11.9964 8.98181H19.4434C19.7521 8.98181 20.0435 9.12436 20.2329 9.36806L21.7832 11.3622C22.2938 12.0191 21.8257 12.976 20.9937 12.976H15.5826C15.2734 12.976 14.9817 12.833 14.7922 12.5886L11.9964 8.98181ZM3.99878 14.3959H8.12316C9.29606 14.3959 10.391 13.8196 11.0395 12.8609L12.0057 11.4326L12.9719 12.8609C13.6204 13.8196 14.7153 14.3959 15.8882 14.3959H19.9988V19.8071C19.9988 21.4324 18.6556 22.75 16.9988 22.75H6.99878C5.34193 22.75 3.99878 21.4324 3.99878 19.8071V14.3959Z" fill="#28303F"/>
</svg>
