<svg width="24" height="25" viewBox="0 0 24 25" fill="none" xmlns="http://www.w3.org/2000/svg">
<path fill-rule="evenodd" clip-rule="evenodd" d="M12.7521 5.39362V7.18081C12.7521 7.59854 12.4206 7.93717 12.0116 7.93717C11.6026 7.93717 11.2711 7.59854 11.2711 7.18081V5.3264L10.6166 5.94675C10.3083 6.23893 9.82463 6.21306 9.54792 5.88959C9.28044 5.57691 9.30746 5.103 9.60867 4.82414L11.66 2.92503C11.8503 2.74887 12.1402 2.74859 12.3308 2.92439L14.3853 4.81934C14.6904 5.10071 14.7182 5.57999 14.4477 5.89614C14.1723 6.21803 13.6928 6.24879 13.3802 5.96461L12.7521 5.39362ZM2.21402 11.3626L3.76277 9.36843C3.95221 9.12451 4.24372 8.98181 4.55255 8.98181H11.9964L9.29896 12.5762C9.11009 12.8279 8.81379 12.976 8.49914 12.976H3.0038C2.17198 12.976 1.70379 12.0195 2.21402 11.3626ZM11.9964 8.98181H19.4434C19.7521 8.98181 20.0435 9.12436 20.2329 9.36806L21.7832 11.3622C22.2938 12.0191 21.8257 12.976 20.9937 12.976H15.5826C15.2734 12.976 14.9817 12.833 14.7922 12.5886L11.9964 8.98181ZM8.12316 14.3959H3.99878V19.8071C3.99878 21.4324 5.34193 22.75 6.99878 22.75H16.9988C18.6556 22.75 19.9988 21.4324 19.9988 19.8071V14.3959H15.8882C14.7153 14.3959 13.6204 13.8196 12.9719 12.8609L12.0057 11.4326L11.0395 12.8609C10.391 13.8196 9.29606 14.3959 8.12316 14.3959Z" fill="#28303F"/>
</svg>
