<svg width="24" height="24" viewBox="0 0 24 24" fill="none" xmlns="http://www.w3.org/2000/svg">
<path d="M21 10V7.5C21 5.29086 19.2091 3.5 17 3.5H7C4.79086 3.5 3 5.29086 3 7.5V18C3 20.2091 4.79086 22 7 22H9M8 2V5M16 2V5M12 22L15.0608 21.1274C15.2249 21.0806 15.3743 20.9928 15.495 20.8721L20.5098 15.8573C21.1634 15.2037 21.1634 14.1439 20.5098 13.4902C19.8561 12.8366 18.7963 12.8366 18.1427 13.4902L13.1279 18.505C13.0072 18.6257 12.9194 18.7751 12.8726 18.9392L12 22ZM11.9999 8.93934L12.2651 8.67418C12.9973 7.94194 14.1845 7.94194 14.9167 8.67417C15.649 9.40641 15.649 10.5936 14.9167 11.3258L13.0606 13.182C12.4748 13.7678 11.5251 13.7678 10.9393 13.182L9.08311 11.3258C8.35088 10.5936 8.35088 9.40641 9.08311 8.67417C9.81534 7.94194 11.0025 7.94194 11.7348 8.67417L11.9999 8.93934Z" stroke="#28303F" stroke-width="1.5" stroke-linecap="round" stroke-linejoin="round"/>
</svg>
