<svg width="24" height="24" viewBox="0 0 24 24" fill="none" xmlns="http://www.w3.org/2000/svg">
<path d="M14.4108 6.34017V4.40547C14.4108 3.07393 13.3313 1.99451 11.9998 1.99451C10.6683 1.99451 9.58883 3.07393 9.58883 4.40547V6.34017C9.58883 7.05049 9.21208 7.70751 8.59903 8.06629L3.709 10.9281C2.8287 11.4433 3.19412 12.7912 4.2141 12.7912H8.73812C9.29041 12.7912 9.73812 13.2389 9.73812 13.7912V16.2677C9.73812 16.9283 9.52009 17.5704 9.11787 18.0944L7.343 20.4066C7.01701 20.8313 7.08605 21.4379 7.49914 21.7785C7.77963 22.0097 8.16401 22.0693 8.50138 21.934L11.2382 20.8112C11.7242 20.6119 12.2691 20.6117 12.7552 20.8107L15.4982 21.934C15.8356 22.0693 16.22 22.0097 16.5004 21.7785C16.9135 21.4379 16.9826 20.8313 16.6566 20.4066L14.8817 18.0944C14.4795 17.5704 14.2615 16.9283 14.2615 16.2677V13.7912C14.2615 13.2389 14.7092 12.7912 15.2615 12.7912H19.7855C20.8055 12.7912 21.1709 11.4433 20.2906 10.9281L15.4006 8.06629C14.7875 7.70751 14.4108 7.05049 14.4108 6.34017Z" fill="#28303F"/>
</svg>
