<svg width="24" height="24" viewBox="0 0 24 24" fill="none" xmlns="http://www.w3.org/2000/svg">
<path fill-rule="evenodd" clip-rule="evenodd" d="M17 2.06216H18C20.2091 2.06216 22 3.85303 22 6.06216V13.0622C22 14.1667 21.1046 15.0622 20 15.0622H15C13.8954 15.0622 13 15.9576 13 17.0622V20.0622C13 21.1667 12.1046 22.0622 11 22.0622H6C3.79086 22.0622 2 20.2713 2 18.0622V6.06216C2 3.85303 3.79086 2.06216 6 2.06216H7H8H16H17ZM8 7.64795V3.56216H16V7.64795C16 8.53886 14.9229 8.98502 14.2929 8.35506L12.7071 6.76927C12.3166 6.37875 11.6834 6.37875 11.2929 6.76927L9.70711 8.35506C9.07714 8.98502 8 8.53886 8 7.64795ZM21.5644 18.556C21.8372 18.2443 21.8056 17.7705 21.4939 17.4977C21.1822 17.225 20.7083 17.2566 20.4356 17.5683L17.5657 20.8482C17.4776 20.9489 17.3258 20.9623 17.2213 20.8788L15.4685 19.4765C15.1451 19.2178 14.6731 19.2702 14.4143 19.5936C14.1556 19.9171 14.208 20.3891 14.5315 20.6478L16.2843 22.0501C17.0156 22.6351 18.0778 22.5407 18.6945 21.8359L21.5644 18.556Z" fill="#28303F"/>
</svg>
