<svg width="24" height="24" viewBox="0 0 24 24" fill="none" xmlns="http://www.w3.org/2000/svg">
<path fill-rule="evenodd" clip-rule="evenodd" d="M9.5 3.06216H6C3.79086 3.06216 2 4.85303 2 7.06216V15.0622C2 16.3678 2.62551 17.5273 3.59319 18.2573C3.95711 16.7118 5.34384 15.5622 7 15.5622C8.933 15.5622 10.5 17.1292 10.5 19.0622H13.5V7.06216C13.5 4.85303 11.7091 3.06216 9.5 3.06216ZM8 7.31216C7.58579 7.31216 7.25 7.64795 7.25 8.06216C7.25 8.47638 7.58579 8.81216 8 8.81216H10C10.4142 8.81216 10.75 8.47638 10.75 8.06216C10.75 7.64795 10.4142 7.31216 10 7.31216H8ZM5.25 12.0622C5.25 11.648 5.58579 11.3122 6 11.3122H10C10.4142 11.3122 10.75 11.648 10.75 12.0622C10.75 12.4764 10.4142 12.8122 10 12.8122H6C5.58579 12.8122 5.25 12.4764 5.25 12.0622ZM21.4456 18.4443C21.1538 16.806 19.7222 15.5622 18 15.5622C16.7268 15.5622 15.6124 16.242 15 17.2584V7.06216H17.2091C17.7172 7.06216 18.2063 7.25557 18.577 7.60309L21.3679 10.2196C21.7712 10.5976 22 11.1258 22 11.6786V17.0622C22 17.5983 21.7891 18.0851 21.4456 18.4443ZM9 19.0622C9 20.1667 8.10457 21.0622 7 21.0622C5.89543 21.0622 5 20.1667 5 19.0622C5 19.0202 5.00129 18.9785 5.00384 18.9371C5.06838 17.8908 5.93742 17.0622 7 17.0622C8.10457 17.0622 9 17.9576 9 19.0622ZM20 19.0622C20 20.1667 19.1046 21.0622 18 21.0622C16.8954 21.0622 16 20.1667 16 19.0622C16 17.9576 16.8954 17.0622 18 17.0622C19.1046 17.0622 20 17.9576 20 19.0622Z" fill="#28303F"/>
</svg>
