<svg width="24" height="24" viewBox="0 0 24 24" fill="none" xmlns="http://www.w3.org/2000/svg">
<path fill-rule="evenodd" clip-rule="evenodd" d="M18.3231 5.16152L12.8945 2.44723C12.3315 2.1657 11.6687 2.1657 11.1057 2.44723L5.67712 5.16151L12.0001 8.32301L18.3231 5.16152ZM4.00012 11.6771V16.764C4.00012 17.5215 4.42813 18.214 5.10569 18.5528L11.1057 21.5528C11.6687 21.8343 12.3315 21.8343 12.8945 21.5528L18.8946 18.5528C19.5721 18.214 20.0001 17.5215 20.0001 16.764V11.6771L14.6709 14.3417C13.9943 14.68 13.1717 14.4616 12.7521 13.8321L12.0001 12.7042L11.2482 13.8321C10.8286 14.4616 10.0059 14.68 9.32931 14.3417L4.00012 11.6771ZM11.9759 10.0157L4.01575 6.02344L2.02881 8.98025L10.0313 13.0026L11.9759 10.0157ZM11.9759 10.0157L13.9979 13.0026L22.0172 9.03787L19.991 6.04956L11.9759 10.0157Z" fill="#28303F"/>
</svg>
