<svg width="24" height="24" viewBox="0 0 24 24" fill="none" xmlns="http://www.w3.org/2000/svg">
<path fill-rule="evenodd" clip-rule="evenodd" d="M11.0001 2.81219C10.3098 2.81219 9.75012 3.37184 9.75012 4.06219C9.75012 4.75255 10.3098 5.31219 11.0001 5.31219C11.6905 5.31219 12.2501 4.75255 12.2501 4.06219C12.2501 3.37184 11.6905 2.81219 11.0001 2.81219ZM8.25012 4.06219C8.25012 2.54341 9.48134 1.31219 11.0001 1.31219C12.5189 1.31219 13.7501 2.54341 13.7501 4.06219C13.7501 4.54906 13.6236 5.00638 13.4016 5.40306L14.0305 6.03186C14.3233 6.32476 14.3233 6.79963 14.0305 7.09253C13.7376 7.38542 13.2627 7.38542 12.9698 7.09253L12.341 6.46372C11.9443 6.68567 11.487 6.81219 11.0001 6.81219C9.48134 6.81219 8.25012 5.58098 8.25012 4.06219ZM4.00012 11.7393V16.8262C4.00012 17.5837 4.42813 18.2762 5.10569 18.615L11.1057 21.615C11.6687 21.8965 12.3315 21.8965 12.8945 21.615L18.8946 18.615C19.5721 18.2762 20.0001 17.5837 20.0001 16.8262V11.7393L14.6709 14.4039C13.9943 14.7422 13.1717 14.5238 12.7521 13.8943L12.0001 12.7664L11.2482 13.8943C10.8286 14.5238 10.0059 14.7422 9.32931 14.4039L4.00012 11.7393ZM11.9759 10.0779L4.01575 6.08563L2.02881 9.04245L10.0313 13.0648L11.9759 10.0779ZM11.9759 10.0779L13.9979 13.0648L22.0172 9.10006L19.991 6.11176L11.9759 10.0779Z" fill="#28303F"/>
</svg>
