<svg width="24" height="24" viewBox="0 0 24 24" fill="none" xmlns="http://www.w3.org/2000/svg">
<path fill-rule="evenodd" clip-rule="evenodd" d="M15.5874 3.66961C15.8602 3.35788 15.8286 2.88406 15.5169 2.6113C15.2052 2.33854 14.7313 2.37012 14.4586 2.68185L11.5887 5.96175C11.5006 6.06243 11.3488 6.07591 11.2444 5.99234L9.49153 4.59008C9.16809 4.33132 8.69612 4.38376 8.43736 4.70721C8.1786 5.03066 8.23104 5.50262 8.55449 5.76138L10.3073 7.16364C11.0386 7.74867 12.1008 7.65429 12.7175 6.9495L15.5874 3.66961ZM4.01575 6.02345L11.9759 10.0157L10.0313 13.0026L2.02881 8.98026L4.01575 6.02345ZM11.9759 10.0157L19.991 6.04957L22.0172 9.03788L13.9979 13.0026L11.9759 10.0157ZM4.02301 11.6771V16.764C4.02301 17.5215 4.45101 18.214 5.12858 18.5528L11.1286 21.5528C11.6916 21.8344 12.3544 21.8344 12.9174 21.5528L18.9174 18.5528C19.595 18.214 20.023 17.5215 20.023 16.764V11.6771L14.6938 14.3417C14.0172 14.68 13.1946 14.4616 12.7749 13.8321L12.023 12.7043L11.2711 13.8321C10.8515 14.4616 10.0288 14.68 9.3522 14.3417L4.02301 11.6771Z" fill="#28303F"/>
</svg>
