<svg width="24" height="24" viewBox="0 0 24 24" fill="none" xmlns="http://www.w3.org/2000/svg">
<path fill-rule="evenodd" clip-rule="evenodd" d="M11.2467 4.62546V2.83828C11.2467 2.42055 11.5782 2.08191 11.9872 2.08191C12.3962 2.08191 12.7277 2.42055 12.7277 2.83828V4.69268L13.3822 4.07233C13.6904 3.78015 14.1741 3.80602 14.4509 4.12949C14.7183 4.44218 14.6913 4.91609 14.3901 5.19494L12.3388 7.09405C12.1485 7.27022 11.8585 7.27049 11.6679 7.09469L9.61344 5.19974C9.30838 4.91837 9.28062 4.4391 9.55107 4.12295C9.82643 3.80106 10.3059 3.7703 10.6186 4.05447L11.2467 4.62546ZM4.00012 11.7393V16.8261C4.00012 17.5837 4.42813 18.2762 5.10569 18.615L11.1057 21.615C11.6687 21.8965 12.3315 21.8965 12.8945 21.615L18.8946 18.615C19.5721 18.2762 20.0001 17.5837 20.0001 16.8261V11.7393L14.6709 14.4039C13.9943 14.7422 13.1717 14.5237 12.7521 13.8943L12.0001 12.7664L11.2482 13.8943C10.8286 14.5237 10.0059 14.7422 9.32931 14.4039L4.00012 11.7393ZM11.9759 10.0779L4.01575 6.08561L2.02881 9.04243L10.0313 13.0648L11.9759 10.0779ZM11.9759 10.0779L13.9979 13.0648L22.0172 9.10004L19.991 6.11174L11.9759 10.0779Z" fill="#28303F"/>
</svg>
