<svg width="24" height="24" viewBox="0 0 24 24" fill="none" xmlns="http://www.w3.org/2000/svg">
<path fill-rule="evenodd" clip-rule="evenodd" d="M15 12.5622H16.5825C16.8455 11.724 17 10.8826 17 10.0622C17 4.53932 13.866 2.06216 10 2.06216C6.13401 2.06216 3 4.53932 3 10.0622C3 13.3432 5.47059 16.9611 7.47627 19.3576C8.51949 20.6041 10.1835 20.8806 11.5022 20.1873C11.5007 20.1458 11.5 20.1041 11.5 20.0622V16.0622C11.5 14.1292 13.067 12.5622 15 12.5622ZM10 10.0622C11.1046 10.0622 12 9.16673 12 8.06216C12 6.95759 11.1046 6.06216 10 6.06216C8.89543 6.06216 8 6.95759 8 8.06216C8 9.16673 8.89543 10.0622 10 10.0622ZM13 16.0622C13 14.9576 13.8954 14.0622 15 14.0622H16.0016H19C20.1046 14.0622 21 14.9576 21 16.0622V20.0622C21 21.1667 20.1046 22.0622 19 22.0622H15C13.8954 22.0622 13 21.1667 13 20.0622V18.7754V16.0622ZM18.75 16.0622C18.75 16.4764 18.4142 16.8122 18 16.8122H16C15.5858 16.8122 15.25 16.4764 15.25 16.0622C15.25 15.648 15.5858 15.3122 16 15.3122H18C18.4142 15.3122 18.75 15.648 18.75 16.0622Z" fill="#28303F"/>
</svg>
