<svg width="24" height="24" viewBox="0 0 24 24" fill="none" xmlns="http://www.w3.org/2000/svg">
<path fill-rule="evenodd" clip-rule="evenodd" d="M5.38331 4.50191C6.97107 3.09977 9.00758 2.19409 11.2499 2.02783V11.2501H7.80522C7.65926 8.72128 6.78005 6.39491 5.38331 4.50191ZM6.30239 11.2501C6.16443 9.13881 5.44843 7.19685 4.32122 5.59365C3.022 7.14919 2.1866 9.10553 2.02759 11.2501H6.30239ZM2.02759 12.7501H6.30239C6.16443 14.8614 5.44843 16.8034 4.32122 18.4066C3.022 16.8511 2.1866 14.8947 2.02759 12.7501ZM7.80522 12.7501H11.2499V21.9724C9.00758 21.8062 6.97107 20.9005 5.38331 19.4983C6.78005 17.6053 7.65926 15.279 7.80522 12.7501ZM12.7499 12.7501V21.9724C14.9922 21.8062 17.0287 20.9005 18.6165 19.4983C17.2197 17.6053 16.3405 15.279 16.1945 12.7501H12.7499ZM17.6974 12.7501C17.8353 14.8614 18.5513 16.8034 19.6786 18.4066C20.9778 16.8511 21.8132 14.8947 21.9722 12.7501H17.6974ZM21.9722 11.2501H17.6974C17.8353 9.13881 18.5513 7.19685 19.6786 5.59365C20.9778 7.14919 21.8132 9.10553 21.9722 11.2501ZM16.1945 11.2501H12.7499V2.02783C14.9922 2.19409 17.0287 3.09977 18.6165 4.50191C17.2197 6.39491 16.3405 8.72128 16.1945 11.2501Z" fill="#28303F"/>
</svg>
