<svg width="24" height="24" viewBox="0 0 24 24" fill="none" xmlns="http://www.w3.org/2000/svg">
<path fill-rule="evenodd" clip-rule="evenodd" d="M20.238 10.5147V11.5014C20.238 12.7277 19.244 13.7218 18.0177 13.7218C16.7914 13.7218 15.7973 12.7277 15.7973 11.5014V10.5147L17.3414 11.2009C17.7719 11.3923 18.2634 11.3923 18.694 11.2009L20.238 10.5147ZM14.4096 9.89794V12.3341C14.4096 12.5641 14.2232 12.7505 13.9933 12.7505C13.7634 12.7505 13.577 12.5641 13.577 12.3341V9.52734C13.582 9.52995 13.5872 9.53244 13.5925 9.5348L14.4096 9.89794Z" fill="#28303F"/>
<path d="M22.4428 9.43735L18.694 7.77121C18.2635 7.57984 17.772 7.57984 17.3414 7.77121L13.5926 9.43735C13.3728 9.53502 13.3728 9.84692 13.5926 9.9446L17.3414 11.6107C17.772 11.8021 18.2635 11.8021 18.694 11.6107L22.4428 9.9446C22.6626 9.84692 22.6626 9.53502 22.4428 9.43735Z" fill="#28303F"/>
<path fill-rule="evenodd" clip-rule="evenodd" d="M16.317 18.5722H21.3483C21.9615 18.5722 22.4585 18.0752 22.4585 17.462C22.4585 16.2591 21.3723 15.2245 19.8152 14.7666C19.6293 14.712 19.4305 14.7707 19.2942 14.9084L18.4125 15.8C18.1952 16.0197 17.8404 16.0197 17.6231 15.8L16.7413 14.9084C16.6051 14.7707 16.4063 14.712 16.2204 14.7666C15.6749 14.927 15.1872 15.1582 14.7838 15.4426C15.745 16.3222 16.3131 17.4032 16.317 18.5722Z" fill="#28303F"/>
<path fill-rule="evenodd" clip-rule="evenodd" d="M11.782 8.20718V9.71261C11.782 11.5833 10.2655 13.0998 8.39476 13.0998C6.52405 13.0998 5.00754 11.5833 5.00754 9.71261V8.20718L7.363 9.25406C8.01986 9.546 8.76966 9.546 9.42652 9.25406L11.782 8.20718ZM2.89053 7.26629V10.9828C2.89053 11.3336 2.60618 11.6179 2.25542 11.6179C1.90467 11.6179 1.62032 11.3336 1.62032 10.9828V6.70093C1.62804 6.70491 1.63595 6.7087 1.64406 6.71231L2.89053 7.26629Z" fill="#28303F"/>
<path d="M15.1455 5.93844L9.42659 3.39669C8.76973 3.10475 8.01994 3.10475 7.36307 3.39669L1.64414 5.93844C1.30888 6.08744 1.30888 6.56326 1.64414 6.71226L7.36307 9.25401C8.01994 9.54595 8.76973 9.54595 9.42659 9.25401L15.1455 6.71226C15.4808 6.56326 15.4808 6.08744 15.1455 5.93844Z" fill="#28303F"/>
<path d="M6.44747 14.2851L7.79265 15.6453C8.12409 15.9804 8.66541 15.9804 8.99685 15.6453L10.342 14.2851C10.5498 14.075 10.8532 13.9854 11.1367 14.0688C13.5121 14.7673 15.1692 16.3456 15.1692 18.1807C15.1692 19.1161 14.4109 19.8743 13.4756 19.8743H3.31392C2.37856 19.8743 1.62031 19.1161 1.62031 18.1807C1.62031 16.3456 3.27739 14.7673 5.65279 14.0688C5.93631 13.9854 6.23967 14.075 6.44747 14.2851Z" fill="#28303F"/>
</svg>
