<svg width="24" height="24" viewBox="0 0 24 24" fill="none" xmlns="http://www.w3.org/2000/svg">
<path fill-rule="evenodd" clip-rule="evenodd" d="M9.05725 2.58584C9.62817 2.01493 10.4864 1.84328 11.233 2.1507L15.2399 3.80062C16.5596 4.34401 16.9018 6.05504 15.8926 7.06419L13.0642 9.89261C12.055 10.9018 10.344 10.5596 9.80062 9.2399L8.93148 7.12913L3.94448 12.1161C3.45633 12.6043 3.45633 13.3957 3.94449 13.8839L11.3106 21.25H14.9999C15.4142 21.25 15.7499 21.5858 15.7499 22C15.7499 22.4142 15.4142 22.75 14.9999 22.75H6.99994C6.58573 22.75 6.24994 22.4142 6.24994 22C6.24994 21.5858 6.58573 21.25 6.99994 21.25H9.18928L2.88383 14.9445C1.80989 13.8706 1.80988 12.1294 2.88382 11.0555L8.31276 5.62652L8.1507 5.23296C7.84328 4.48638 8.01493 3.62817 8.58584 3.05725L9.05725 2.58584ZM21.7674 8.21406C21.7674 8.62827 21.4316 8.96406 21.0174 8.96406H19.6032C19.189 8.96406 18.8532 8.62827 18.8532 8.21406C18.8532 7.79984 19.189 7.46406 19.6032 7.46406H21.0174C21.4316 7.46406 21.7674 7.79984 21.7674 8.21406ZM18.0123 9.80523C17.7194 9.51234 17.2445 9.51234 16.9516 9.80523C16.6587 10.0981 16.6587 10.573 16.9516 10.8659L18.3658 12.2801C18.6587 12.573 19.1336 12.573 19.4265 12.2801C19.7194 11.9872 19.7194 11.5123 19.4265 11.2194L18.0123 9.80523ZM16.1106 12.4568C16.1106 12.0426 15.7748 11.7068 15.3606 11.7068C14.9464 11.7068 14.6106 12.0426 14.6106 12.4568V13.871C14.6106 14.2852 14.9464 14.621 15.3606 14.621C15.7748 14.621 16.1106 14.2852 16.1106 13.871V12.4568Z" fill="#28303F"/>
</svg>
