<svg width="24" height="24" viewBox="0 0 24 24" fill="none" xmlns="http://www.w3.org/2000/svg">
<path d="M15 2.41406C14.0463 2.14433 13.04 2 12 2C10.96 2 9.95366 2.14433 9 2.41406" stroke="#28303F" stroke-width="1.5" stroke-linecap="round"/>
<path d="M17 16V22" stroke="#28303F" stroke-width="1.5" stroke-linecap="round" stroke-linejoin="round"/>
<path d="M20 19L14 19" stroke="#28303F" stroke-width="1.5" stroke-linecap="round" stroke-linejoin="round"/>
<path d="M13.5 14C13.5 14.8284 12.8284 15.5 12 15.5C11.1716 15.5 10.5 14.8284 10.5 14C10.5 13.1716 11.1716 12.5 12 12.5C12.8284 12.5 13.5 13.1716 13.5 14Z" stroke="#28303F" stroke-width="1.5"/>
<path d="M20.1264 16C20.3693 15.2096 20.5 14.3701 20.5 13.5C20.5 8.80558 16.6944 5 12 5C7.30558 5 3.5 8.80558 3.5 13.5C3.5 18.1944 7.30558 22 12 22C12.6889 22 13.3586 21.9181 14 21.7634" stroke="#28303F" stroke-width="1.5" stroke-linecap="round"/>
<path d="M12 12V9" stroke="#28303F" stroke-width="1.5" stroke-linecap="round" stroke-linejoin="round"/>
</svg>
