<svg width="24" height="24" viewBox="0 0 24 24" fill="none" xmlns="http://www.w3.org/2000/svg">
<path fill-rule="evenodd" clip-rule="evenodd" d="M12.7498 13.6268L12.7672 13.6268C17.1091 13.6268 20.0135 9.15772 18.2501 5.19L16.9304 2.22069C16.7699 1.85956 16.4118 1.62683 16.0166 1.62683H7.98298C7.58779 1.62683 7.22967 1.85956 7.06917 2.22069L5.74947 5.19C3.98604 9.15772 6.89039 13.6268 11.2323 13.6268L11.2498 13.6268V20.8768H8.99976C8.58554 20.8768 8.24976 21.2126 8.24976 21.6268C8.24976 22.041 8.58554 22.3768 8.99976 22.3768H14.9998C15.414 22.3768 15.7498 22.041 15.7498 21.6268C15.7498 21.2126 15.414 20.8768 14.9998 20.8768H12.7498V13.6268ZM12.8352 3.95601C13.2057 4.14125 13.3558 4.59176 13.1706 4.96224L12.2133 6.87683H12.9998C13.2597 6.87683 13.5011 7.01142 13.6378 7.23253C13.7744 7.45365 13.7868 7.72975 13.6706 7.96224L12.1706 10.9622C11.9853 11.3327 11.5348 11.4829 11.1644 11.2977C10.7939 11.1124 10.6437 10.6619 10.829 10.2914L11.7862 8.37683H10.9998C10.7398 8.37683 10.4984 8.24224 10.3618 8.02113C10.2251 7.80002 10.2127 7.52391 10.329 7.29142L11.829 4.29142C12.0142 3.92094 12.4647 3.77077 12.8352 3.95601Z" fill="#28303F"/>
</svg>
