<svg width="24" height="24" viewBox="0 0 24 24" fill="none" xmlns="http://www.w3.org/2000/svg">
<path d="M8.39824 5.25H15.6023C16.7647 3.67982 15.1986 1.48227 13.2532 2.10985L12.3254 2.40914C12.1142 2.47728 11.8863 2.47728 11.6751 2.40914L10.7473 2.10985C8.80191 1.48227 7.23579 3.67982 8.39824 5.25Z" fill="#28303F"/>
<path fill-rule="evenodd" clip-rule="evenodd" d="M15.4941 6.75H8.50643C7.18715 7.48048 6.15648 8.70013 5.68453 10.2103L4.43453 14.2104C3.22716 18.0739 6.11357 22 10.1614 22H13.8391C17.887 22 20.7734 18.0739 19.566 14.2104L18.316 10.2104C17.8441 8.70013 16.8134 7.48048 15.4941 6.75ZM15.3643 18.6558C15.7264 18.4547 15.857 17.9982 15.656 17.636C15.455 17.2739 14.9984 17.1432 14.6363 17.3442C13.4672 17.9932 12.6658 18.2501 11.9404 18.2472C11.2188 18.2443 10.4609 17.9836 9.37809 17.3521C9.02028 17.1435 8.56106 17.2644 8.35239 17.6222C8.14372 17.98 8.26462 18.4392 8.62243 18.6479C9.79398 19.3311 10.8251 19.7427 11.9343 19.7472C13.0398 19.7517 14.1112 19.3513 15.3643 18.6558Z" fill="#28303F"/>
</svg>
