<svg width="24" height="24" viewBox="0 0 24 24" fill="none" xmlns="http://www.w3.org/2000/svg">
<path fill-rule="evenodd" clip-rule="evenodd" d="M15.6113 3H8.38836C6.433 3 4.76424 4.41365 4.44278 6.3424L2.77612 16.3424C2.36976 18.7805 4.24994 21 6.72169 21H11.9999C12.5521 21 12.9999 20.5523 12.9999 20V17C12.9999 14.7909 14.7907 13 16.9998 13H19.4861C20.104 13 20.574 12.4451 20.4725 11.8356L19.5569 6.3424C19.2355 4.41365 17.5667 3 15.6113 3ZM15.7498 7C15.7498 9.07107 14.0708 10.75 11.9998 10.75C9.92869 10.75 8.24976 9.07107 8.24976 7V6C8.24976 5.58579 8.58554 5.25 8.99976 5.25C9.41397 5.25 9.74976 5.58579 9.74976 6V7C9.74976 8.24264 10.7571 9.25 11.9998 9.25C13.2424 9.25 14.2498 8.24264 14.2498 7V6C14.2498 5.58579 14.5855 5.25 14.9998 5.25C15.414 5.25 15.7498 5.58579 15.7498 6V7ZM22.5642 15.4939C22.837 15.1822 22.8054 14.7083 22.4937 14.4356C22.1819 14.1628 21.7081 14.1944 21.4354 14.5061L18.5654 17.786C18.4773 17.8867 18.3256 17.9002 18.2211 17.8166L16.4683 16.4144C16.1449 16.1556 15.6729 16.208 15.4141 16.5315C15.1554 16.8549 15.2078 17.3269 15.5313 17.5857L17.2841 18.9879C18.0154 19.5729 19.0776 19.4786 19.6943 18.7738L22.5642 15.4939Z" fill="#28303F"/>
</svg>
