<svg width="24" height="24" viewBox="0 0 24 24" fill="none" xmlns="http://www.w3.org/2000/svg">
<path d="M17.4685 3.58568C17.7919 3.32692 17.8444 2.85495 17.5856 2.53151C17.3269 2.20806 16.8549 2.15562 16.5315 2.41438L12.0494 6H5.96477C3.99392 6 2.41291 7.43328 2.06934 9.25H21.9305C21.5869 7.43328 20.0059 6 18.0351 6H14.4506L17.4685 3.58568Z" fill="#28303F"/>
<path fill-rule="evenodd" clip-rule="evenodd" d="M20.2819 18.808C19.902 20.6666 18.2805 22 16.4001 22H7.59969C5.71933 22 4.09778 20.6666 3.71795 18.808L2.08303 10.808C2.07908 10.7887 2.07527 10.7693 2.07161 10.75H21.9282C21.9245 10.7693 21.9207 10.7887 21.9168 10.808L20.2819 18.808ZM9 13.25C9.41421 13.25 9.75 13.5858 9.75 14L9.75 18C9.75 18.4142 9.41421 18.75 9 18.75C8.58579 18.75 8.25 18.4142 8.25 18L8.25 14C8.25 13.5858 8.58579 13.25 9 13.25ZM15.75 14C15.75 13.5858 15.4142 13.25 15 13.25C14.5858 13.25 14.25 13.5858 14.25 14V18C14.25 18.4142 14.5858 18.75 15 18.75C15.4142 18.75 15.75 18.4142 15.75 18V14Z" fill="#28303F"/>
</svg>
