<svg width="24" height="24" viewBox="0 0 24 24" fill="none" xmlns="http://www.w3.org/2000/svg">
<path fill-rule="evenodd" clip-rule="evenodd" d="M15.6113 3H8.38836C6.433 3 4.76424 4.41365 4.44278 6.3424L2.77612 16.3424C2.36976 18.7805 4.24994 21 6.72169 21H11.9999C12.5521 21 12.9999 20.5523 12.9999 20V17C12.9999 14.7909 14.7907 13 16.9998 13H19.4861C20.104 13 20.574 12.4451 20.4725 11.8356L19.5569 6.3424C19.2355 4.41365 17.5667 3 15.6113 3ZM15.7498 7C15.7498 9.07107 14.0708 10.75 11.9998 10.75C9.92869 10.75 8.24976 9.07107 8.24976 7V6C8.24976 5.58579 8.58554 5.25 8.99976 5.25C9.41397 5.25 9.74976 5.58579 9.74976 6V7C9.74976 8.24264 10.7571 9.25 11.9998 9.25C13.2424 9.25 14.2498 8.24264 14.2498 7V6C14.2498 5.58579 14.5855 5.25 14.9998 5.25C15.414 5.25 15.7498 5.58579 15.7498 6V7ZM18.7498 15C18.7498 14.5858 18.414 14.25 17.9998 14.25C17.5855 14.25 17.2498 14.5858 17.2498 15V17.25H14.9998C14.5855 17.25 14.2498 17.5858 14.2498 18C14.2498 18.4142 14.5855 18.75 14.9998 18.75H17.2498V21C17.2498 21.4142 17.5855 21.75 17.9998 21.75C18.414 21.75 18.7498 21.4142 18.7498 21V18.75H20.9998C21.414 18.75 21.7498 18.4142 21.7498 18C21.7498 17.5858 21.414 17.25 20.9998 17.25H18.7498V15Z" fill="#28303F"/>
</svg>
