<svg width="24" height="24" viewBox="0 0 24 24" fill="none" xmlns="http://www.w3.org/2000/svg">
<path fill-rule="evenodd" clip-rule="evenodd" d="M8.38836 3H15.6113C17.5667 3 19.2355 4.41365 19.5569 6.3424L21.2236 16.3424C21.6299 18.7805 19.7498 21 17.278 21H6.72169C4.24994 21 2.36976 18.7805 2.77612 16.3424L4.44278 6.3424C4.76424 4.41365 6.433 3 8.38836 3ZM11.9999 10.75C14.0709 10.75 15.7499 9.07107 15.7499 7V6C15.7499 5.58579 15.4141 5.25 14.9999 5.25C14.5856 5.25 14.2499 5.58579 14.2499 6V7C14.2499 8.24264 13.2425 9.25 11.9999 9.25C10.7572 9.25 9.74985 8.24264 9.74985 7V6C9.74985 5.58579 9.41406 5.25 8.99985 5.25C8.58564 5.25 8.24985 5.58579 8.24985 6V7C8.24985 9.07107 9.92878 10.75 11.9999 10.75Z" fill="#28303F"/>
</svg>
