<svg width="24" height="24" viewBox="0 0 24 24" fill="none" xmlns="http://www.w3.org/2000/svg">
<path fill-rule="evenodd" clip-rule="evenodd" d="M7.23146 2H16.7689C18.5863 2 20.2206 3.24475 20.8955 5.14305L21.6535 7.27487C21.8829 7.92019 22.0415 8.61074 21.8742 9.27488C21.4778 10.8478 20.192 12 18.6669 12C16.8259 12 15.3335 10.3211 15.3335 8.25C15.3335 10.3211 13.8412 12 12.0002 12C10.1593 12 8.66687 10.3211 8.66687 8.25C8.66687 10.3211 7.17449 12 5.33354 12C3.80844 12 2.52257 10.8478 2.12622 9.27488C1.95887 8.61074 2.11747 7.92019 2.34692 7.27487L3.1049 5.14305C3.77985 3.24476 5.41411 2 7.23146 2ZM4.00024 13.3005V17.9999C4.00024 20.2091 5.79111 21.9999 8.00024 21.9999H16.0002C18.2094 21.9999 20.0002 20.2091 20.0002 17.9999V13.3005C19.5814 13.4298 19.1351 13.4999 18.667 13.4999C17.3299 13.4999 16.1775 12.9373 15.3337 12.0559C14.4898 12.9373 13.3374 13.4999 12.0003 13.4999C10.6632 13.4999 9.5108 12.9373 8.66698 12.0559C7.82317 12.9373 6.67077 13.4999 5.33365 13.4999C4.86552 13.4999 4.41911 13.4297 4.00024 13.3005ZM15.6534 16.6315C15.8569 16.9923 15.7293 17.4497 15.3685 17.6531C14.1533 18.3382 13.1066 18.7477 12.003 18.7498C10.8979 18.7519 9.84923 18.3457 8.62928 17.6517C8.26925 17.4469 8.14342 16.989 8.34823 16.629C8.55305 16.2689 9.01095 16.1431 9.37098 16.3479C10.5072 16.9943 11.2822 17.2512 12.0001 17.2498C12.7193 17.2484 13.4945 16.9877 14.6318 16.3465C14.9926 16.1431 15.45 16.2707 15.6534 16.6315Z" fill="#28303F"/>
</svg>
