<svg width="24" height="24" viewBox="0 0 24 24" fill="none" xmlns="http://www.w3.org/2000/svg">
<path fill-rule="evenodd" clip-rule="evenodd" d="M12.5761 3.50011C11.4045 3.41786 10.2486 3.85219 9.41168 4.68911L2.84632 11.2545C1.26298 12.8378 1.24576 15.3877 2.80786 16.9498L7.0505 21.1924C8.6126 22.7545 11.1625 22.7373 12.7458 21.154L19.3112 14.5886C20.1481 13.7517 20.5824 12.5958 20.5002 11.4242L20.2218 7.45987C20.0829 5.48041 18.5199 3.91741 16.5404 3.77844L12.5761 3.50011ZM13.4144 10.5859C14.1954 11.367 15.4618 11.367 16.2428 10.5859C17.0239 9.80485 17.0239 8.53852 16.2428 7.75748C15.4618 6.97643 14.1954 6.97643 13.4144 7.75748C12.6334 8.53852 12.6334 9.80485 13.4144 10.5859Z" fill="#28303F"/>
</svg>
