<svg width="24" height="24" viewBox="0 0 24 24" fill="none" xmlns="http://www.w3.org/2000/svg">
<path d="M2 8C2 5.79086 3.79086 4 6 4H13C15.2091 4 17 5.79086 17 8V16C17 18.2091 15.2091 20 13 20H6C3.79086 20 2 18.2091 2 16V8Z" stroke="#28303F" stroke-width="1.5"/>
<path d="M17 9.33333L18.5409 7.68968C19.781 6.36697 22 7.24449 22 9.05756V14.9424C22 16.7555 19.781 17.633 18.5409 16.3103L17 14.6667V9.33333Z" stroke="#28303F" stroke-width="1.5"/>
<path d="M13 10C13 11.1046 12.1046 12 11 12C9.89543 12 9 11.1046 9 10C9 8.89543 9.89543 8 11 8C12.1046 8 13 8.89543 13 10Z" stroke="#28303F" stroke-width="1.5"/>
</svg>
