<svg width="24" height="24" viewBox="0 0 24 24" fill="none" xmlns="http://www.w3.org/2000/svg">
<path d="M14.9798 2.24683L14.7947 2.97365L14.9798 2.24683ZM20.4185 13L19.7233 13.2814C19.8379 13.5646 20.1129 13.75 20.4185 13.75C20.724 13.75 20.999 13.5646 21.1137 13.2814L20.4185 13ZM12.25 17C12.25 19.3472 10.3472 21.25 8 21.25V22.75C11.1756 22.75 13.75 20.1756 13.75 17H12.25ZM8 21.25C5.65279 21.25 3.75 19.3472 3.75 17H2.25C2.25 20.1756 4.82436 22.75 8 22.75V21.25ZM3.75 17C3.75 14.6528 5.65279 12.75 8 12.75V11.25C4.82436 11.25 2.25 13.8243 2.25 17H3.75ZM8 12.75C10.3472 12.75 12.25 14.6528 12.25 17H13.75C13.75 13.8243 11.1756 11.25 8 11.25V12.75ZM14.7947 2.97365C17.9311 3.77212 20.25 6.61619 20.25 9.99998H21.75C21.75 5.91384 18.9498 2.48361 15.1648 1.52002L14.7947 2.97365ZM13 8.74998C16.0414 8.74998 18.6472 10.623 19.7233 13.2814L21.1137 12.7186C19.8162 9.51326 16.6733 7.24998 13 7.24998V8.74998ZM20.25 9.99998C20.25 10.9628 20.0627 11.88 19.7233 12.7186L21.1137 13.2814C21.5243 12.2671 21.75 11.159 21.75 9.99998H20.25ZM12.25 3.99998V7.99998H13.75V3.99998H12.25ZM15.1648 1.52002C13.4891 1.09341 12.25 2.55085 12.25 3.99998H13.75C13.75 3.23996 14.3296 2.85524 14.7947 2.97365L15.1648 1.52002ZM12.25 7.99998V17H13.75V7.99998H12.25Z" fill="#28303F"/>
</svg>
