<svg width="24" height="24" viewBox="0 0 24 24" fill="none" xmlns="http://www.w3.org/2000/svg">
<path d="M21.7522 14.2222C21.9144 13.5075 22 12.7638 22 12C22 6.47715 17.5228 2 12 2C6.47715 2 2 6.47715 2 12C2 17.5228 6.47715 22 12 22C12.7638 22 13.5075 21.9144 14.2222 21.7522M22 18H16M14.3167 10.6584L11.1708 9.08541C10.1735 8.58673 9 9.31198 9 10.4271V13.5729C9 14.688 10.1735 15.4133 11.1708 14.9146L14.3167 13.3416C15.4223 12.7889 15.4223 11.2111 14.3167 10.6584Z" stroke="#28303F" stroke-width="1.5" stroke-linecap="round"/>
</svg>
