<svg width="24" height="24" viewBox="0 0 24 24" fill="none" xmlns="http://www.w3.org/2000/svg">
<circle cx="1" cy="1" r="1" transform="matrix(1 0 0 -1 14 12)" fill="#28303F"/>
<path d="M5 18L5 20M6 9H9M6 13H9M19 20V18M2 8L2 14C2 16.2091 3.79086 18 6 18L18 18C20.2091 18 22 16.2091 22 14V8C22 5.79086 20.2091 4 18 4L6 4C3.79086 4 2 5.79086 2 8ZM18 11C18 12.6569 16.6569 14 15 14C13.3431 14 12 12.6569 12 11C12 9.34315 13.3431 8 15 8C16.6569 8 18 9.34315 18 11Z" stroke="#28303F" stroke-width="1.5" stroke-linecap="round" stroke-linejoin="round"/>
</svg>
