<svg width="24" height="24" viewBox="0 0 24 24" fill="none" xmlns="http://www.w3.org/2000/svg">
<path d="M22 14L20 12M20 12L18 10M20 12L22 10M20 12L18 14M7.53323 7.60208L11.8 4.40345C13.1185 3.41504 15 4.35538 15 6.00272V17.9973C15 19.6446 13.1185 20.585 11.8 19.5966L7.53323 16.3979C7.1871 16.1384 6.76617 15.9982 6.33358 15.9982H4C2.89543 15.9982 2 15.1032 2 13.9991V10.0009C2 8.89684 2.89543 8.00181 4 8.00181H6.33358C6.76617 8.00181 7.1871 7.86156 7.53323 7.60208Z" stroke="#28303F" stroke-width="1.5" stroke-linecap="round" stroke-linejoin="round"/>
</svg>
