<svg width="24" height="24" viewBox="0 0 24 24" fill="none" xmlns="http://www.w3.org/2000/svg">
<path d="M3.57891 2.46967C3.28602 2.17678 2.81115 2.17678 2.51825 2.46967C2.22536 2.76256 2.22536 3.23744 2.51825 3.53033L3.57891 2.46967ZM20.5183 21.5303C20.8111 21.8232 21.286 21.8232 21.5789 21.5303C21.8718 21.2374 21.8718 20.7626 21.5789 20.4697L20.5183 21.5303ZM17.7771 18.75C18.1913 18.75 18.5271 18.4142 18.5271 18C18.5271 17.5858 18.1913 17.25 17.7771 17.25V18.75ZM18.2395 8.97519L17.4943 9.05977L18.2395 8.97519ZM18.6867 12.9153L19.4319 12.8307V12.8307L18.6867 12.9153ZM5.31322 12.9153L4.568 12.8307V12.8307L5.31322 12.9153ZM5.7604 8.97519L6.50562 9.05977L5.7604 8.97519ZM4.44772 14.8721L3.87662 14.386L4.44772 14.8721ZM19.5522 14.8721L20.1233 14.386V14.386L19.5522 14.8721ZM14.2699 4.37366H13.5199C13.5199 4.69424 13.7236 4.97938 14.0269 5.08322L14.2699 4.37366ZM9.72999 4.37366L9.97294 5.08322C10.2762 4.97938 10.48 4.69424 10.48 4.37366H9.72999ZM19.2487 15.9881C19.2703 16.4018 19.6231 16.7196 20.0367 16.698C20.4504 16.6765 20.7682 16.3236 20.7466 15.91L19.2487 15.9881ZM8.46794 4.1003C8.10051 4.29153 7.95766 4.74441 8.14889 5.11184C8.34011 5.47927 8.79299 5.62212 9.16042 5.43089L8.46794 4.1003ZM7.23203 7.11886C7.46411 6.77577 7.37412 6.3095 7.03103 6.07742C6.68794 5.84533 6.22167 5.93532 5.98959 6.27841L7.23203 7.11886ZM15.7022 20.2632C15.8476 19.8753 15.651 19.4431 15.2631 19.2977C14.8753 19.1523 14.443 19.3489 14.2976 19.7368L15.7022 20.2632ZM9.70224 19.7368C9.55687 19.3489 9.1246 19.1523 8.73674 19.2977C8.34887 19.4431 8.15228 19.8753 8.29764 20.2632L9.70224 19.7368ZM2.51825 3.53033L20.5183 21.5303L21.5789 20.4697L3.57891 2.46967L2.51825 3.53033ZM17.7771 17.25H6.22275V18.75H17.7771V17.25ZM17.4943 9.05977L17.9414 12.9998L19.4319 12.8307L18.9847 8.89061L17.4943 9.05977ZM6.05843 12.9998L6.50562 9.05977L5.01519 8.89061L4.568 12.8307L6.05843 12.9998ZM5.01883 15.3583C5.59615 14.6801 5.96022 13.8652 6.05843 12.9998L4.568 12.8307C4.50513 13.3846 4.27061 13.9231 3.87662 14.386L5.01883 15.3583ZM17.9414 12.9998C18.0397 13.8652 18.4037 14.6801 18.981 15.3583L20.1233 14.386C19.7293 13.9231 19.4947 13.3846 19.4319 12.8307L17.9414 12.9998ZM6.22275 17.25C5.56771 17.25 5.10436 16.926 4.8905 16.5492C4.68403 16.1854 4.68708 15.748 5.01883 15.3583L3.87662 14.386C3.11135 15.285 3.08771 16.4116 3.58592 17.2895C4.07673 18.1544 5.04941 18.75 6.22275 18.75V17.25ZM15.0199 4.37366V4.26995H13.5199V4.37366H15.0199ZM18.9847 8.89061C18.7054 6.43026 16.8805 4.47476 14.5128 3.6641L14.0269 5.08322C15.9441 5.73962 17.2912 7.27101 17.4943 9.05977L18.9847 8.89061ZM10.48 4.37366V4.26995H8.97999V4.37366H10.48ZM11.9999 2.75C12.8394 2.75 13.5199 3.4305 13.5199 4.26995H15.0199C15.0199 2.60208 13.6678 1.25 11.9999 1.25V2.75ZM11.9999 1.25C10.3321 1.25 8.97999 2.60208 8.97999 4.26995H10.48C10.48 3.4305 11.1605 2.75 11.9999 2.75V1.25ZM20.7466 15.91C20.7185 15.3717 20.5121 14.8428 20.1233 14.386L18.981 15.3583C19.1638 15.5729 19.2383 15.7901 19.2487 15.9881L20.7466 15.91ZM9.16042 5.43089C9.41817 5.29676 9.68975 5.18018 9.97294 5.08322L9.48705 3.6641C9.13339 3.78519 8.79271 3.93128 8.46794 4.1003L9.16042 5.43089ZM6.50562 9.05977C6.58533 8.35745 6.83871 7.70031 7.23203 7.11886L5.98959 6.27841C5.46859 7.04862 5.12375 7.93412 5.01519 8.89061L6.50562 9.05977ZM14.2976 19.7368C13.9749 20.5979 13.0845 21.25 11.9999 21.25V22.75C13.6854 22.75 15.1516 21.7325 15.7022 20.2632L14.2976 19.7368ZM11.9999 21.25C10.9154 21.25 10.025 20.5979 9.70224 19.7368L8.29764 20.2632C8.84829 21.7325 10.3145 22.75 11.9999 22.75V21.25Z" fill="#28303F"/>
</svg>
